<svg width="408" height="51" viewBox="0 0 408 51" fill="none" xmlns="http://www.w3.org/2000/svg">
<g filter="url(#filter0_d_2284_21877)">
<rect x="5.05556" y="1.05556" width="397.889" height="40.5333" rx="15.8333" stroke="white" stroke-width="2.11111"/>
<path d="M170.375 29.0889V15.0889H177.535C179.375 15.0889 180.748 15.4289 181.655 16.1089C182.561 16.7755 183.015 17.6555 183.015 18.7489C183.015 19.4689 182.821 20.1022 182.435 20.6489C182.061 21.1822 181.528 21.6089 180.835 21.9289C180.155 22.2355 179.341 22.3889 178.395 22.3889L178.795 21.4289C179.781 21.4289 180.641 21.5822 181.375 21.8889C182.108 22.1822 182.675 22.6155 183.075 23.1889C183.488 23.7489 183.695 24.4355 183.695 25.2489C183.695 26.4622 183.201 27.4089 182.215 28.0889C181.241 28.7555 179.815 29.0889 177.935 29.0889H170.375ZM174.295 26.2289H177.615C178.295 26.2289 178.808 26.1155 179.155 25.8889C179.515 25.6489 179.695 25.2889 179.695 24.8089C179.695 24.3289 179.515 23.9755 179.155 23.7489C178.808 23.5089 178.295 23.3889 177.615 23.3889H174.015V20.6489H177.015C177.681 20.6489 178.181 20.5355 178.515 20.3089C178.848 20.0822 179.015 19.7422 179.015 19.2889C179.015 18.8355 178.848 18.5022 178.515 18.2889C178.181 18.0622 177.681 17.9489 177.015 17.9489H174.295V26.2289ZM189.386 20.5089H195.886V23.4689H189.386V20.5089ZM189.666 26.0289H196.986V29.0889H185.746V15.0889H196.726V18.1489H189.666V26.0289ZM206.183 29.3689C205.077 29.3689 204.05 29.1955 203.103 28.8489C202.157 28.4889 201.337 27.9822 200.643 27.3289C199.963 26.6755 199.43 25.9089 199.043 25.0289C198.657 24.1355 198.463 23.1555 198.463 22.0889C198.463 21.0222 198.657 20.0489 199.043 19.1689C199.43 18.2755 199.97 17.5022 200.663 16.8489C201.357 16.1955 202.177 15.6955 203.123 15.3489C204.083 14.9889 205.13 14.8089 206.263 14.8089C207.583 14.8089 208.763 15.0289 209.803 15.4689C210.843 15.9089 211.703 16.5422 212.383 17.3689L209.863 19.6489C209.383 19.1289 208.863 18.7422 208.303 18.4889C207.757 18.2222 207.143 18.0889 206.463 18.0889C205.863 18.0889 205.317 18.1822 204.823 18.3689C204.33 18.5555 203.91 18.8289 203.563 19.1889C203.217 19.5355 202.943 19.9555 202.743 20.4489C202.557 20.9289 202.463 21.4755 202.463 22.0889C202.463 22.6755 202.557 23.2155 202.743 23.7089C202.943 24.2022 203.217 24.6289 203.563 24.9889C203.91 25.3355 204.323 25.6089 204.803 25.8089C205.297 25.9955 205.837 26.0889 206.423 26.0889C207.01 26.0889 207.583 25.9955 208.143 25.8089C208.703 25.6089 209.27 25.2755 209.843 24.8089L212.063 27.5889C211.263 28.1622 210.337 28.6022 209.283 28.9089C208.23 29.2155 207.197 29.3689 206.183 29.3689ZM208.563 27.0689V21.7889H212.063V27.5889L208.563 27.0689ZM214.574 29.0889V15.0889H218.534V29.0889H214.574ZM221.351 29.0889V15.0889H224.611L232.331 24.4089H230.791V15.0889H234.671V29.0889H231.411L223.691 19.7689H225.231V29.0889H221.351Z" fill="white"/>
</g>
<defs>
<filter id="filter0_d_2284_21877" x="0" y="0" width="408" height="50.6445" filterUnits="userSpaceOnUse" color-interpolation-filters="sRGB">
<feFlood flood-opacity="0" result="BackgroundImageFix"/>
<feColorMatrix in="SourceAlpha" type="matrix" values="0 0 0 0 0 0 0 0 0 0 0 0 0 0 0 0 0 0 127 0" result="hardAlpha"/>
<feOffset dy="4"/>
<feGaussianBlur stdDeviation="2"/>
<feComposite in2="hardAlpha" operator="out"/>
<feColorMatrix type="matrix" values="0 0 0 0 0 0 0 0 0 0 0 0 0 0 0 0 0 0 0.25 0"/>
<feBlend mode="normal" in2="BackgroundImageFix" result="effect1_dropShadow_2284_21877"/>
<feBlend mode="normal" in="SourceGraphic" in2="effect1_dropShadow_2284_21877" result="shape"/>
</filter>
</defs>
</svg>
