<svg width="80" height="73" viewBox="0 0 80 73" fill="none" xmlns="http://www.w3.org/2000/svg">
<path d="M64.427 5.85559H14.1507C11.3061 5.85559 9 8.16165 9 11.0063V61.2826C9 64.1272 11.3061 66.4333 14.1507 66.4333H64.427C67.2716 66.4333 69.5777 64.1272 69.5777 61.2826V11.0063C69.5777 8.16164 67.2716 5.85559 64.427 5.85559Z" fill="#467E5C"/>
<g clip-path="url(#clip0_5731_2)">
<path d="M3.89814 15.8177L14.6114 15.8177V12.2152L3.89814 12.2152V15.8177Z" fill="#62B781"/>
<path d="M4.9736 17.7301H13.4764V15.8177L4.9736 15.8177V17.7301Z" fill="#D8F2D9"/>
<path d="M4.97361 59.1923H13.4764L13.4764 15.82H4.97361L4.97361 59.1923Z" fill="#EDFFEB"/>
<path d="M4.9736 16.7738H13.4764V15.8176L4.9736 15.8176V16.7738Z" fill="#62B781"/>
<path d="M4.9736 20.3361H13.4764V19.3799H4.9736V20.3361Z" fill="#62B781"/>
<path d="M3.89813 12.893L14.6114 12.893V12.2174L3.89813 12.2174V12.893Z" fill="#D8F2D9"/>
<path d="M3.89813 16.1589L14.6114 16.1589V15.4833L3.89813 15.4833V16.1589Z" fill="#D8F2D9"/>
<path d="M13.8404 12.2174H4.36307C4.36307 12.2174 1.89116 13.1399 1.37825 10.8526C0.865334 8.56315 2.67046 7.68327 3.93454 7.68327C5.19862 7.68327 14.355 7.24333 15.5694 7.86059C16.7855 8.47561 17.2653 9.93235 16.8186 10.8526C16.3702 11.7729 16.309 12.6146 13.8404 12.2174Z" fill="#62B781"/>
<path d="M9.10007 6.86844L3.69627 7.0727L3.35213 7.08841C3.21811 7.09739 3.08574 7.1131 2.95503 7.14677C2.69196 7.21411 2.43716 7.32858 2.1989 7.49468C1.72404 7.82913 1.32033 8.37681 1.10524 9.06365C0.886833 9.74152 0.883524 10.5608 1.1284 11.2387C1.36831 11.912 1.80842 12.3969 2.29155 12.6393C2.53477 12.7627 2.78958 12.8278 3.04438 12.8368C3.30911 12.8368 3.48118 12.8346 3.75584 12.8076C4.26875 12.7381 4.76181 12.3901 5.07783 11.8268C5.38723 11.2723 5.52125 10.4688 5.25652 9.80437C4.99841 9.15793 4.45903 8.83695 3.96928 8.86837L3.28925 8.89531C3.03776 8.91102 2.78792 9.04345 2.5993 9.2724C2.40903 9.49686 2.28494 9.83355 2.28659 10.1815C2.28328 10.5473 2.44708 10.8526 2.6357 11.0456C2.82432 11.2499 3.0692 11.3464 3.29587 11.3689C3.5242 11.3958 3.76411 11.3868 3.98251 11.2499C4.22077 11.1197 4.29688 10.7202 4.22408 10.4284C4.12811 10.1074 3.84849 10.0535 3.63671 10.0715C3.85015 10.067 4.11984 10.1523 4.18933 10.4441C4.24062 10.7224 4.16121 11.0681 3.95108 11.1579C3.75253 11.2656 3.5242 11.2589 3.30911 11.2185C3.09071 11.1781 2.8872 11.0793 2.72836 10.8885C2.56952 10.7067 2.45701 10.4463 2.4719 10.1904C2.48183 9.92109 2.58772 9.67418 2.74325 9.50808C2.89712 9.33974 3.09732 9.2522 3.29587 9.25444L3.96762 9.27914C4.37299 9.28362 4.76347 9.58216 4.92065 10.0401C5.07949 10.4822 4.96698 11.0681 4.72376 11.4497C4.47557 11.8425 4.09502 12.0804 3.71117 12.1006C3.53578 12.1051 3.25782 12.0939 3.07251 12.0759C2.87727 12.0535 2.68699 11.9884 2.51326 11.8851C2.1625 11.6786 1.87295 11.3038 1.74059 10.8593C1.60491 10.4239 1.62973 9.90987 1.78857 9.48115C1.94575 9.05243 2.22703 8.70452 2.56125 8.50026C2.72836 8.4015 2.90705 8.33416 3.08905 8.30274C3.18005 8.28702 3.27271 8.28253 3.36371 8.28253L3.69462 8.29376L9.09841 8.49802V6.87068L9.10007 6.86844Z" fill="white"/>
<path d="M9.09676 8.49573L14.5005 8.29147L14.8315 8.28025C14.9241 8.28025 15.0151 8.28249 15.1061 8.30045C15.2881 8.33187 15.4668 8.39696 15.6339 8.49797C15.9665 8.69999 16.2494 9.05014 16.4066 9.47886C16.5654 9.90982 16.5886 10.4216 16.4546 10.857C16.3206 11.3015 16.0327 11.6763 15.6819 11.8828C15.5065 11.9861 15.3162 12.0512 15.1227 12.0736C14.9373 12.0916 14.6594 12.1028 14.484 12.0983C14.0985 12.0781 13.7196 11.8402 13.4714 11.4474C13.2282 11.0635 13.1157 10.48 13.2745 10.0378C13.4317 9.57987 13.8222 9.27909 14.2275 9.27685L14.8993 9.25216C15.0962 9.24991 15.2964 9.33745 15.4519 9.50579C15.6074 9.67189 15.7133 9.9188 15.7233 10.1882C15.7382 10.444 15.6256 10.7067 15.4668 10.8862C15.308 11.077 15.1061 11.1758 14.8861 11.2162C14.671 11.2588 14.4426 11.2633 14.2441 11.1556C14.034 11.0658 13.9545 10.7224 14.0058 10.4418C14.0737 10.15 14.3434 10.0647 14.5585 10.0692C14.3467 10.0512 14.0654 10.1029 13.9711 10.4261C13.8983 10.7201 13.9761 11.1174 14.2127 11.2476C14.4311 11.3845 14.671 11.3913 14.8993 11.3666C15.126 11.3419 15.3708 11.2476 15.5595 11.0433C15.7481 10.8503 15.9119 10.5428 15.9086 10.1792C15.9086 9.83351 15.7845 9.49682 15.5959 9.27011C15.4072 9.04116 15.1591 8.91098 14.9059 8.89302L14.2259 8.86609C13.7361 8.83466 13.1984 9.15564 12.9386 9.80208C12.6739 10.4665 12.8079 11.27 13.1173 11.8245C13.4334 12.3879 13.9281 12.7358 14.4393 12.8054C14.714 12.83 14.8861 12.8345 15.1508 12.8345C15.4056 12.8233 15.6604 12.7605 15.9036 12.637C16.3884 12.3946 16.8285 11.9098 17.0668 11.2364C17.31 10.5608 17.3067 9.73923 17.0899 9.06136C16.8748 8.37452 16.4711 7.82684 15.9979 7.49239C15.7597 7.32629 15.5032 7.20957 15.2418 7.14448C15.1111 7.11081 14.9771 7.09285 14.8447 7.08612L14.5005 7.07041L9.09676 6.86615V8.49348V8.49573Z" fill="white"/>
<path d="M3.10561 5.07724L15.0979 5.07724V-3.71933e-05L3.10561 -3.71933e-05V5.07724Z" fill="#D8F2D9"/>
<path d="M3.10561 4.00882L15.0979 4.00882V-2.95639e-05L3.10561 -2.95639e-05V4.00882Z" fill="#62B781"/>
<path d="M3.10561 7.21417L15.0979 7.21417V5.54419L3.10561 5.54419V7.21417Z" fill="#D8F2D9"/>
<path d="M3.10561 6.14575L15.0979 6.14575V5.5442L3.10561 5.5442V6.14575Z" fill="#62B781"/>
<path d="M3.09568 3.12897H15.0962L16.3884 0H1.80512L3.09568 3.12897Z" fill="white"/>
<path d="M3.10561 5.54407L15.0979 5.54407V4.67541L3.10561 4.67541V5.54407Z" fill="white"/>
<path d="M4.26047 18.987H14.3036V18.3855H4.26047V18.987Z" fill="#62B781"/>
<path d="M4.26047 18.3854H14.3036V17.5168H4.26047V18.3854Z" fill="white"/>
<path d="M4.26047 19.858H14.3036V18.9893H4.26047V19.858Z" fill="white"/>
<path d="M4.97361 59.1923H13.4764V58.2361H4.97361V59.1923Z" fill="#62B781"/>
<path d="M4.26047 58.7141H14.3036V57.8455H4.26047V58.7141Z" fill="white"/>
<path d="M1.98547 67.3963H16.577V66.5276H1.98547V67.3963Z" fill="#62B781"/>
<path d="M1.98547 68.927H16.577V67.3962H1.98547V68.927Z" fill="#EDFFEB"/>
<path d="M1.98547 66.9608H16.577V66.0922H1.98547V66.9608Z" fill="white"/>
<path d="M0 70.2289H18.5625V69.3602H0V70.2289Z" fill="#62B781"/>
<path d="M0 72.3187H18.5625V70.2312H0V72.3187Z" fill="#EDFFEB"/>
<path d="M0 69.7958H18.5625V68.9271H0V69.7958Z" fill="white"/>
<path d="M13.3655 15.0657H13.5856C13.804 15.0657 13.981 14.8256 13.981 14.5293V13.8649C13.981 13.5686 13.804 13.3284 13.5856 13.3284H13.3655C13.1471 13.3284 12.9701 13.5686 12.9701 13.8649V14.5293C12.9701 14.8256 13.1471 15.0657 13.3655 15.0657Z" fill="#D8F2D9"/>
<path d="M11.1964 15.0657H11.4164C11.6348 15.0657 11.8119 14.8256 11.8119 14.5293V13.8649C11.8119 13.5686 11.6348 13.3284 11.4164 13.3284H11.1964C10.978 13.3284 10.8009 13.5686 10.8009 13.8649V14.5293C10.8009 14.8256 10.978 15.0657 11.1964 15.0657Z" fill="#D8F2D9"/>
<path d="M9.02562 15.0657H9.24567C9.46407 15.0657 9.64111 14.8256 9.64111 14.5293V13.8649C9.64111 13.5686 9.46407 13.3284 9.24567 13.3284H9.02562C8.80722 13.3284 8.63018 13.5686 8.63018 13.8649V14.5293C8.63018 14.8256 8.80722 15.0657 9.02562 15.0657Z" fill="#D8F2D9"/>
<path d="M6.95576 15.0657H7.17582C7.39421 15.0657 7.57126 14.8256 7.57126 14.5293V13.8649C7.57126 13.5686 7.39421 13.3284 7.17582 13.3284H6.95576C6.73737 13.3284 6.56032 13.5686 6.56032 13.8649V14.5293C6.56032 14.8256 6.73737 15.0657 6.95576 15.0657Z" fill="#D8F2D9"/>
<path d="M4.88756 15.0657H5.10761C5.32601 15.0657 5.50305 14.8256 5.50305 14.5293V13.8649C5.50305 13.5686 5.32601 13.3284 5.10761 13.3284H4.88756C4.66916 13.3284 4.49212 13.5686 4.49212 13.8649V14.5293C4.49212 14.8256 4.66916 15.0657 4.88756 15.0657Z" fill="#D8F2D9"/>
<path d="M9.31021 56.9117H9.14309C8.97764 56.9117 8.84362 56.7299 8.84362 56.5055L8.84362 21.2474C8.84362 21.0229 8.97764 20.8411 9.14309 20.8411H9.31021C9.47566 20.8411 9.60968 21.0229 9.60968 21.2474L9.60968 56.5055C9.60968 56.7299 9.47566 56.9117 9.31021 56.9117Z" fill="#5EA97C"/>
<path d="M12.5234 56.9117H12.3563C12.1908 56.9117 12.0568 56.7299 12.0568 56.5055L12.0568 21.2474C12.0568 21.0229 12.1908 20.8411 12.3563 20.8411H12.5234C12.6888 20.8411 12.8228 21.0229 12.8228 21.2474L12.8228 56.5055C12.8228 56.7299 12.6888 56.9117 12.5234 56.9117Z" fill="#5EA97C"/>
<path d="M6.09704 56.9117H5.92993C5.76447 56.9117 5.63045 56.7299 5.63045 56.5055L5.63045 21.2474C5.63045 21.0229 5.76447 20.8411 5.92993 20.8411H6.09704C6.2625 20.8411 6.39651 21.0229 6.39651 21.2474L6.39651 56.5055C6.39651 56.7299 6.2625 56.9117 6.09704 56.9117Z" fill="#5EA97C"/>
<path d="M2.48019 66.0945H16.031L13.4764 59.1923H4.97361L2.48019 66.0945Z" fill="#EDFFEB"/>
<path d="M17.8242 49.5703C16.991 49.3491 16.6989 49.0411 16.4531 48.1992C16.2843 49.0459 16.0027 49.3617 15.082 49.5703C16.0007 49.8064 16.2643 50.1355 16.4531 50.9414C16.7312 50.1681 16.8943 49.7412 17.8242 49.5703Z" fill="white"/>
<path d="M17.8242 49.5703C16.991 49.3491 16.6989 49.0411 16.4531 48.1992C16.2843 49.0459 16.0027 49.3617 15.082 49.5703C16.0007 49.8064 16.2643 50.1355 16.4531 50.9414C16.7312 50.1681 16.8943 49.7412 17.8242 49.5703Z" fill="white"/>
</g>
<g clip-path="url(#clip1_5731_2)">
<path d="M64.8981 15.8177L75.6114 15.8177V12.2152L64.8981 12.2152V15.8177Z" fill="#62B781"/>
<path d="M65.9736 17.7301H74.4764V15.8177L65.9736 15.8177V17.7301Z" fill="#D8F2D9"/>
<path d="M65.9736 59.1923H74.4764V15.82H65.9736V59.1923Z" fill="#EDFFEB"/>
<path d="M65.9736 16.7738H74.4764V15.8176L65.9736 15.8176V16.7738Z" fill="#62B781"/>
<path d="M65.9736 20.3361H74.4764V19.3799H65.9736V20.3361Z" fill="#62B781"/>
<path d="M64.8981 12.893L75.6114 12.893V12.2174L64.8981 12.2174V12.893Z" fill="#D8F2D9"/>
<path d="M64.8981 16.1589L75.6114 16.1589V15.4833L64.8981 15.4833V16.1589Z" fill="#D8F2D9"/>
<path d="M74.8404 12.2174H65.3631C65.3631 12.2174 62.8912 13.1399 62.3783 10.8526C61.8653 8.56315 63.6705 7.68327 64.9345 7.68327C66.1986 7.68327 75.355 7.24333 76.5694 7.86059C77.7855 8.47561 78.2653 9.93235 77.8186 10.8526C77.3702 11.7729 77.309 12.6146 74.8404 12.2174Z" fill="#62B781"/>
<path d="M70.1001 6.86844L64.6963 7.0727L64.3521 7.08841C64.2181 7.09739 64.0857 7.1131 63.955 7.14677C63.692 7.21411 63.4372 7.32858 63.1989 7.49468C62.724 7.82913 62.3203 8.37681 62.1052 9.06365C61.8868 9.74152 61.8835 10.5608 62.1284 11.2387C62.3683 11.912 62.8084 12.3969 63.2916 12.6393C63.5348 12.7627 63.7896 12.8278 64.0444 12.8368C64.3091 12.8368 64.4812 12.8346 64.7558 12.8076C65.2688 12.7381 65.7618 12.3901 66.0778 11.8268C66.3872 11.2723 66.5213 10.4688 66.2565 9.80437C65.9984 9.15793 65.459 8.83695 64.9693 8.86837L64.2893 8.89531C64.0378 8.91102 63.7879 9.04345 63.5993 9.2724C63.409 9.49686 63.2849 9.83355 63.2866 10.1815C63.2833 10.5473 63.4471 10.8526 63.6357 11.0456C63.8243 11.2499 64.0692 11.3464 64.2959 11.3689C64.5242 11.3958 64.7641 11.3868 64.9825 11.2499C65.2208 11.1197 65.2969 10.7202 65.2241 10.4284C65.1281 10.1074 64.8485 10.0535 64.6367 10.0715C64.8501 10.067 65.1198 10.1523 65.1893 10.4441C65.2406 10.7224 65.1612 11.0681 64.9511 11.1579C64.7525 11.2656 64.5242 11.2589 64.3091 11.2185C64.0907 11.1781 63.8872 11.0793 63.7284 10.8885C63.5695 10.7067 63.457 10.4463 63.4719 10.1904C63.4818 9.92109 63.5877 9.67418 63.7432 9.50808C63.8971 9.33974 64.0973 9.2522 64.2959 9.25444L64.9676 9.27914C65.373 9.28362 65.7635 9.58216 65.9206 10.0401C66.0795 10.4822 65.967 11.0681 65.7238 11.4497C65.4756 11.8425 65.095 12.0804 64.7112 12.1006C64.5358 12.1051 64.2578 12.0939 64.0725 12.0759C63.8773 12.0535 63.687 11.9884 63.5133 11.8851C63.1625 11.6786 62.873 11.3038 62.7406 10.8593C62.6049 10.4239 62.6297 9.90987 62.7886 9.48115C62.9458 9.05243 63.227 8.70452 63.5612 8.50026C63.7284 8.4015 63.9071 8.33416 64.0891 8.30274C64.1801 8.28702 64.2727 8.28253 64.3637 8.28253L64.6946 8.29376L70.0984 8.49802V6.87068L70.1001 6.86844Z" fill="white"/>
<path d="M70.0968 8.49573L75.5005 8.29147L75.8315 8.28025C75.9241 8.28025 76.0151 8.28249 76.1061 8.30045C76.2881 8.33187 76.4668 8.39696 76.6339 8.49797C76.9665 8.69999 77.2494 9.05014 77.4066 9.47886C77.5654 9.90982 77.5886 10.4216 77.4546 10.857C77.3206 11.3015 77.0327 11.6763 76.6819 11.8828C76.5065 11.9861 76.3162 12.0512 76.1227 12.0736C75.9373 12.0916 75.6594 12.1028 75.484 12.0983C75.0985 12.0781 74.7196 11.8402 74.4714 11.4474C74.2282 11.0635 74.1157 10.48 74.2745 10.0378C74.4317 9.57987 74.8222 9.27909 75.2275 9.27685L75.8993 9.25216C76.0962 9.24991 76.2964 9.33745 76.4519 9.50579C76.6074 9.67189 76.7133 9.9188 76.7233 10.1882C76.7382 10.444 76.6256 10.7067 76.4668 10.8862C76.308 11.077 76.1061 11.1758 75.8861 11.2162C75.671 11.2588 75.4426 11.2633 75.2441 11.1556C75.034 11.0658 74.9545 10.7224 75.0058 10.4418C75.0737 10.15 75.3434 10.0647 75.5585 10.0692C75.3467 10.0512 75.0654 10.1029 74.9711 10.4261C74.8983 10.7201 74.9761 11.1174 75.2127 11.2476C75.4311 11.3845 75.671 11.3913 75.8993 11.3666C76.126 11.3419 76.3708 11.2476 76.5595 11.0433C76.7481 10.8503 76.9119 10.5428 76.9086 10.1792C76.9086 9.83351 76.7845 9.49682 76.5959 9.27011C76.4072 9.04116 76.1591 8.91098 75.9059 8.89302L75.2259 8.86609C74.7361 8.83466 74.1984 9.15564 73.9386 9.80208C73.6739 10.4665 73.8079 11.27 74.1173 11.8245C74.4334 12.3879 74.9281 12.7358 75.4393 12.8054C75.714 12.83 75.8861 12.8345 76.1508 12.8345C76.4056 12.8233 76.6604 12.7605 76.9036 12.637C77.3884 12.3946 77.8285 11.9098 78.0668 11.2364C78.31 10.5608 78.3067 9.73923 78.0899 9.06136C77.8748 8.37452 77.4711 7.82684 76.9979 7.49239C76.7597 7.32629 76.5032 7.20957 76.2418 7.14448C76.1111 7.11081 75.9771 7.09285 75.8447 7.08612L75.5005 7.07041L70.0968 6.86615V8.49348V8.49573Z" fill="white"/>
<path d="M64.1056 5.07724L76.0979 5.07724V-3.71933e-05L64.1056 -3.71933e-05V5.07724Z" fill="#D8F2D9"/>
<path d="M64.1056 4.00882L76.0979 4.00882V-2.95639e-05L64.1056 -2.95639e-05V4.00882Z" fill="#62B781"/>
<path d="M64.1056 7.21417L76.0979 7.21417V5.54419L64.1056 5.54419V7.21417Z" fill="#D8F2D9"/>
<path d="M64.1056 6.14575L76.0979 6.14575V5.5442L64.1056 5.5442V6.14575Z" fill="#62B781"/>
<path d="M64.0957 3.12897H76.0962L77.3884 0H62.8051L64.0957 3.12897Z" fill="white"/>
<path d="M64.1056 5.54407L76.0979 5.54407V4.67541L64.1056 4.67541V5.54407Z" fill="white"/>
<path d="M65.2605 18.987H75.3036V18.3855H65.2605V18.987Z" fill="#62B781"/>
<path d="M65.2605 18.3854H75.3036V17.5168H65.2605V18.3854Z" fill="white"/>
<path d="M65.2605 19.858H75.3036V18.9893H65.2605V19.858Z" fill="white"/>
<path d="M65.9736 59.1923H74.4764V58.2361H65.9736V59.1923Z" fill="#62B781"/>
<path d="M65.2605 58.7141H75.3036V57.8455H65.2605V58.7141Z" fill="white"/>
<path d="M62.9855 67.3963H77.577V66.5276H62.9855V67.3963Z" fill="#62B781"/>
<path d="M62.9855 68.927H77.577V67.3962H62.9855V68.927Z" fill="#EDFFEB"/>
<path d="M62.9855 66.9608H77.577V66.0922H62.9855V66.9608Z" fill="white"/>
<path d="M61 70.2289H79.5625V69.3602H61V70.2289Z" fill="#62B781"/>
<path d="M61 72.3187H79.5625V70.2312H61V72.3187Z" fill="#EDFFEB"/>
<path d="M61 69.7958H79.5625V68.9271H61V69.7958Z" fill="white"/>
<path d="M74.3655 15.0657H74.5856C74.804 15.0657 74.981 14.8256 74.981 14.5293V13.8649C74.981 13.5686 74.804 13.3284 74.5856 13.3284H74.3655C74.1471 13.3284 73.9701 13.5686 73.9701 13.8649V14.5293C73.9701 14.8256 74.1471 15.0657 74.3655 15.0657Z" fill="#D8F2D9"/>
<path d="M72.1964 15.0657H72.4165C72.6348 15.0657 72.8119 14.8256 72.8119 14.5293V13.8649C72.8119 13.5686 72.6348 13.3284 72.4165 13.3284H72.1964C71.978 13.3284 71.801 13.5686 71.801 13.8649V14.5293C71.801 14.8256 71.978 15.0657 72.1964 15.0657Z" fill="#D8F2D9"/>
<path d="M70.0256 15.0657H70.2457C70.4641 15.0657 70.6411 14.8256 70.6411 14.5293V13.8649C70.6411 13.5686 70.4641 13.3284 70.2457 13.3284H70.0256C69.8072 13.3284 69.6302 13.5686 69.6302 13.8649V14.5293C69.6302 14.8256 69.8072 15.0657 70.0256 15.0657Z" fill="#D8F2D9"/>
<path d="M67.9558 15.0657H68.1758C68.3942 15.0657 68.5713 14.8256 68.5713 14.5293V13.8649C68.5713 13.5686 68.3942 13.3284 68.1758 13.3284H67.9558C67.7374 13.3284 67.5603 13.5686 67.5603 13.8649V14.5293C67.5603 14.8256 67.7374 15.0657 67.9558 15.0657Z" fill="#D8F2D9"/>
<path d="M65.8876 15.0657H66.1076C66.326 15.0657 66.5031 14.8256 66.5031 14.5293V13.8649C66.5031 13.5686 66.326 13.3284 66.1076 13.3284H65.8876C65.6692 13.3284 65.4921 13.5686 65.4921 13.8649V14.5293C65.4921 14.8256 65.6692 15.0657 65.8876 15.0657Z" fill="#D8F2D9"/>
<path d="M70.3102 56.9117H70.1431C69.9776 56.9117 69.8436 56.7299 69.8436 56.5055V21.2474C69.8436 21.0229 69.9776 20.8411 70.1431 20.8411H70.3102C70.4757 20.8411 70.6097 21.0229 70.6097 21.2474V56.5055C70.6097 56.7299 70.4757 56.9117 70.3102 56.9117Z" fill="#5EA97C"/>
<path d="M73.5234 56.9117H73.3562C73.1908 56.9117 73.0568 56.7299 73.0568 56.5055V21.2474C73.0568 21.0229 73.1908 20.8411 73.3562 20.8411H73.5234C73.6888 20.8411 73.8228 21.0229 73.8228 21.2474V56.5055C73.8228 56.7299 73.6888 56.9117 73.5234 56.9117Z" fill="#5EA97C"/>
<path d="M67.097 56.9117H66.9299C66.7645 56.9117 66.6305 56.7299 66.6305 56.5055V21.2474C66.6305 21.0229 66.7645 20.8411 66.9299 20.8411H67.097C67.2625 20.8411 67.3965 21.0229 67.3965 21.2474V56.5055C67.3965 56.7299 67.2625 56.9117 67.097 56.9117Z" fill="#5EA97C"/>
<path d="M63.4802 66.0945H77.031L74.4764 59.1923H65.9736L63.4802 66.0945Z" fill="#EDFFEB"/>
<path d="M78.8242 49.5703C77.991 49.3491 77.6989 49.0411 77.4531 48.1992C77.2843 49.0459 77.0027 49.3617 76.082 49.5703C77.0007 49.8064 77.2643 50.1355 77.4531 50.9414C77.7312 50.1681 77.8943 49.7412 78.8242 49.5703Z" fill="white"/>
<path d="M78.8242 49.5703C77.991 49.3491 77.6989 49.0411 77.4531 48.1992C77.2843 49.0459 77.0027 49.3617 76.082 49.5703C77.0007 49.8064 77.2643 50.1355 77.4531 50.9414C77.7312 50.1681 77.8943 49.7412 78.8242 49.5703Z" fill="white"/>
</g>
<path d="M28.6595 34.524L39.8638 44.4972L37.2043 47.485L26 37.5119L28.6595 34.524Z" fill="white"/>
<path d="M54.733 29.7975L37.8591 47.043L35 44.2455L51.8739 27L54.733 29.7975Z" fill="white"/>
<defs>
<clipPath id="clip0_5731_2">
<rect width="18.5625" height="72.3164" fill="white"/>
</clipPath>
<clipPath id="clip1_5731_2">
<rect width="18.5625" height="72.3164" fill="white" transform="translate(61)"/>
</clipPath>
</defs>
</svg>
