<svg width="146" height="118" viewBox="0 0 146 118" fill="none" xmlns="http://www.w3.org/2000/svg">
<path d="M113.659 75.8685C113.659 91.4331 95.7535 104.051 73.6656 104.051C51.5777 104.051 33.6719 91.4331 33.6719 75.8685C33.6719 60.304 51.5777 47.6865 73.6656 47.6865C95.7535 47.6865 113.659 60.304 113.659 75.8685Z" fill="#191824"/>
<path d="M69.8947 47.8661L42.2178 58.5798L49.0884 50.9909V43.0758L57.7781 46.9095L69.8947 47.8661Z" fill="#191824"/>
<path d="M74.168 48.2485L105.215 58.5821L98.3442 50.9933V43.0782L89.6545 46.9119L74.168 48.2485Z" fill="#191824"/>
<path d="M107.235 72.1C107.235 85.2048 92.1585 95.8284 73.5611 95.8284C54.9638 95.8284 39.8877 85.2048 39.8877 72.1C39.8877 58.9951 54.9638 48.3716 73.5611 48.3716C92.1585 48.3716 107.235 58.9951 107.235 72.1Z" fill="#1F1E2E"/>
<path d="M70.3862 48.5228L47.083 57.5434L52.8679 51.1538V44.4896L60.1843 47.7174L70.3862 48.5228Z" fill="#1F1E2E"/>
<path d="M73.9854 48.8448L100.126 57.5454L94.3409 51.1558V44.4916L87.0244 47.7194L73.9854 48.8448Z" fill="#1F1E2E"/>
<path d="M73.5794 48.6002C90.5456 48.6002 104.299 44.0156 104.299 38.3602C104.299 32.7048 90.5456 28.1202 73.5794 28.1202C56.6132 28.1202 42.8594 32.7048 42.8594 38.3602C42.8594 44.0156 56.6132 48.6002 73.5794 48.6002Z" fill="#27233C"/>
<path d="M73.5783 47.3204C89.4841 47.3204 102.378 42.9507 102.378 37.5604C102.378 32.1701 89.4841 27.8004 73.5783 27.8004C57.6725 27.8004 44.7783 32.1701 44.7783 37.5604C44.7783 42.9507 57.6725 47.3204 73.5783 47.3204Z" fill="#383450"/>
<path d="M73.5792 44.4402C87.8944 44.4402 99.4992 41.6465 99.4992 38.2002C99.4992 34.7539 87.8944 31.9602 73.5792 31.9602C59.264 31.9602 47.6592 34.7539 47.6592 38.2002C47.6592 41.6465 59.264 44.4402 73.5792 44.4402Z" fill="#151420"/>
<path d="M73.0992 40.2802C78.843 40.2802 83.4992 36.9134 83.4992 32.7602C83.4992 28.607 78.843 25.2402 73.0992 25.2402C67.3555 25.2402 62.6992 28.607 62.6992 32.7602C62.6992 36.9134 67.3555 40.2802 73.0992 40.2802Z" fill="#5FD35F"/>
<path d="M86.5392 41.8802C89.8087 41.8802 92.4592 39.3014 92.4592 36.1202C92.4592 32.9391 89.8087 30.3602 86.5392 30.3602C83.2696 30.3602 80.6191 32.9391 80.6191 36.1202C80.6191 39.3014 83.2696 41.8802 86.5392 41.8802Z" fill="#5FD35F"/>
<path d="M64.9396 38.4347C64.9396 41.4802 62.2891 41.2356 59.0196 41.2356C55.7501 41.2356 53.0996 41.4802 53.0996 38.4347C53.0996 35.3892 55.7501 32.9203 59.0196 32.9203C62.2891 32.9203 64.9396 35.3892 64.9396 38.4347Z" fill="#5FD35F"/>
<path d="M96.6191 40.55C96.6191 42.0512 86.3836 44.4404 74.0271 44.4404C61.6706 44.4404 50.5391 42.1885 50.5391 40.6873C50.5391 39.1861 61.4726 37.4004 73.8291 37.4004C86.1856 37.4004 96.6191 39.0488 96.6191 40.55Z" fill="#5FD35F"/>
<path d="M55.9805 105.347L67.2768 101.08L78.3805 103.436L57.2641 113.88L58.2911 112.989L58.8045 112.033L59.1896 110.823L59.318 109.677L59.0613 108.212L58.3553 106.557L57.3283 105.665L55.9805 105.347Z" fill="#5F402C"/>
<path d="M38.6359 96.835L50.6668 95.8484L60.6704 101.196L37.4941 105.42L38.728 104.845L39.4866 104.066L40.1929 103.005L40.635 101.935L40.7961 100.452L40.5789 98.6595L39.8412 97.5153L38.6359 96.835Z" fill="#5F402C"/>
<path d="M36.504 105.349C38.0985 105.809 39.931 104.31 40.5971 102.001C41.2633 99.6916 40.5107 97.4468 38.9163 96.9869C37.3218 96.5269 35.4893 98.026 34.8232 100.335C34.157 102.644 34.9096 104.889 36.504 105.349Z" fill="#3E2318"/>
<path d="M99.1003 102.065L87.3879 99.1431L76.6504 102.8L98.8368 110.721L97.7124 109.954L97.0899 109.062L96.5646 107.901L96.3016 106.774L96.3829 105.284L96.8874 103.55L97.8007 102.541L99.1003 102.065Z" fill="#5F402C"/>
<path d="M99.8258 110.813C98.178 111.009 96.6123 109.232 96.3289 106.846C96.0455 104.459 97.1516 102.366 98.7995 102.17C100.447 101.975 102.013 103.751 102.296 106.137C102.58 108.524 101.474 110.617 99.8258 110.813Z" fill="#3E2318"/>
<path d="M115.165 94.1414L103.134 93.1548L93.1299 98.5019L116.306 102.726L115.072 102.151L114.314 101.372L113.607 100.312L113.165 99.2418L113.004 97.7582L113.221 95.9659L113.959 94.8217L115.165 94.1414Z" fill="#5F402C"/>
<path d="M117.297 102.656C115.702 103.116 113.87 101.617 113.204 99.3077C112.538 96.9985 113.29 94.7537 114.884 94.2937C116.479 93.8338 118.311 95.3329 118.978 97.6421C119.644 99.9513 118.891 102.196 117.297 102.656Z" fill="#3E2318"/>
<path d="M56.4599 113.88C58.1389 113.88 59.4999 111.946 59.4999 109.56C59.4999 107.174 58.1389 105.24 56.4599 105.24C54.781 105.24 53.4199 107.174 53.4199 109.56C53.4199 111.946 54.781 113.88 56.4599 113.88Z" fill="#3E2318"/>
<path d="M109.184 25.0601C111.863 25.0601 114.034 22.8887 114.034 20.21C114.034 17.5314 111.863 15.36 109.184 15.36C106.505 15.36 104.334 17.5314 104.334 20.21C104.334 22.8887 106.505 25.0601 109.184 25.0601Z" fill="#5FD35F"/>
<path d="M112.782 22.5865C111.989 23.6262 110.966 24.1789 110.497 23.8211C110.027 23.4632 111.31 23.1082 112.102 22.0685C112.895 21.0288 112.897 19.6981 113.366 20.056C113.836 20.4138 113.574 21.5468 112.782 22.5865Z" fill="#D3E8E8"/>
<path d="M105.5 18.2755C106.144 17.138 107.083 16.4517 107.597 16.7426C108.11 17.0335 106.888 17.5591 106.244 18.6966C105.6 19.8341 105.778 21.1528 105.264 20.8619C104.75 20.5709 104.856 19.413 105.5 18.2755Z" fill="#D3E8E8"/>
<path d="M68.2706 27.2014C70.5239 26.0494 72.6817 25.7634 73.0902 26.5625C73.4988 27.3616 71.1153 27.2061 68.862 28.3581C66.6088 29.5101 65.3391 31.5333 64.9305 30.7342C64.522 29.9351 66.0174 28.3534 68.2706 27.2014Z" fill="#D3E8E8"/>
<path d="M55.1074 35.2154C55.9872 34.2314 57.0607 33.7558 57.5051 34.1531C57.9495 34.5504 56.6305 34.8065 55.7507 35.7906C54.8709 36.7746 54.7634 38.114 54.319 37.7167C53.8746 37.3193 54.2276 36.1995 55.1074 35.2154Z" fill="#D3E8E8"/>
<path d="M90.485 32.9541C89.6461 31.935 88.5929 31.4159 88.1326 31.7948C87.6724 32.1737 88.9799 32.4834 89.8188 33.5025C90.6577 34.5216 90.7104 35.8643 91.1707 35.4854C91.6309 35.1065 91.3239 33.9732 90.485 32.9541Z" fill="#D3E8E8"/>
<path d="M108.756 17.3572C109.15 17.3572 109.469 17.0378 109.469 16.6439C109.469 16.25 109.15 15.9307 108.756 15.9307C108.362 15.9307 108.043 16.25 108.043 16.6439C108.043 17.0378 108.362 17.3572 108.756 17.3572Z" fill="#D3E8E8"/>
<path d="M64.225 33.5714C64.6189 33.5714 64.9382 33.2521 64.9382 32.8581C64.9382 32.4642 64.6189 32.1449 64.225 32.1449C63.831 32.1449 63.5117 32.4642 63.5117 32.8581C63.5117 33.2521 63.831 33.5714 64.225 33.5714Z" fill="#D3E8E8"/>
<path d="M45.5532 5.38774C47.041 5.38774 48.2471 4.18165 48.2471 2.69387C48.2471 1.20609 47.041 0 45.5532 0C44.0655 0 42.8594 1.20609 42.8594 2.69387C42.8594 4.18165 44.0655 5.38774 45.5532 5.38774Z" fill="#5FD35F"/>
<path d="M47.5516 4.01376C47.1114 4.59124 46.5433 4.89825 46.2825 4.69948C46.0217 4.50071 46.7339 4.30353 47.1741 3.72604C47.6142 3.14856 47.6155 2.40947 47.8763 2.60824C48.1371 2.807 47.9917 3.43628 47.5516 4.01376Z" fill="#D3E8E8"/>
<path d="M43.5073 1.61934C43.8651 0.987539 44.3865 0.606353 44.6718 0.767941C44.9571 0.929528 44.2781 1.22143 43.9203 1.85324C43.5625 2.48504 43.6614 3.21749 43.3761 3.05591C43.0908 2.89432 43.1495 2.25115 43.5073 1.61934Z" fill="#D3E8E8"/>
<path d="M45.3161 1.10921C45.5349 1.10921 45.7122 0.931843 45.7122 0.713051C45.7122 0.49426 45.5349 0.316895 45.3161 0.316895C45.0973 0.316895 44.9199 0.49426 44.9199 0.713051C44.9199 0.931843 45.0973 1.10921 45.3161 1.10921Z" fill="#D3E8E8"/>
<path d="M79.652 21.5833C80.326 21.5833 80.8724 21.0369 80.8724 20.3629C80.8724 19.689 80.326 19.1426 79.652 19.1426C78.978 19.1426 78.4316 19.689 78.4316 20.3629C78.4316 21.0369 78.978 21.5833 79.652 21.5833Z" fill="#5FD35F"/>
<path d="M80.5572 20.9611C80.3579 21.2227 80.1004 21.3618 79.9823 21.2718C79.8642 21.1817 80.1868 21.0924 80.3862 20.8308C80.5856 20.5692 80.5862 20.2343 80.7043 20.3244C80.8225 20.4144 80.7566 20.6995 80.5572 20.9611Z" fill="#D3E8E8"/>
<path d="M78.7254 19.8765C78.8874 19.5902 79.1236 19.4176 79.2529 19.4908C79.3821 19.564 79.0745 19.6962 78.9125 19.9824C78.7504 20.2686 78.7951 20.6004 78.6658 20.5272C78.5366 20.454 78.5633 20.1627 78.7254 19.8765Z" fill="#D3E8E8"/>
<path d="M79.5437 19.6449C79.6428 19.6449 79.7232 19.5646 79.7232 19.4655C79.7232 19.3664 79.6428 19.286 79.5437 19.286C79.4446 19.286 79.3643 19.3664 79.3643 19.4655C79.3643 19.5646 79.4446 19.6449 79.5437 19.6449Z" fill="#D3E8E8"/>
<path d="M71.5026 14.7273C72.6534 14.7273 73.5863 13.7944 73.5863 12.6436C73.5863 11.4928 72.6534 10.5599 71.5026 10.5599C70.3518 10.5599 69.4189 11.4928 69.4189 12.6436C69.4189 13.7944 70.3518 14.7273 71.5026 14.7273Z" fill="#5FD35F"/>
<path d="M73.0492 13.6646C72.7088 14.1113 72.2693 14.3488 72.0676 14.195C71.8659 14.0413 72.4168 13.8888 72.7572 13.4421C73.0977 12.9954 73.0987 12.4237 73.3004 12.5775C73.5021 12.7312 73.3897 13.218 73.0492 13.6646Z" fill="#D3E8E8"/>
<path d="M69.921 11.8125C70.1977 11.3238 70.6011 11.029 70.8218 11.1539C71.0425 11.2789 70.5173 11.5047 70.2406 11.9934C69.9638 12.4821 70.0403 13.0487 69.8196 12.9237C69.5989 12.7987 69.6442 12.3012 69.921 11.8125Z" fill="#D3E8E8"/>
<path d="M71.3181 11.4179C71.4874 11.4179 71.6246 11.2807 71.6246 11.1115C71.6246 10.9422 71.4874 10.8051 71.3181 10.8051C71.1489 10.8051 71.0117 10.9422 71.0117 11.1115C71.0117 11.2807 71.1489 11.4179 71.3181 11.4179Z" fill="#D3E8E8"/>
<path d="M58.7675 21.2567C60.4842 21.2567 61.8758 19.865 61.8758 18.1483C61.8758 16.4317 60.4842 15.04 58.7675 15.04C57.0508 15.04 55.6592 16.4317 55.6592 18.1483C55.6592 19.865 57.0508 21.2567 58.7675 21.2567Z" fill="#5FD35F"/>
<path d="M61.0738 19.6713C60.566 20.3376 59.9104 20.6918 59.6094 20.4625C59.3085 20.2331 60.1304 20.0056 60.6382 19.3393C61.1461 18.673 61.1476 17.8202 61.4485 18.0495C61.7494 18.2789 61.5817 19.005 61.0738 19.6713Z" fill="#D3E8E8"/>
<path d="M56.4069 16.9085C56.8197 16.1795 57.4213 15.7397 57.7505 15.9261C58.0798 16.1125 57.2963 16.4494 56.8835 17.1784C56.4706 17.9074 56.5847 18.7525 56.2555 18.5661C55.9263 18.3796 55.9941 17.6375 56.4069 16.9085Z" fill="#D3E8E8"/>
<path d="M58.4932 16.3198C58.7457 16.3198 58.9503 16.1152 58.9503 15.8627C58.9503 15.6103 58.7457 15.4056 58.4932 15.4056C58.2408 15.4056 58.0361 15.6103 58.0361 15.8627C58.0361 16.1152 58.2408 16.3198 58.4932 16.3198Z" fill="#D3E8E8"/>
<path d="M120.838 40.7582C122.726 40.7582 124.257 39.2274 124.257 37.3391C124.257 35.4507 122.726 33.9199 120.838 33.9199C118.95 33.9199 117.419 35.4507 117.419 37.3391C117.419 39.2274 118.95 40.7582 120.838 40.7582Z" fill="#5FD35F"/>
<path d="M123.374 39.0143C122.816 39.7473 122.094 40.137 121.763 39.8847C121.432 39.6324 122.336 39.3821 122.895 38.6492C123.454 37.9162 123.455 36.9781 123.786 37.2304C124.117 37.4827 123.933 38.2814 123.374 39.0143Z" fill="#D3E8E8"/>
<path d="M118.242 35.9753C118.696 35.1734 119.358 34.6896 119.72 34.8946C120.082 35.0997 119.22 35.4702 118.766 36.2721C118.312 37.0741 118.437 38.0037 118.075 37.7986C117.713 37.5935 117.788 36.7772 118.242 35.9753Z" fill="#D3E8E8"/>
<path d="M120.537 35.3279C120.815 35.3279 121.04 35.1028 121.04 34.8251C121.04 34.5474 120.815 34.3223 120.537 34.3223C120.259 34.3223 120.034 34.5474 120.034 34.8251C120.034 35.1028 120.259 35.3279 120.537 35.3279Z" fill="#D3E8E8"/>
<path d="M97.3075 19.2973C98.3947 19.2973 99.2761 18.4159 99.2761 17.3287C99.2761 16.2415 98.3947 15.3601 97.3075 15.3601C96.2202 15.3601 95.3389 16.2415 95.3389 17.3287C95.3389 18.4159 96.2202 19.2973 97.3075 19.2973Z" fill="#5FD35F"/>
<path d="M98.7671 18.2934C98.4455 18.7154 98.0303 18.9397 97.8397 18.7945C97.6491 18.6492 98.1696 18.5051 98.4913 18.0831C98.8129 17.6611 98.8138 17.121 99.0044 17.2663C99.195 17.4115 99.0888 17.8714 98.7671 18.2934Z" fill="#D3E8E8"/>
<path d="M95.812 16.5434C96.0735 16.0817 96.4545 15.8031 96.663 15.9212C96.8715 16.0393 96.3753 16.2526 96.1138 16.7143C95.8524 17.176 95.9247 17.7113 95.7161 17.5932C95.5076 17.4751 95.5506 17.0051 95.812 16.5434Z" fill="#D3E8E8"/>
<path d="M97.1333 16.1709C97.2931 16.1709 97.4228 16.0413 97.4228 15.8814C97.4228 15.7215 97.2931 15.5919 97.1333 15.5919C96.9734 15.5919 96.8438 15.7215 96.8438 15.8814C96.8438 16.0413 96.9734 16.1709 97.1333 16.1709Z" fill="#D3E8E8"/>
<path d="M36.1379 23.0795C36.9605 23.0795 37.6274 22.4127 37.6274 21.5901C37.6274 20.7674 36.9605 20.1006 36.1379 20.1006C35.3153 20.1006 34.6484 20.7674 34.6484 21.5901C34.6484 22.4127 35.3153 23.0795 36.1379 23.0795Z" fill="#5FD35F"/>
<path d="M37.2425 22.32C36.9991 22.6393 36.6849 22.809 36.5407 22.6991C36.3965 22.5892 36.7904 22.4802 37.0337 22.1609C37.2771 21.8416 37.2778 21.4329 37.422 21.5428C37.5662 21.6527 37.4858 22.0007 37.2425 22.32Z" fill="#D3E8E8"/>
<path d="M35.0065 20.9958C35.2043 20.6465 35.4926 20.4357 35.6504 20.5251C35.8081 20.6144 35.4327 20.7758 35.2349 21.1252C35.037 21.4745 35.0917 21.8795 34.934 21.7901C34.7762 21.7008 34.8087 21.3452 35.0065 20.9958Z" fill="#D3E8E8"/>
<path d="M36.0071 20.714C36.1281 20.714 36.2262 20.6159 36.2262 20.4949C36.2262 20.3739 36.1281 20.2759 36.0071 20.2759C35.8862 20.2759 35.7881 20.3739 35.7881 20.4949C35.7881 20.6159 35.8862 20.714 36.0071 20.714Z" fill="#D3E8E8"/>
<path d="M46.2897 25.3133C46.9637 25.3133 47.5101 24.7669 47.5101 24.0929C47.5101 23.4189 46.9637 22.8726 46.2897 22.8726C45.6157 22.8726 45.0693 23.4189 45.0693 24.0929C45.0693 24.7669 45.6157 25.3133 46.2897 25.3133Z" fill="#5FD35F"/>
<path d="M47.195 24.6909C46.9957 24.9525 46.7382 25.0916 46.6201 25.0015C46.5019 24.9115 46.8246 24.8221 47.024 24.5605C47.2234 24.2989 47.224 23.9641 47.3421 24.0541C47.4603 24.1442 47.3944 24.4293 47.195 24.6909Z" fill="#D3E8E8"/>
<path d="M45.363 23.6061C45.5251 23.3198 45.7613 23.1472 45.8906 23.2204C46.0199 23.2936 45.7122 23.4258 45.5502 23.712C45.3881 23.9982 45.4329 24.3301 45.3036 24.2569C45.1743 24.1837 45.201 23.8923 45.363 23.6061Z" fill="#D3E8E8"/>
<path d="M46.1824 23.3753C46.2815 23.3753 46.3619 23.2949 46.3619 23.1958C46.3619 23.0967 46.2815 23.0164 46.1824 23.0164C46.0833 23.0164 46.0029 23.0967 46.0029 23.1958C46.0029 23.2949 46.0833 23.3753 46.1824 23.3753Z" fill="#D3E8E8"/>
<path fill-rule="evenodd" clip-rule="evenodd" d="M95.2577 58.6089C90.1062 55.0581 87.6689 51.9525 87.6689 51.9525C78.1555 57.5879 68.0523 77.5979 68.0523 77.5979C63.3175 70.897 58.5569 69.028 58.5569 69.028C56.4167 71.9031 52.7275 75.7348 52.7275 75.7348C61.332 78.0644 68.5542 86.6135 68.5542 86.6135C84.167 61.9714 95.2577 58.6089 95.2577 58.6089Z" fill="#5FD35F"/>
<path opacity="0.277778" fill-rule="evenodd" clip-rule="evenodd" d="M96.3026 58.639C91.1511 55.0881 88.7138 51.9825 88.7138 51.9825C79.2004 57.618 69.0972 77.6279 69.0972 77.6279C64.3625 70.927 59.6018 69.058 59.6018 69.058C57.4616 71.9331 53.7725 75.7648 53.7725 75.7648C62.3769 78.0945 69.5992 86.6435 69.5992 86.6435C85.2119 62.0014 96.3026 58.639 96.3026 58.639Z" fill="#5FD35F"/>
</svg>
