<svg width="95" height="128" viewBox="0 0 95 128" fill="none" xmlns="http://www.w3.org/2000/svg">
<g filter="url(#filter0_d_1993_51)">
<path d="M90.3488 2.89404C89.2791 13.0858 81.6838 33.6942 59.8608 34.5935" stroke="#0D3F41" stroke-width="0.806955"/>
<path d="M90.9547 0L9.73365 80.8447L4.04124 85.7309C3.70802 88.3369 5.47591 88.791 6.40151 88.6922L90.9547 2.66521V0Z" fill="#633A14"/>
<path fill-rule="evenodd" clip-rule="evenodd" d="M39.2232 51.4189V53.7786C39.414 54.7149 40.3222 57.0821 42.4284 59.0597C42.9245 58.6102 44.0768 56.9248 44.7179 53.7786V51.4189H39.2232Z" fill="#F5EA83"/>
<path d="M65.2452 32.2218C65.2452 43.1586 54.8797 52.0246 42.0932 52.0246C29.3067 52.0246 18.9412 43.1586 18.9412 32.2218C18.9412 21.285 29.3067 12.419 42.0932 12.419C54.8797 12.419 65.2452 21.285 65.2452 32.2218Z" fill="#F5EA83"/>
<path d="M25.674 6.17276C22.6796 8.74325 21.2399 19.1842 20.8943 24.0834C30.2018 23.7354 38.3825 18.3185 41.3094 15.6535C37.3453 11.4222 28.6685 3.60227 25.674 6.17276Z" fill="#F5EA83"/>
<path d="M58.7231 6.06699C61.4001 8.83027 62.2511 19.3313 62.342 24.2364C53.6591 23.262 46.2696 17.3127 43.6602 14.4599C47.5657 10.5109 56.0461 3.30371 58.7231 6.06699Z" fill="#F5EA83"/>
<path d="M26.4719 8.6427C24.849 8.89658 23.3676 15.0527 24.231 17.895C27.0056 18.0355 33.0626 14.9028 34.197 12.7926C31.6522 9.99135 28.4435 8.33427 26.4719 8.6427Z" fill="#B7D6D6"/>
<path d="M56.9078 8.42224C58.462 8.671 59.9645 15.3994 59.1797 18.5344C56.5306 18.7396 50.6991 15.4132 49.5854 13.1184C51.9773 9.9975 55.0197 8.12002 56.9078 8.42224Z" fill="#B7D6D6"/>
<path d="M12.1484 61.7181H15.2394V64.6583H12.1484C11.1963 66.0689 10.0877 67.0331 8.25592 67.0331C6.42419 67.0331 4.13452 65.7407 4.13452 62.6228C4.13452 59.5048 6.88212 58.5918 8.82834 58.7779C10.7746 58.964 11.6324 60.7192 12.1484 61.7181Z" fill="#F5EA83"/>
<path d="M74.6472 61.7181H71.706V64.6583H74.6472C75.553 66.0689 76.608 67.0331 78.3509 67.0331C80.0938 67.0331 82.2725 65.7407 82.2725 62.6228C82.2725 59.5048 79.6581 58.5918 77.8062 58.7779C75.9544 58.964 75.1381 60.7192 74.6472 61.7181Z" fill="#F5EA83"/>
<path d="M37.5837 99.5402V90.2524H40.8143V99.5402H37.5837Z" fill="#F5EA83"/>
<path d="M45.4583 99.5402V90.2524H48.4869V99.5402H45.4583Z" fill="#F5EA83"/>
<path d="M33.503 99.54H42.9008C42.6716 104.047 42.2819 113.33 42.557 114.412C42.8012 115.372 42.872 116.731 42.8925 117.679C42.9008 118.066 42.9008 118.385 42.9008 118.581V119.933H17.8016C17.6074 119.389 17.4073 118.571 17.3454 117.679C17.2489 116.291 17.4873 114.724 18.6039 113.736C20.896 111.708 27.5433 111.032 30.5231 110.581L33.503 110.356V99.54Z" fill="#0D3F41"/>
<path fill-rule="evenodd" clip-rule="evenodd" d="M42.9008 118.581C42.9008 118.385 42.9008 118.066 42.8925 117.679H17.3454C17.4073 118.571 17.6074 119.389 17.8016 119.933H42.9008V118.581Z" fill="#B7D6D6"/>
<ellipse cx="3.15002" cy="4.9752" rx="3.15002" ry="4.9752" transform="matrix(0.867064 -0.498197 0.510413 0.859929 20.4836 37.3296)" fill="#FFB23E"/>
<ellipse cx="3.14689" cy="4.98022" rx="3.14689" ry="4.98022" transform="matrix(0.831285 0.555846 -0.568337 0.822796 58.8589 34.2212)" fill="#FFB23E"/>
<path d="M41.26 18.1104C27.2751 18.3816 25.6832 30.199 26.6353 36.0738C36.4232 37.6555 56.9129 37.5426 57.4842 36.0738C59.2873 31.4377 58.741 17.7715 41.26 18.1104Z" fill="#0D3F41"/>
<ellipse cx="32.8391" cy="35.6029" rx="6.15817" ry="5.85531" fill="#FFFACC"/>
<ellipse cx="51.3809" cy="35.6029" rx="6.12452" ry="5.85531" fill="#FFFACC"/>
<ellipse cx="32.9401" cy="35.9057" rx="3.97084" ry="3.93719" fill="#0D3F41"/>
<ellipse cx="51.5489" cy="35.9057" rx="4.00449" ry="3.93719" fill="#0D3F41"/>
<path d="M42.932 39.0354H41.1305C41.0562 39.0354 41.0142 39.1206 41.0593 39.1796L42.0075 40.4181C42.0445 40.4664 42.1179 40.4646 42.1525 40.4144L43.0058 39.1759C43.0468 39.1164 43.0042 39.0354 42.932 39.0354Z" fill="#FFB23E"/>
<path d="M31.2573 43.0339C33.0487 44.0783 37.6378 44.5888 42.1201 41.5254C44.9788 43.7301 49.7355 45.169 53.669 43.0339" stroke="#FFB23E" stroke-width="1.1656"/>
<rect x="36.9109" y="101.828" width="4.64386" height="1.74986" fill="#B7D6D6"/>
<rect x="36.9109" y="104.453" width="4.64386" height="1.81716" fill="#B7D6D6"/>
<rect x="36.9109" y="107.145" width="4.64386" height="1.74986" fill="#B7D6D6"/>
<ellipse cx="16.9891" cy="80.258" rx="3.43242" ry="3.53337" fill="#FFFACC"/>
<path d="M52.2669 99.54H42.968C43.1948 104.062 43.5804 113.376 43.3082 114.461C43.0665 115.425 42.9965 116.787 42.9763 117.739C42.968 118.127 42.968 118.447 42.968 118.643V120H67.803C67.9952 119.455 68.1932 118.634 68.2544 117.739C68.3499 116.346 68.114 114.774 67.0092 113.783C64.7411 111.748 58.1638 111.07 55.2154 110.618L52.2669 110.392V99.54Z" fill="#0D3F41"/>
<path fill-rule="evenodd" clip-rule="evenodd" d="M42.968 118.643C42.968 118.447 42.968 118.127 42.9763 117.739H68.2544C68.1932 118.634 67.9952 119.455 67.803 120H42.968V118.643Z" fill="#B7D6D6"/>
<rect width="4.64386" height="1.74986" transform="matrix(-1 0 0 1 48.6887 101.828)" fill="#B7D6D6"/>
<rect width="4.64386" height="1.81716" transform="matrix(-1 0 0 1 48.6887 104.453)" fill="#B7D6D6"/>
<rect width="4.64386" height="1.74986" transform="matrix(-1 0 0 1 48.6887 107.145)" fill="#B7D6D6"/>
<path fill-rule="evenodd" clip-rule="evenodd" d="M47.3167 54.5494C46.9922 54.5233 46.682 54.4984 46.3429 54.4261C45.893 54.3301 45.3921 54.1508 44.7392 53.7747C44.0977 56.9156 42.9446 58.5983 42.4482 59.047C40.3405 57.0727 39.4317 54.7095 39.2408 53.7747C39.0781 53.9021 38.577 54.236 37.7516 54.6653C37.6086 54.7397 37.4559 54.8169 37.2934 54.8964C36.9557 55.0618 36.625 55.1662 36.3028 55.2679C35.3136 55.5802 34.4055 55.8668 33.6278 57.813C33.1718 58.9542 31.4833 58.7128 29.0183 58.3604C25.91 57.9161 21.5671 57.2953 16.9035 59.047C16.3274 59.2634 15.8308 59.5662 15.409 59.9444C9.70757 65.0546 17.6395 83.9144 26.984 88.9982C37.2934 94.607 46.1801 95.7485 55.1632 90.9052C65.3582 85.4085 71.773 76.3222 72.8039 65.7776C73.462 59.047 71.1768 58.2352 68.1074 57.5887C67.1562 57.3883 65.2905 57.3764 64.0981 57.5887C59.59 58.3913 52.2995 58.5983 51.3831 57.813C50.982 57.4693 50.7125 56.9321 50.4499 56.4085C50.1125 55.7359 49.7863 55.0856 49.2066 54.8964C48.4133 54.6375 47.8459 54.5919 47.3167 54.5494Z" fill="#B7D6D6"/>
<path d="M63.7705 95.0185C63.0363 95.1089 62.8528 94.6796 62.8528 94.4537C60.9526 94.6527 59.5466 94.1722 58.5388 93.437C57.2588 92.5032 56.621 91.1587 56.4285 90.2738L63.7705 84.0605C65.1545 84.4694 65.8706 85.7413 66.221 86.8848C66.4516 87.637 66.5238 88.3336 66.5238 88.6923C66.5238 89.596 65.1472 92.5332 65.8355 92.9851C66.5238 93.437 66.0649 95.0185 65.1472 94.4537C64.612 94.1243 64.3694 93.8149 64.2772 93.613C64.3989 94.1336 64.4249 94.938 63.7705 95.0185Z" fill="#FFB23E"/>
<path fill-rule="evenodd" clip-rule="evenodd" d="M56.4285 90.312C56.621 91.1897 57.2588 92.5235 58.5388 93.4497C59.0101 91.3206 61.2064 87.0398 66.221 86.9502C66.013 86.2769 65.6761 85.5587 65.1472 85.0013C64.7851 84.6197 64.333 84.3135 63.7705 84.1487L56.4285 90.312ZM64.2772 93.6244C64.2429 93.5499 64.2294 93.4902 64.2294 93.4497C64.2461 93.5025 64.2623 93.5613 64.2772 93.6244Z" fill="#F5EA83"/>
<path d="M63.7705 84.1487C64.333 84.3135 64.7851 84.6197 65.1472 85.0013C65.8961 84.5303 67.0822 83.3867 65.8355 82.5798L63.7705 84.1487Z" fill="#F5EA83"/>
<path d="M28.2277 15.9448C38.4289 8.82589 39.8475 2.96964 42.1459 2.96964C44.4443 2.70484 45.977 8.6946 56.225 16.0504C65.8542 22.9621 66.6097 22.2339 71.8006 22.962C75.5743 23.4914 78.1543 25.6299 74.0813 26.092C68.2595 26.7527 53.6965 27.9947 42.0182 27.6776C30.5772 27.9953 16.4377 26.6693 10.7343 26.0072C7.15898 25.5923 7.30012 23.7533 10.7343 22.962C14.1684 22.1707 19.0852 22.325 28.2277 15.9448Z" fill="#DE8E45"/>
<path d="M39.6703 15.9506C46.8312 16.0583 52.3904 15.2551 54.2749 14.8401L57.0343 16.5226C56.6417 16.9152 55.2709 17.9091 52.9288 18.7436C50.0012 19.7868 30.719 15.816 39.6703 15.9506Z" fill="#F9C494"/>
<path d="M38.244 20.3242C48.6577 20.3829 57.457 19.3398 60.1975 19.1138L62.3511 20.3242C62.3511 20.3242 60.931 21.3908 57.525 21.8452C53.2675 22.4133 25.2268 20.2509 38.244 20.3242Z" fill="#F9C494"/>
<ellipse cx="63.5624" cy="90.69" rx="1.54795" ry="1.58161" fill="#FFFACC"/>
<ellipse cx="63.5962" cy="90.7906" rx="0.84128" ry="0.740326" fill="#DE8E45"/>
<path d="M37.6511 55.4189L23.5176 48.6594C27.1946 49.2002 39.6811 48.8847 40.4088 48.6594L42.3622 59.024L37.6511 55.4189Z" fill="#B7D6D6"/>
<path d="M46.8455 55.4417L62.8894 47.7173C59.4428 48.2546 44.9426 48.9487 44.2605 48.7248L42.4295 59.0241L46.8455 55.4417Z" fill="#B7D6D6"/>
<rect x="38.3242" y="55.7935" width="2.55749" height="2.55749" fill="#633A14"/>
<rect x="44.0447" y="55.7935" width="2.55749" height="2.55749" fill="#633A14"/>
<rect x="44.5159" y="56.5339" width="1.34605" height="1.27874" fill="#FFB23E"/>
<rect x="38.7278" y="56.5339" width="1.41335" height="1.27874" fill="#FFB23E"/>
<path d="M44.1794 57.464L40.4778 56.8032V57.2437L44.0672 58.0147L44.1794 57.464Z" fill="#633A14"/>
<path d="M29.7095 48.9786C28.8808 49.0675 25.2973 48.7935 23.6091 48.6454C21.192 48.3123 26.4866 46.7575 26.832 47.0907C27.1082 47.3572 28.8654 48.4604 29.7095 48.9786Z" fill="#829C9C"/>
<path d="M62.7614 47.579C61.9478 47.8393 57.7517 48.0489 55.7554 48.1212C56.117 48.0345 57.7894 46.7839 58.5804 46.1694C60.313 46.5309 63.575 47.3188 62.7614 47.579Z" fill="#829C9C"/>
<path d="M48.5057 54.7168C50.6425 61.0107 52.6265 73.8681 43.4692 74.9471M43.4692 74.9471C34.3118 76.026 25.2308 64.0827 21.835 57.9761M43.4692 74.9471C44.1942 72.3996 45.2091 67.5743 43.4692 68.6532C41.7782 69.7018 42.6893 73.1001 43.4074 74.8036M43.4692 74.9471C39.4629 76.8203 32.4804 81.713 36.6012 86.2985C40.722 90.8841 42.8969 80.6415 43.4692 74.9471ZM43.4692 74.9471C44.9954 76.8577 47.9563 81.2185 47.59 83.3764M43.4692 74.9471C43.4488 74.9007 43.4282 74.8529 43.4074 74.8036M43.4074 74.8036C42.2452 75.1511 40.3328 78.4986 41.9811 89.1083" stroke="#0D3F41" stroke-width="1.07594"/>
<path d="M17.618 80.7706C17.2495 79.6016 16.543 80.0587 16.2359 80.4334L14.1626 85.8289L17.618 87.6274C18.7238 87.2677 18.3091 86.6532 17.9636 86.3909L16.0055 85.6041L17.618 80.7706Z" fill="#F5EA83"/>
</g>
<defs>
<filter id="filter0_d_1993_51" x="0" y="0" width="94.9546" height="128" filterUnits="userSpaceOnUse" color-interpolation-filters="sRGB">
<feFlood flood-opacity="0" result="BackgroundImageFix"/>
<feColorMatrix in="SourceAlpha" type="matrix" values="0 0 0 0 0 0 0 0 0 0 0 0 0 0 0 0 0 0 127 0" result="hardAlpha"/>
<feOffset dy="4"/>
<feGaussianBlur stdDeviation="2"/>
<feComposite in2="hardAlpha" operator="out"/>
<feColorMatrix type="matrix" values="0 0 0 0 0 0 0 0 0 0 0 0 0 0 0 0 0 0 0.25 0"/>
<feBlend mode="normal" in2="BackgroundImageFix" result="effect1_dropShadow_1993_51"/>
<feBlend mode="normal" in="SourceGraphic" in2="effect1_dropShadow_1993_51" result="shape"/>
</filter>
</defs>
</svg>
