<svg width="239" height="81" viewBox="0 0 239 81" fill="none" xmlns="http://www.w3.org/2000/svg">
<g filter="url(#filter0_d_1716_1692)">
<path d="M73.0278 1.68341H79.8724V12.0965H90.4108V1.57715H97.2553V27.1848H90.4108V17.303H79.8724V27.1848H73.0278V1.68341Z" fill="white"/>
<path d="M121.701 27.2928L119.854 22.7237H108.555L106.708 27.2928H99.646L110.945 1.68506H118.007L128.98 27.2928H121.701ZM110.619 17.7297H117.898L114.313 8.5917L110.619 17.7297Z" fill="white"/>
<path d="M146.579 7.84739C145.384 7.20986 144.298 6.89109 143.103 6.89109C141.799 6.89109 140.604 7.20986 139.518 7.84739C138.431 8.48493 137.562 9.33498 136.91 10.5038C136.258 11.6726 135.932 12.9477 135.932 14.329C135.932 15.7103 136.258 16.9854 136.91 18.1542C137.562 19.323 138.431 20.1731 139.518 20.8106C140.604 21.4482 141.799 21.7669 143.103 21.7669C144.189 21.7669 145.276 21.5544 146.471 20.9169C147.666 20.3856 148.644 19.6418 149.621 18.6855L153.641 22.9357C152.229 24.4233 150.491 25.5921 148.535 26.4422C146.579 27.2922 144.624 27.7173 142.668 27.7173C140.061 27.7173 137.779 27.0797 135.606 25.9109C133.542 24.7421 131.913 23.1483 130.718 21.1294C129.522 19.1105 128.871 16.8792 128.871 14.329C128.871 11.8851 129.522 9.54749 130.718 7.63488C131.913 5.61602 133.651 4.02218 135.715 2.95962C137.888 1.7908 140.278 1.25952 142.886 1.25952C144.841 1.25952 146.797 1.68455 148.644 2.42834C150.599 3.27839 152.12 4.34095 153.424 5.72227L149.404 10.3975C148.752 9.33498 147.666 8.48493 146.579 7.84739Z" fill="white"/>
<path d="M181.671 27.2928H173.523L166.679 17.3047L163.419 20.9174V27.2928H156.575V1.68506H163.419V12.8419L173.306 1.68506H181.237L171.567 12.2044L181.671 27.2928Z" fill="white"/>
<path d="M72.9194 46.8447H79.764V72.4524H72.9194V46.8447Z" fill="white"/>
<path d="M84.8701 46.8447H91.7146V66.8209H102.796V72.5587H84.8701V46.8447Z" fill="white"/>
<path d="M108.011 46.8447H114.855V66.8209H125.937V72.5587H108.011V46.8447Z" fill="white"/>
<path d="M129.849 46.8447H136.693V72.4524H129.849V46.8447Z" fill="white"/>
<path d="M160.377 46.8447H166.678V72.4524H160.703L148.861 57.1516V72.4524H142.451V46.8447H148.426L160.377 62.2518V46.8447Z" fill="white"/>
<path d="M192.318 48.2247C194.491 49.3935 196.121 50.9873 197.424 52.8999C198.619 54.9188 199.271 57.1502 199.271 59.5941C199.271 62.1442 198.619 64.3756 197.424 66.3944C196.229 68.4133 194.491 70.0071 192.318 71.176C190.145 72.3448 187.755 72.9823 185.039 72.9823C182.323 72.9823 179.933 72.451 177.76 71.2822C175.587 70.1134 173.957 68.5196 172.654 66.5007C171.458 64.4818 170.807 62.1442 170.807 59.7003C170.807 57.2564 171.458 54.9188 172.654 53.0062C173.849 50.9873 175.587 49.3935 177.76 48.3309C179.933 47.2684 182.323 46.6308 185.039 46.6308C187.755 46.4183 190.145 47.0558 192.318 48.2247ZM181.562 53.1124C180.476 53.75 179.607 54.7063 178.955 55.8751C178.303 57.0439 177.977 58.319 177.977 59.7003C177.977 61.0816 178.303 62.3567 178.955 63.5255C179.607 64.6943 180.476 65.5444 181.562 66.2882C182.649 66.9257 183.844 67.3507 185.148 67.3507C186.451 67.3507 187.646 67.032 188.733 66.2882C189.819 65.6506 190.688 64.6943 191.34 63.5255C191.992 62.3567 192.318 61.0816 192.318 59.7003C192.318 58.319 191.992 57.0439 191.34 55.8751C190.688 54.7063 189.819 53.8562 188.733 53.1124C187.646 52.4749 186.451 52.1561 185.148 52.1561C183.844 52.1561 182.649 52.4749 181.562 53.1124Z" fill="white"/>
<path d="M202.313 46.8447H209.158V72.4524H202.313V46.8447Z" fill="white"/>
<path d="M227.519 52.5842C225.889 52.053 224.586 51.8404 223.499 51.8404C222.63 51.8404 221.978 51.9467 221.544 52.2655C221.109 52.5842 220.783 53.0093 220.783 53.6468C220.783 54.1781 221.001 54.7094 221.435 55.0281C221.87 55.4531 222.413 55.6657 222.956 55.9844C223.608 56.1969 224.477 56.5157 225.672 56.8345C227.519 57.3658 229.04 57.897 230.127 58.3221C231.322 58.8533 232.299 59.5971 233.169 60.6597C234.038 61.7222 234.472 63.1036 234.472 64.8037C234.472 66.5038 234.038 67.9914 233.06 69.1602C232.191 70.329 230.887 71.2853 229.257 71.9228C227.628 72.5604 225.889 72.8791 223.934 72.8791C221.761 72.8791 219.588 72.4541 217.415 71.8166C215.242 71.0728 213.396 70.0102 211.875 68.7352L214.482 63.5286C215.786 64.6974 217.415 65.6537 219.154 66.3975C221.001 67.1413 222.522 67.4601 223.934 67.4601C224.912 67.4601 225.781 67.2476 226.324 66.9288C226.867 66.61 227.193 66.0787 227.193 65.335C227.193 64.6974 226.976 64.2724 226.541 63.8474C226.107 63.4223 225.564 63.1036 224.912 62.8911C224.26 62.6786 223.282 62.3598 222.087 62.041C220.24 61.5097 218.828 61.0847 217.633 60.5534C216.438 60.0222 215.46 59.2784 214.591 58.3221C213.721 57.2595 213.287 55.9844 213.287 54.2843C213.287 52.6905 213.721 51.3092 214.591 50.1403C215.46 48.9715 216.655 48.0152 218.284 47.3777C219.914 46.7401 221.652 46.4214 223.825 46.4214C225.672 46.4214 227.628 46.6339 229.475 47.1652C231.322 47.6965 232.951 48.4402 234.364 49.2903L231.756 54.6031C230.561 53.753 229.04 53.1155 227.519 52.5842Z" fill="white"/>
<path d="M54.0154 0.198242V16.1366H39.8918V29.3124H18.5977V16.2429H4.25684L13.7088 0.304501H54.0154V0.198242Z" fill="white"/>
<path d="M54.0154 56.6167L44.8894 72.5551H4.25684V56.6167H18.5977V43.3347H40.0005V56.5105H54.0154V56.6167Z" fill="white"/>
</g>
<defs>
<filter id="filter0_d_1716_1692" x="0.256836" y="0.198242" width="238.215" height="80.7842" filterUnits="userSpaceOnUse" color-interpolation-filters="sRGB">
<feFlood flood-opacity="0" result="BackgroundImageFix"/>
<feColorMatrix in="SourceAlpha" type="matrix" values="0 0 0 0 0 0 0 0 0 0 0 0 0 0 0 0 0 0 127 0" result="hardAlpha"/>
<feOffset dy="4"/>
<feGaussianBlur stdDeviation="2"/>
<feComposite in2="hardAlpha" operator="out"/>
<feColorMatrix type="matrix" values="0 0 0 0 0 0 0 0 0 0 0 0 0 0 0 0 0 0 0.25 0"/>
<feBlend mode="normal" in2="BackgroundImageFix" result="effect1_dropShadow_1716_1692"/>
<feBlend mode="normal" in="SourceGraphic" in2="effect1_dropShadow_1716_1692" result="shape"/>
</filter>
</defs>
</svg>
