<svg width="68" height="61" viewBox="0 0 68 61" fill="none" xmlns="http://www.w3.org/2000/svg">
<path d="M53.5391 4.93928H12.7423C9.89769 4.93928 7.59164 7.24534 7.59164 10.09V50.8868C7.59164 53.7314 9.89768 56.0375 12.7423 56.0375H53.5391C56.3838 56.0375 58.6898 53.7314 58.6898 50.8868V10.09C58.6898 7.24533 56.3838 4.93928 53.5391 4.93928Z" fill="#E0C69F"/>
<path d="M32.246 43.3398V24.1398L34.346 26.2398H28.046V22.3398H37.106V43.3398H32.246Z" fill="#662B13"/>
<g clip-path="url(#clip0_5568_16956)">
<path d="M3.28814 13.3425L12.325 13.3425V10.3037L3.28814 10.3037V13.3425Z" fill="#D5BF9B"/>
<path d="M4.19531 14.9556L11.3675 14.9556V13.3425L4.19531 13.3425V14.9556Z" fill="#FBF0E1"/>
<path d="M4.19531 49.9296H11.3675L11.3675 13.3444H4.19531L4.19531 49.9296Z" fill="#FFFAEB"/>
<path d="M4.19531 14.149L11.3675 14.149V13.3424L4.19531 13.3424V14.149Z" fill="#D5BF9B"/>
<path d="M4.19531 17.1538H11.3675V16.3472H4.19531V17.1538Z" fill="#D5BF9B"/>
<path d="M3.28814 10.8754L12.3249 10.8754V10.3055L3.28814 10.3055V10.8754Z" fill="#FBF0E1"/>
<path d="M3.28814 13.6303L12.3249 13.6303V13.0604L3.28814 13.0604V13.6303Z" fill="#FBF0E1"/>
<path d="M11.6746 10.3055H3.68032C3.68032 10.3055 1.59522 11.0837 1.16257 9.15436C0.729923 7.22315 2.25257 6.48095 3.31885 6.48095C4.38512 6.48095 12.1086 6.10986 13.133 6.63053C14.1588 7.14931 14.5636 8.37809 14.1867 9.15436C13.8085 9.93064 13.7569 10.6406 11.6746 10.3055Z" fill="#D5BF9B"/>
<path d="M7.67604 5.79369L3.11786 5.96598L2.82757 5.97924C2.71452 5.98681 2.60287 6.00006 2.49261 6.02846C2.2707 6.08526 2.05577 6.18182 1.8548 6.32193C1.45425 6.60404 1.11371 7.06602 0.93228 7.64539C0.748054 8.21718 0.745263 8.90825 0.951819 9.48004C1.15419 10.048 1.52543 10.457 1.93296 10.6615C2.13812 10.7656 2.35305 10.8205 2.56798 10.8281C2.79128 10.8281 2.93643 10.8262 3.1681 10.8035C3.60076 10.7448 4.01666 10.4513 4.28323 9.9761C4.54421 9.50844 4.65726 8.83062 4.43396 8.27019C4.21624 7.72491 3.76125 7.45416 3.34814 7.48066L2.77453 7.50338C2.56239 7.51664 2.35165 7.62835 2.19255 7.82147C2.03205 8.0108 1.92738 8.29481 1.92877 8.58827C1.92598 8.89689 2.06415 9.15439 2.22325 9.31722C2.38236 9.48951 2.58891 9.57092 2.78012 9.58986C2.97271 9.61258 3.17508 9.605 3.35931 9.48951C3.56028 9.3797 3.62448 9.04268 3.56307 8.79654C3.48213 8.52579 3.24626 8.48035 3.06762 8.4955C3.24766 8.49171 3.47515 8.56366 3.53376 8.8098C3.57703 9.04457 3.51004 9.33615 3.33279 9.41188C3.16531 9.50276 2.97271 9.49708 2.79128 9.463C2.60706 9.42892 2.43539 9.34562 2.30141 9.18468C2.16743 9.03132 2.07252 8.81169 2.08508 8.59585C2.09346 8.36865 2.18278 8.16038 2.31397 8.02027C2.44376 7.87827 2.61264 7.80443 2.78012 7.80632L3.34675 7.82715C3.68868 7.83093 4.01805 8.08275 4.15064 8.46899C4.28462 8.84198 4.18972 9.33615 3.98456 9.65802C3.77521 9.98935 3.45421 10.1901 3.13042 10.2071C2.98248 10.2109 2.74802 10.2014 2.5917 10.1863C2.42702 10.1673 2.26652 10.1124 2.11997 10.0253C1.8241 9.85114 1.57986 9.53495 1.46821 9.16007C1.35376 8.79276 1.3747 8.35918 1.50868 7.99755C1.64127 7.63592 1.87853 7.34245 2.16045 7.17015C2.30141 7.08685 2.45214 7.03005 2.60566 7.00354C2.68242 6.99029 2.76058 6.9865 2.83734 6.9865L3.11647 6.99597L7.67465 7.16826V5.79558L7.67604 5.79369Z" fill="white"/>
<path d="M7.67325 7.16628L12.2314 6.99398L12.5106 6.98451C12.5887 6.98451 12.6655 6.98641 12.7422 7.00155C12.8958 7.02806 13.0465 7.08297 13.1874 7.16817C13.468 7.33857 13.7066 7.63393 13.8392 7.99556C13.9732 8.35909 13.9927 8.79077 13.8797 9.15808C13.7666 9.53296 13.5238 9.84915 13.2279 10.0233C13.08 10.1104 12.9195 10.1653 12.7562 10.1843C12.5999 10.1994 12.3654 10.2089 12.2175 10.2051C11.8923 10.1881 11.5727 9.98737 11.3633 9.65603C11.1582 9.33227 11.0633 8.84 11.1973 8.46701C11.3298 8.08076 11.6592 7.82706 12.0012 7.82516L12.5678 7.80434C12.7339 7.80244 12.9027 7.87628 13.0339 8.01828C13.1651 8.15839 13.2544 8.36666 13.2628 8.59386C13.2754 8.8097 13.1805 9.03123 13.0465 9.18269C12.9125 9.34363 12.7422 9.42694 12.5566 9.46102C12.3752 9.49699 12.1826 9.50078 12.0151 9.4099C11.8379 9.33416 11.7709 9.04448 11.8141 8.80781C11.8714 8.56168 12.0988 8.48973 12.2803 8.49352C12.1016 8.47837 11.8644 8.52192 11.7848 8.79456C11.7234 9.04259 11.789 9.37771 11.9886 9.48752C12.1728 9.60302 12.3752 9.6087 12.5678 9.58787C12.759 9.56705 12.9655 9.48752 13.1246 9.31523C13.2837 9.1524 13.4219 8.89301 13.4191 8.58629C13.4191 8.29471 13.3145 8.01071 13.1553 7.81948C12.9962 7.62636 12.7869 7.51655 12.5734 7.5014L11.9998 7.47868C11.5866 7.45217 11.1331 7.72292 10.9139 8.26821C10.6906 8.82864 10.8037 9.50646 11.0647 9.97412C11.3312 10.4493 11.7485 10.7428 12.1798 10.8015C12.4115 10.8223 12.5566 10.8261 12.7799 10.8261C12.9949 10.8167 13.2098 10.7636 13.4149 10.6595C13.8239 10.455 14.1951 10.0461 14.3961 9.47806C14.6012 8.90816 14.5984 8.21519 14.4156 7.6434C14.2342 7.06403 13.8936 6.60206 13.4945 6.31995C13.2935 6.17984 13.0772 6.08139 12.8567 6.02648C12.7464 5.99808 12.6334 5.98293 12.5217 5.97725L12.2314 5.964L7.67325 5.7917V7.16438V7.16628Z" fill="white"/>
<path d="M2.61963 4.28273L12.7353 4.28273V-3.14713e-05L2.61963 -3.14713e-05V4.28273Z" fill="#FBF0E1"/>
<path d="M2.61963 3.3815L12.7353 3.3815V-2.55108e-05L2.61963 -2.55108e-05V3.3815Z" fill="#D5BF9B"/>
<path d="M2.61963 6.08527L12.7353 6.08527V4.67661L2.61963 4.67661V6.08527Z" fill="#FBF0E1"/>
<path d="M2.61963 5.18404L12.7353 5.18404V4.67662L2.61963 4.67662V5.18404Z" fill="#D5BF9B"/>
<path d="M2.61125 2.63933H12.7339L13.8239 0H1.52265L2.61125 2.63933Z" fill="white"/>
<path d="M2.61963 4.67651L12.7353 4.67651V3.94378L2.61963 3.94378V4.67651Z" fill="white"/>
<path d="M3.59378 16.0159H12.0653V15.5084L3.59378 15.5084V16.0159Z" fill="#D5BF9B"/>
<path d="M3.59378 15.5084L12.0653 15.5084V14.7757L3.59378 14.7757V15.5084Z" fill="white"/>
<path d="M3.59378 16.7505H12.0653V16.0178H3.59378V16.7505Z" fill="white"/>
<path d="M4.19531 49.9296H11.3675V49.1231H4.19531V49.9296Z" fill="#D5BF9B"/>
<path d="M3.59378 49.5263H12.0653V48.7935H3.59378V49.5263Z" fill="white"/>
<path d="M1.67478 56.8498H13.983V56.1171H1.67478V56.8498Z" fill="#D5BF9B"/>
<path d="M1.67478 58.141H13.983V56.8498H1.67478V58.141Z" fill="#FFFAEB"/>
<path d="M1.67478 56.4825H13.983V55.7498H1.67478V56.4825Z" fill="white"/>
<path d="M0 59.2392H15.6578V58.5064H0V59.2392Z" fill="#D5BF9B"/>
<path d="M0 61.0019H15.6578V59.2411H0V61.0019Z" fill="#FFFAEB"/>
<path d="M0 58.8738H15.6578V58.1411H0V58.8738Z" fill="white"/>
<path d="M11.274 12.7082H11.4597C11.6439 12.7082 11.7932 12.5056 11.7932 12.2557V11.6952C11.7932 11.4453 11.6439 11.2427 11.4597 11.2427H11.274C11.0898 11.2427 10.9405 11.4453 10.9405 11.6952V12.2557C10.9405 12.5056 11.0898 12.7082 11.274 12.7082Z" fill="#FBF0E1"/>
<path d="M9.44432 12.7082H9.62994C9.81416 12.7082 9.9635 12.5056 9.9635 12.2557V11.6952C9.9635 11.4453 9.81416 11.2427 9.62994 11.2427H9.44432C9.2601 11.2427 9.11076 11.4453 9.11076 11.6952V12.2557C9.11076 12.5056 9.2601 12.7082 9.44432 12.7082Z" fill="#FBF0E1"/>
<path d="M7.61325 12.7082H7.79887C7.98309 12.7082 8.13243 12.5056 8.13243 12.2557V11.6952C8.13243 11.4453 7.98309 11.2427 7.79887 11.2427H7.61325C7.42903 11.2427 7.27969 11.4453 7.27969 11.6952V12.2557C7.27969 12.5056 7.42903 12.7082 7.61325 12.7082Z" fill="#FBF0E1"/>
<path d="M5.8673 12.7082H6.05292C6.23714 12.7082 6.38648 12.5056 6.38648 12.2557V11.6952C6.38648 11.4453 6.23714 11.2427 6.05292 11.2427H5.8673C5.68308 11.2427 5.53374 11.4453 5.53374 11.6952V12.2557C5.53374 12.5056 5.68308 12.7082 5.8673 12.7082Z" fill="#FBF0E1"/>
<path d="M4.12273 12.7082H4.30835C4.49257 12.7082 4.64191 12.5056 4.64191 12.2557V11.6952C4.64191 11.4453 4.49257 11.2427 4.30835 11.2427H4.12273C3.93851 11.2427 3.78917 11.4453 3.78917 11.6952V12.2557C3.78917 12.5056 3.93851 12.7082 4.12273 12.7082Z" fill="#FBF0E1"/>
<path d="M7.8533 48.0059H7.71234C7.57278 48.0059 7.45973 47.8526 7.45973 47.6632L7.45973 17.9225C7.45973 17.7331 7.57278 17.5798 7.71234 17.5798H7.8533C7.99287 17.5798 8.10591 17.7331 8.10591 17.9225L8.10591 47.6632C8.10591 47.8526 7.99287 48.0059 7.8533 48.0059Z" fill="#EBD1AD"/>
<path d="M10.5636 48.0059H10.4227C10.2831 48.0059 10.1701 47.8526 10.1701 47.6632L10.1701 17.9225C10.1701 17.7331 10.2831 17.5798 10.4227 17.5798H10.5636C10.7032 17.5798 10.8163 17.7331 10.8163 17.9225L10.8163 47.6632C10.8163 47.8526 10.7032 48.0059 10.5636 48.0059Z" fill="#EBD1AD"/>
<path d="M5.14295 48.0059H5.00199C4.86242 48.0059 4.74938 47.8526 4.74938 47.6632L4.74938 17.9225C4.74938 17.7331 4.86242 17.5798 5.00199 17.5798H5.14295C5.28251 17.5798 5.39556 17.7331 5.39556 17.9225L5.39556 47.6632C5.39556 47.8526 5.28251 48.0059 5.14295 48.0059Z" fill="#EBD1AD"/>
<path d="M2.09209 55.7517H13.5224L11.3675 49.9296H4.19532L2.09209 55.7517Z" fill="#FFFAEB"/>
<path d="M15.035 41.8133C14.3322 41.6268 14.0858 41.3669 13.8785 40.6568C13.736 41.371 13.4985 41.6373 12.7219 41.8133C13.4968 42.0125 13.7191 42.2901 13.8785 42.9699C14.113 42.3176 14.2506 41.9575 15.035 41.8133Z" fill="white"/>
<path d="M15.035 41.8133C14.3322 41.6268 14.0858 41.3669 13.8785 40.6568C13.736 41.371 13.4985 41.6373 12.7219 41.8133C13.4968 42.0125 13.7191 42.2901 13.8785 42.9699C14.113 42.3176 14.2506 41.9575 15.035 41.8133Z" fill="white"/>
</g>
<g clip-path="url(#clip1_5568_16956)">
<path d="M54.7426 13.3425L63.7794 13.3425V10.3037L54.7426 10.3037V13.3425Z" fill="#D5BF9B"/>
<path d="M55.6497 14.9556L62.822 14.9556V13.3425L55.6497 13.3425V14.9556Z" fill="#FBF0E1"/>
<path d="M55.6497 49.9296H62.822V13.3444H55.6497V49.9296Z" fill="#FFFAEB"/>
<path d="M55.6497 14.149L62.822 14.149V13.3424L55.6497 13.3424V14.149Z" fill="#D5BF9B"/>
<path d="M55.6497 17.1538H62.822V16.3472H55.6497V17.1538Z" fill="#D5BF9B"/>
<path d="M54.7426 10.8754L63.7794 10.8754V10.3055L54.7426 10.3055V10.8754Z" fill="#FBF0E1"/>
<path d="M54.7426 13.6303L63.7794 13.6303V13.0604L54.7426 13.0604V13.6303Z" fill="#FBF0E1"/>
<path d="M63.129 10.3055H55.1348C55.1348 10.3055 53.0497 11.0837 52.617 9.15436C52.1844 7.22315 53.707 6.48095 54.7733 6.48095C55.8396 6.48095 63.5631 6.10986 64.5875 6.63053C65.6133 7.14931 66.018 8.37809 65.6412 9.15436C65.263 9.93064 65.2113 10.6406 63.129 10.3055Z" fill="#D5BF9B"/>
<path d="M59.1305 5.79369L54.5723 5.96598L54.282 5.97924C54.169 5.98681 54.0573 6.00006 53.9471 6.02846C53.7251 6.08526 53.5102 6.18182 53.3092 6.32193C52.9087 6.60404 52.5682 7.06602 52.3867 7.64539C52.2025 8.21718 52.1997 8.90825 52.4063 9.48004C52.6086 10.048 52.9799 10.457 53.3874 10.6615C53.5926 10.7656 53.8075 10.8205 54.0224 10.8281C54.2457 10.8281 54.3909 10.8262 54.6225 10.8035C55.0552 10.7448 55.4711 10.4513 55.7377 9.9761C55.9987 9.50844 56.1117 8.83062 55.8884 8.27019C55.6707 7.72491 55.2157 7.45416 54.8026 7.48066L54.229 7.50338C54.0168 7.51664 53.8061 7.62835 53.647 7.82147C53.4865 8.0108 53.3818 8.29481 53.3832 8.58827C53.3804 8.89689 53.5186 9.15439 53.6777 9.31722C53.8368 9.48951 54.0434 9.57092 54.2346 9.58986C54.4272 9.61258 54.6295 9.605 54.8137 9.48951C55.0147 9.3797 55.0789 9.04268 55.0175 8.79654C54.9366 8.52579 54.7007 8.48035 54.5221 8.4955C54.7021 8.49171 54.9296 8.56366 54.9882 8.8098C55.0315 9.04457 54.9645 9.33615 54.7872 9.41188C54.6198 9.50276 54.4272 9.49708 54.2457 9.463C54.0615 9.42892 53.8898 9.34562 53.7558 9.18468C53.6219 9.03132 53.527 8.81169 53.5395 8.59585C53.5479 8.36865 53.6372 8.16038 53.7684 8.02027C53.8982 7.87827 54.0671 7.80443 54.2346 7.80632L54.8012 7.82715C55.1431 7.83093 55.4725 8.08275 55.6051 8.46899C55.7391 8.84198 55.6442 9.33615 55.439 9.65802C55.2296 9.98935 54.9087 10.1901 54.5849 10.2071C54.4369 10.2109 54.2025 10.2014 54.0461 10.1863C53.8815 10.1673 53.721 10.1124 53.5744 10.0253C53.2785 9.85114 53.0343 9.53495 52.9226 9.16007C52.8082 8.79276 52.8291 8.35918 52.9631 7.99755C53.0957 7.63592 53.333 7.34245 53.6149 7.17015C53.7558 7.08685 53.9066 7.03005 54.0601 7.00354C54.1369 6.99029 54.215 6.9865 54.2918 6.9865L54.5709 6.99597L59.1291 7.16826V5.79558L59.1305 5.79369Z" fill="white"/>
<path d="M59.1277 7.16628L63.6859 6.99398L63.965 6.98451C64.0432 6.98451 64.1199 6.98641 64.1967 7.00155C64.3502 7.02806 64.5009 7.08297 64.6419 7.16817C64.9224 7.33857 65.1611 7.63393 65.2937 7.99556C65.4276 8.35909 65.4472 8.79077 65.3341 9.15808C65.2211 9.53296 64.9782 9.84915 64.6824 10.0233C64.5344 10.1104 64.3739 10.1653 64.2106 10.1843C64.0543 10.1994 63.8199 10.2089 63.6719 10.2051C63.3467 10.1881 63.0271 9.98737 62.8178 9.65603C62.6126 9.33227 62.5177 8.84 62.6517 8.46701C62.7843 8.08076 63.1137 7.82706 63.4556 7.82516L64.0222 7.80434C64.1883 7.80244 64.3572 7.87628 64.4884 8.01828C64.6196 8.15839 64.7089 8.36666 64.7173 8.59386C64.7298 8.8097 64.6349 9.03123 64.5009 9.18269C64.3669 9.34363 64.1967 9.42694 64.0111 9.46102C63.8296 9.49699 63.637 9.50078 63.4695 9.4099C63.2923 9.33416 63.2253 9.04448 63.2686 8.80781C63.3258 8.56168 63.5533 8.48973 63.7347 8.49352C63.5561 8.47837 63.3188 8.52192 63.2393 8.79456C63.1779 9.04259 63.2434 9.37771 63.443 9.48752C63.6273 9.60302 63.8296 9.6087 64.0222 9.58787C64.2134 9.56705 64.42 9.48752 64.5791 9.31523C64.7382 9.1524 64.8764 8.89301 64.8736 8.58629C64.8736 8.29471 64.7689 8.01071 64.6098 7.81948C64.4507 7.62636 64.2413 7.51655 64.0278 7.5014L63.4542 7.47868C63.0411 7.45217 62.5875 7.72292 62.3684 8.26821C62.1451 8.82864 62.2581 9.50646 62.5191 9.97412C62.7857 10.4493 63.203 10.7428 63.6342 10.8015C63.8659 10.8223 64.0111 10.8261 64.2344 10.8261C64.4493 10.8167 64.6642 10.7636 64.8694 10.6595C65.2783 10.455 65.6495 10.0461 65.8505 9.47806C66.0557 8.90816 66.0529 8.21519 65.8701 7.6434C65.6886 7.06403 65.3481 6.60206 64.9489 6.31995C64.748 6.17984 64.5316 6.08139 64.3111 6.02648C64.2009 5.99808 64.0878 5.98293 63.9762 5.97725L63.6859 5.964L59.1277 5.7917V7.16438V7.16628Z" fill="white"/>
<path d="M54.0741 4.28273L64.1897 4.28273V-3.14713e-05L54.0741 -3.14713e-05V4.28273Z" fill="#FBF0E1"/>
<path d="M54.0741 3.3815L64.1897 3.3815V-2.55108e-05L54.0741 -2.55108e-05V3.3815Z" fill="#D5BF9B"/>
<path d="M54.0741 6.08527L64.1897 6.08527V4.67661L54.0741 4.67661V6.08527Z" fill="#FBF0E1"/>
<path d="M54.0741 5.18404L64.1897 5.18404V4.67662L54.0741 4.67662V5.18404Z" fill="#D5BF9B"/>
<path d="M54.0657 2.63933H64.1883L65.2783 0H52.9771L54.0657 2.63933Z" fill="white"/>
<path d="M54.0741 4.67651L64.1897 4.67651V3.94378L54.0741 3.94378V4.67651Z" fill="white"/>
<path d="M55.0482 16.0159H63.5198V15.5084L55.0482 15.5084V16.0159Z" fill="#D5BF9B"/>
<path d="M55.0482 15.5084L63.5198 15.5084V14.7757L55.0482 14.7757V15.5084Z" fill="white"/>
<path d="M55.0482 16.7505H63.5198V16.0178H55.0482V16.7505Z" fill="white"/>
<path d="M55.6497 49.9296H62.822V49.1231H55.6497V49.9296Z" fill="#D5BF9B"/>
<path d="M55.0482 49.5263H63.5198V48.7935H55.0482V49.5263Z" fill="white"/>
<path d="M53.1292 56.8498H65.4374V56.1171H53.1292V56.8498Z" fill="#D5BF9B"/>
<path d="M53.1292 58.141H65.4374V56.8498H53.1292V58.141Z" fill="#FFFAEB"/>
<path d="M53.1292 56.4825H65.4374V55.7498H53.1292V56.4825Z" fill="white"/>
<path d="M51.4544 59.2392H67.1122V58.5064H51.4544V59.2392Z" fill="#D5BF9B"/>
<path d="M51.4544 61.0019H67.1122V59.2411H51.4544V61.0019Z" fill="#FFFAEB"/>
<path d="M51.4544 58.8738H67.1122V58.1411H51.4544V58.8738Z" fill="white"/>
<path d="M62.7285 12.7082H62.9141C63.0983 12.7082 63.2477 12.5056 63.2477 12.2557V11.6952C63.2477 11.4453 63.0983 11.2427 62.9141 11.2427H62.7285C62.5442 11.2427 62.3949 11.4453 62.3949 11.6952V12.2557C62.3949 12.5056 62.5442 12.7082 62.7285 12.7082Z" fill="#FBF0E1"/>
<path d="M60.8988 12.7082H61.0844C61.2686 12.7082 61.4179 12.5056 61.4179 12.2557V11.6952C61.4179 11.4453 61.2686 11.2427 61.0844 11.2427H60.8988C60.7145 11.2427 60.5652 11.4453 60.5652 11.6952V12.2557C60.5652 12.5056 60.7145 12.7082 60.8988 12.7082Z" fill="#FBF0E1"/>
<path d="M59.0677 12.7082H59.2533C59.4375 12.7082 59.5869 12.5056 59.5869 12.2557V11.6952C59.5869 11.4453 59.4375 11.2427 59.2533 11.2427H59.0677C58.8835 11.2427 58.7341 11.4453 58.7341 11.6952V12.2557C58.7341 12.5056 58.8835 12.7082 59.0677 12.7082Z" fill="#FBF0E1"/>
<path d="M57.3217 12.7082H57.5074C57.6916 12.7082 57.8409 12.5056 57.8409 12.2557V11.6952C57.8409 11.4453 57.6916 11.2427 57.5074 11.2427H57.3217C57.1375 11.2427 56.9882 11.4453 56.9882 11.6952V12.2557C56.9882 12.5056 57.1375 12.7082 57.3217 12.7082Z" fill="#FBF0E1"/>
<path d="M55.5772 12.7082H55.7628C55.947 12.7082 56.0963 12.5056 56.0963 12.2557V11.6952C56.0963 11.4453 55.947 11.2427 55.7628 11.2427H55.5772C55.3929 11.2427 55.2436 11.4453 55.2436 11.6952V12.2557C55.2436 12.5056 55.3929 12.7082 55.5772 12.7082Z" fill="#FBF0E1"/>
<path d="M59.3077 48.0059H59.1668C59.0272 48.0059 58.9142 47.8526 58.9142 47.6632V17.9225C58.9142 17.7331 59.0272 17.5798 59.1668 17.5798H59.3077C59.4473 17.5798 59.5603 17.7331 59.5603 17.9225V47.6632C59.5603 47.8526 59.4473 48.0059 59.3077 48.0059Z" fill="#EBD1AD"/>
<path d="M62.0181 48.0059H61.8771C61.7376 48.0059 61.6245 47.8526 61.6245 47.6632V17.9225C61.6245 17.7331 61.7376 17.5798 61.8771 17.5798H62.0181C62.1577 17.5798 62.2707 17.7331 62.2707 17.9225V47.6632C62.2707 47.8526 62.1577 48.0059 62.0181 48.0059Z" fill="#EBD1AD"/>
<path d="M56.5974 48.0059H56.4564C56.3169 48.0059 56.2038 47.8526 56.2038 47.6632V17.9225C56.2038 17.7331 56.3169 17.5798 56.4564 17.5798H56.5974C56.7369 17.5798 56.85 17.7331 56.85 17.9225V47.6632C56.85 47.8526 56.7369 48.0059 56.5974 48.0059Z" fill="#EBD1AD"/>
<path d="M53.5465 55.7517H64.9769L62.822 49.9296H55.6498L53.5465 55.7517Z" fill="#FFFAEB"/>
<path d="M66.4894 41.8133C65.7866 41.6268 65.5403 41.3669 65.3329 40.6568C65.1905 41.371 64.953 41.6373 64.1764 41.8133C64.9512 42.0125 65.1736 42.2901 65.3329 42.9699C65.5674 42.3176 65.705 41.9575 66.4894 41.8133Z" fill="white"/>
<path d="M66.4894 41.8133C65.7866 41.6268 65.5403 41.3669 65.3329 40.6568C65.1905 41.371 64.953 41.6373 64.1764 41.8133C64.9512 42.0125 65.1736 42.2901 65.3329 42.9699C65.5674 42.3176 65.705 41.9575 66.4894 41.8133Z" fill="white"/>
</g>
<defs>
<clipPath id="clip0_5568_16956">
<rect width="15.6578" height="61" fill="white"/>
</clipPath>
<clipPath id="clip1_5568_16956">
<rect width="15.6578" height="61" fill="white" transform="translate(51.4544)"/>
</clipPath>
</defs>
</svg>
