<svg width="500" height="349" viewBox="0 0 500 349" fill="none" xmlns="http://www.w3.org/2000/svg">
<path d="M500 299H0V319H500V299Z" fill="#8B4513"/>
<path d="M248.647 88.1196L248.13 241.122C243.011 230.054 239.787 241.1 239.787 241.1L240.304 88.0971C240.304 88.0971 248.676 82.3219 248.647 88.1196Z" fill="url(#paint0_linear_5732_1061)"/>
<path d="M403.742 52.0606L403.225 205.063C398.107 193.995 394.883 205.041 394.883 205.041L395.4 52.0381C395.4 52.0381 400 49.5 403.742 52.0606Z" fill="url(#paint1_linear_5732_1061)"/>
<path d="M103.742 52.0606L103.226 205.063C98.1069 193.995 94.8829 205.041 94.8829 205.041L95.3996 52.0381C95.3996 52.0381 100 49.5 103.742 52.0606Z" fill="url(#paint2_linear_5732_1061)"/>
<path d="M231.194 88.5789L220.282 59.6347L245.811 2.62292L266.002 57.5987L255.465 88.5727L231.194 88.5789Z" fill="url(#paint3_linear_5732_1061)"/>
<mask id="mask0_5732_1061" style="mask-type:luminance" maskUnits="userSpaceOnUse" x="220" y="2" width="47" height="87">
<path d="M231.194 88.5789L220.282 59.6347L245.811 2.62292L266.002 57.5987L255.465 88.5727L231.194 88.5789Z" fill="white"/>
</mask>
<g mask="url(#mask0_5732_1061)">
<path d="M244.969 35.22C245.509 55.8987 246.044 76.558 246.583 97.2368C246.611 98.5242 248.624 98.6182 248.577 97.3352C248.038 76.6565 247.502 55.9972 246.963 35.3184C246.935 34.031 244.922 33.937 244.969 35.22Z" fill="#E5B66C"/>
</g>
<path d="M248.466 111.304C257.056 109.34 262.427 100.784 260.462 92.1941C258.498 83.6043 249.942 78.2334 241.352 80.1978C232.762 82.1623 227.391 90.7182 229.355 99.3079C231.32 107.898 239.876 113.269 248.466 111.304Z" fill="url(#paint4_linear_5732_1061)"/>
<path d="M247.881 108.748C254.509 107.232 258.654 100.63 257.138 94.0016C255.623 87.3733 249.02 83.2289 242.392 84.7448C235.763 86.2606 231.619 92.8627 233.135 99.4909C234.65 106.119 241.253 110.264 247.881 108.748Z" fill="url(#paint5_linear_5732_1061)"/>
<path fill-rule="evenodd" clip-rule="evenodd" d="M246.304 235.831C247.026 235.666 247.51 235.268 247.763 234.758L247.783 234.754C247.8 234.75 247.823 234.749 247.847 234.748C247.877 234.747 247.911 234.745 247.943 234.738C248.002 234.724 248.09 234.663 248.09 234.663L247.351 319H239.418L240.156 234.629C240.319 234.715 240.483 234.801 240.642 234.867C241.316 235.124 242.092 235.193 242.806 235.173C243.145 235.173 243.476 235.139 243.807 235.106C243.918 235.095 244.028 235.084 244.139 235.074C244.603 235.666 245.328 236.055 246.304 235.831ZM237.878 495L237.084 585.868L244.766 614.072L245.809 495H237.878Z" fill="url(#paint6_linear_5732_1061)"/>
<path fill-rule="evenodd" clip-rule="evenodd" d="M101.399 199.772C102.122 199.607 102.605 199.209 102.859 198.699L102.878 198.695C102.907 198.688 102.949 198.69 102.992 198.686C103.008 198.684 103.023 198.682 103.039 198.679C103.097 198.665 103.186 198.604 103.186 198.604L102.131 319H94.1979L95.2513 198.57C95.4147 198.656 95.5781 198.742 95.737 198.808C96.4117 199.065 97.1873 199.134 97.9016 199.114C98.2404 199.114 98.5716 199.08 98.9029 199.047C99.0133 199.036 99.1236 199.025 99.2342 199.015C99.6982 199.607 100.424 199.996 101.399 199.772ZM93.848 359L92.179 549.809L99.8611 578.013L101.78 359H93.848Z" fill="url(#paint7_linear_5732_1061)"/>
<path fill-rule="evenodd" clip-rule="evenodd" d="M401.399 199.772C402.121 199.607 402.605 199.209 402.858 198.699L402.878 198.695C402.895 198.691 402.918 198.69 402.942 198.689C402.973 198.688 403.006 198.686 403.038 198.679C403.097 198.665 403.186 198.604 403.186 198.604L402.131 319H394.198L395.251 198.57C395.414 198.656 395.578 198.742 395.737 198.808C396.411 199.065 397.187 199.134 397.901 199.114C398.24 199.114 398.571 199.08 398.903 199.047C399.013 199.036 399.123 199.025 399.234 199.015C399.698 199.607 400.423 199.996 401.399 199.772ZM393.909 352L392.179 549.809L399.861 578.013L401.841 352H393.909Z" fill="url(#paint8_linear_5732_1061)"/>
<rect y="299" width="500" height="20" fill="url(#paint9_linear_5732_1061)"/>
<g filter="url(#filter0_d_5732_1061)">
<path d="M144 209H54V229H144V209Z" fill="url(#paint10_linear_5732_1061)"/>
</g>
<g filter="url(#filter1_d_5732_1061)">
<path d="M475 229H325V249H475V229Z" fill="url(#paint11_linear_5732_1061)"/>
</g>
<g filter="url(#filter2_d_5732_1061)">
<path d="M485 249H315V269H485V249Z" fill="url(#paint12_linear_5732_1061)"/>
</g>
<g filter="url(#filter3_d_5732_1061)">
<path d="M495 269H305V289H495V269Z" fill="url(#paint13_linear_5732_1061)"/>
</g>
<g filter="url(#filter4_d_5732_1061)">
<path d="M154 229H44V249H154V229Z" fill="url(#paint14_linear_5732_1061)"/>
</g>
<g filter="url(#filter5_d_5732_1061)">
<path d="M164 249H34V269H164V249Z" fill="url(#paint15_linear_5732_1061)"/>
</g>
<g filter="url(#filter6_d_5732_1061)">
<path d="M174 269H24V289H174V269Z" fill="url(#paint16_linear_5732_1061)"/>
</g>
<defs>
<filter id="filter0_d_5732_1061" x="50" y="209" width="98" height="28" filterUnits="userSpaceOnUse" color-interpolation-filters="sRGB">
<feFlood flood-opacity="0" result="BackgroundImageFix"/>
<feColorMatrix in="SourceAlpha" type="matrix" values="0 0 0 0 0 0 0 0 0 0 0 0 0 0 0 0 0 0 127 0" result="hardAlpha"/>
<feOffset dy="4"/>
<feGaussianBlur stdDeviation="2"/>
<feComposite in2="hardAlpha" operator="out"/>
<feColorMatrix type="matrix" values="0 0 0 0 0 0 0 0 0 0 0 0 0 0 0 0 0 0 0.25 0"/>
<feBlend mode="normal" in2="BackgroundImageFix" result="effect1_dropShadow_5732_1061"/>
<feBlend mode="normal" in="SourceGraphic" in2="effect1_dropShadow_5732_1061" result="shape"/>
</filter>
<filter id="filter1_d_5732_1061" x="321" y="229" width="158" height="28" filterUnits="userSpaceOnUse" color-interpolation-filters="sRGB">
<feFlood flood-opacity="0" result="BackgroundImageFix"/>
<feColorMatrix in="SourceAlpha" type="matrix" values="0 0 0 0 0 0 0 0 0 0 0 0 0 0 0 0 0 0 127 0" result="hardAlpha"/>
<feOffset dy="4"/>
<feGaussianBlur stdDeviation="2"/>
<feComposite in2="hardAlpha" operator="out"/>
<feColorMatrix type="matrix" values="0 0 0 0 0 0 0 0 0 0 0 0 0 0 0 0 0 0 0.25 0"/>
<feBlend mode="normal" in2="BackgroundImageFix" result="effect1_dropShadow_5732_1061"/>
<feBlend mode="normal" in="SourceGraphic" in2="effect1_dropShadow_5732_1061" result="shape"/>
</filter>
<filter id="filter2_d_5732_1061" x="311" y="249" width="178" height="28" filterUnits="userSpaceOnUse" color-interpolation-filters="sRGB">
<feFlood flood-opacity="0" result="BackgroundImageFix"/>
<feColorMatrix in="SourceAlpha" type="matrix" values="0 0 0 0 0 0 0 0 0 0 0 0 0 0 0 0 0 0 127 0" result="hardAlpha"/>
<feOffset dy="4"/>
<feGaussianBlur stdDeviation="2"/>
<feComposite in2="hardAlpha" operator="out"/>
<feColorMatrix type="matrix" values="0 0 0 0 0 0 0 0 0 0 0 0 0 0 0 0 0 0 0.25 0"/>
<feBlend mode="normal" in2="BackgroundImageFix" result="effect1_dropShadow_5732_1061"/>
<feBlend mode="normal" in="SourceGraphic" in2="effect1_dropShadow_5732_1061" result="shape"/>
</filter>
<filter id="filter3_d_5732_1061" x="301" y="269" width="198" height="28" filterUnits="userSpaceOnUse" color-interpolation-filters="sRGB">
<feFlood flood-opacity="0" result="BackgroundImageFix"/>
<feColorMatrix in="SourceAlpha" type="matrix" values="0 0 0 0 0 0 0 0 0 0 0 0 0 0 0 0 0 0 127 0" result="hardAlpha"/>
<feOffset dy="4"/>
<feGaussianBlur stdDeviation="2"/>
<feComposite in2="hardAlpha" operator="out"/>
<feColorMatrix type="matrix" values="0 0 0 0 0 0 0 0 0 0 0 0 0 0 0 0 0 0 0.25 0"/>
<feBlend mode="normal" in2="BackgroundImageFix" result="effect1_dropShadow_5732_1061"/>
<feBlend mode="normal" in="SourceGraphic" in2="effect1_dropShadow_5732_1061" result="shape"/>
</filter>
<filter id="filter4_d_5732_1061" x="40" y="229" width="118" height="28" filterUnits="userSpaceOnUse" color-interpolation-filters="sRGB">
<feFlood flood-opacity="0" result="BackgroundImageFix"/>
<feColorMatrix in="SourceAlpha" type="matrix" values="0 0 0 0 0 0 0 0 0 0 0 0 0 0 0 0 0 0 127 0" result="hardAlpha"/>
<feOffset dy="4"/>
<feGaussianBlur stdDeviation="2"/>
<feComposite in2="hardAlpha" operator="out"/>
<feColorMatrix type="matrix" values="0 0 0 0 0 0 0 0 0 0 0 0 0 0 0 0 0 0 0.25 0"/>
<feBlend mode="normal" in2="BackgroundImageFix" result="effect1_dropShadow_5732_1061"/>
<feBlend mode="normal" in="SourceGraphic" in2="effect1_dropShadow_5732_1061" result="shape"/>
</filter>
<filter id="filter5_d_5732_1061" x="30" y="249" width="138" height="28" filterUnits="userSpaceOnUse" color-interpolation-filters="sRGB">
<feFlood flood-opacity="0" result="BackgroundImageFix"/>
<feColorMatrix in="SourceAlpha" type="matrix" values="0 0 0 0 0 0 0 0 0 0 0 0 0 0 0 0 0 0 127 0" result="hardAlpha"/>
<feOffset dy="4"/>
<feGaussianBlur stdDeviation="2"/>
<feComposite in2="hardAlpha" operator="out"/>
<feColorMatrix type="matrix" values="0 0 0 0 0 0 0 0 0 0 0 0 0 0 0 0 0 0 0.25 0"/>
<feBlend mode="normal" in2="BackgroundImageFix" result="effect1_dropShadow_5732_1061"/>
<feBlend mode="normal" in="SourceGraphic" in2="effect1_dropShadow_5732_1061" result="shape"/>
</filter>
<filter id="filter6_d_5732_1061" x="20" y="269" width="158" height="28" filterUnits="userSpaceOnUse" color-interpolation-filters="sRGB">
<feFlood flood-opacity="0" result="BackgroundImageFix"/>
<feColorMatrix in="SourceAlpha" type="matrix" values="0 0 0 0 0 0 0 0 0 0 0 0 0 0 0 0 0 0 127 0" result="hardAlpha"/>
<feOffset dy="4"/>
<feGaussianBlur stdDeviation="2"/>
<feComposite in2="hardAlpha" operator="out"/>
<feColorMatrix type="matrix" values="0 0 0 0 0 0 0 0 0 0 0 0 0 0 0 0 0 0 0.25 0"/>
<feBlend mode="normal" in2="BackgroundImageFix" result="effect1_dropShadow_5732_1061"/>
<feBlend mode="normal" in="SourceGraphic" in2="effect1_dropShadow_5732_1061" result="shape"/>
</filter>
<linearGradient id="paint0_linear_5732_1061" x1="223.264" y1="168.755" x2="265.026" y2="159.204" gradientUnits="userSpaceOnUse">
<stop stop-color="#E5B66C"/>
<stop offset="0.13" stop-color="#E8BD73"/>
<stop offset="0.33" stop-color="#F3D189"/>
<stop offset="0.51" stop-color="#FFE9A2"/>
<stop offset="0.63" stop-color="#FCE39B"/>
<stop offset="0.79" stop-color="#F3D38A"/>
<stop offset="0.98" stop-color="#E6B86F"/>
<stop offset="0.99" stop-color="#E5B66C"/>
</linearGradient>
<linearGradient id="paint1_linear_5732_1061" x1="378.359" y1="132.696" x2="420.122" y2="123.145" gradientUnits="userSpaceOnUse">
<stop stop-color="#E5B66C"/>
<stop offset="0.13" stop-color="#E8BD73"/>
<stop offset="0.33" stop-color="#F3D189"/>
<stop offset="0.51" stop-color="#FFE9A2"/>
<stop offset="0.63" stop-color="#FCE39B"/>
<stop offset="0.79" stop-color="#F3D38A"/>
<stop offset="0.98" stop-color="#E6B86F"/>
<stop offset="0.99" stop-color="#E5B66C"/>
</linearGradient>
<linearGradient id="paint2_linear_5732_1061" x1="78.3591" y1="132.696" x2="120.122" y2="123.145" gradientUnits="userSpaceOnUse">
<stop stop-color="#E5B66C"/>
<stop offset="0.13" stop-color="#E8BD73"/>
<stop offset="0.33" stop-color="#F3D189"/>
<stop offset="0.51" stop-color="#FFE9A2"/>
<stop offset="0.63" stop-color="#FCE39B"/>
<stop offset="0.79" stop-color="#F3D38A"/>
<stop offset="0.98" stop-color="#E6B86F"/>
<stop offset="0.99" stop-color="#E5B66C"/>
</linearGradient>
<linearGradient id="paint3_linear_5732_1061" x1="218.743" y1="52.9022" x2="262.633" y2="42.8651" gradientUnits="userSpaceOnUse">
<stop stop-color="#E5B66C"/>
<stop offset="0.13" stop-color="#E8BD73"/>
<stop offset="0.33" stop-color="#F3D189"/>
<stop offset="0.51" stop-color="#FFE9A2"/>
<stop offset="0.63" stop-color="#FCE39B"/>
<stop offset="0.79" stop-color="#F3D38A"/>
<stop offset="0.98" stop-color="#E6B86F"/>
<stop offset="0.99" stop-color="#E5B66C"/>
</linearGradient>
<linearGradient id="paint4_linear_5732_1061" x1="229.355" y1="99.3079" x2="260.462" y2="92.1941" gradientUnits="userSpaceOnUse">
<stop stop-color="#E5B66C"/>
<stop offset="0.13" stop-color="#E8BD73"/>
<stop offset="0.33" stop-color="#F3D189"/>
<stop offset="0.51" stop-color="#FFE9A2"/>
<stop offset="0.63" stop-color="#FCE39B"/>
<stop offset="0.79" stop-color="#F3D38A"/>
<stop offset="0.98" stop-color="#E6B86F"/>
<stop offset="0.99" stop-color="#E5B66C"/>
</linearGradient>
<linearGradient id="paint5_linear_5732_1061" x1="233.154" y1="99.4865" x2="257.138" y2="94.0016" gradientUnits="userSpaceOnUse">
<stop stop-color="#E5B66C"/>
<stop offset="0.01" stop-color="#EDC57C"/>
<stop offset="0.03" stop-color="#F5D58D"/>
<stop offset="0.06" stop-color="#FAE099"/>
<stop offset="0.09" stop-color="#FEE7A0"/>
<stop offset="0.18" stop-color="#FFE9A2"/>
<stop offset="0.38" stop-color="#FCE39B"/>
<stop offset="0.65" stop-color="#F3D38A"/>
<stop offset="0.96" stop-color="#E6B86F"/>
<stop offset="0.99" stop-color="#E5B66C"/>
</linearGradient>
<linearGradient id="paint6_linear_5732_1061" x1="202.252" y1="433.556" x2="289.875" y2="413.518" gradientUnits="userSpaceOnUse">
<stop stop-color="#FFE9A2"/>
<stop offset="0.25" stop-color="#FCE39B"/>
<stop offset="0.58" stop-color="#F3D38A"/>
<stop offset="0.96" stop-color="#E6B86F"/>
<stop offset="0.99" stop-color="#E5B66C"/>
</linearGradient>
<linearGradient id="paint7_linear_5732_1061" x1="57.3473" y1="397.497" x2="144.971" y2="377.459" gradientUnits="userSpaceOnUse">
<stop stop-color="#FFE9A2"/>
<stop offset="0.25" stop-color="#FCE39B"/>
<stop offset="0.58" stop-color="#F3D38A"/>
<stop offset="0.96" stop-color="#E6B86F"/>
<stop offset="0.99" stop-color="#E5B66C"/>
</linearGradient>
<linearGradient id="paint8_linear_5732_1061" x1="357.347" y1="397.497" x2="444.97" y2="377.459" gradientUnits="userSpaceOnUse">
<stop stop-color="#FFE9A2"/>
<stop offset="0.25" stop-color="#FCE39B"/>
<stop offset="0.58" stop-color="#F3D38A"/>
<stop offset="0.96" stop-color="#E6B86F"/>
<stop offset="0.99" stop-color="#E5B66C"/>
</linearGradient>
<linearGradient id="paint9_linear_5732_1061" x1="0" y1="309" x2="500" y2="309" gradientUnits="userSpaceOnUse">
<stop stop-color="#FDE59D"/>
<stop offset="1" stop-color="#EEC87F"/>
</linearGradient>
<linearGradient id="paint10_linear_5732_1061" x1="54" y1="219" x2="144" y2="219" gradientUnits="userSpaceOnUse">
<stop stop-color="#E6B970"/>
<stop offset="0.255" stop-color="#FEE7A0"/>
<stop offset="0.48" stop-color="#F9DD95"/>
<stop offset="0.725" stop-color="#F1CF86"/>
<stop offset="1" stop-color="#E5B76D"/>
</linearGradient>
<linearGradient id="paint11_linear_5732_1061" x1="325" y1="239" x2="475" y2="239" gradientUnits="userSpaceOnUse">
<stop stop-color="#E6B970"/>
<stop offset="0.255" stop-color="#FEE7A0"/>
<stop offset="0.48" stop-color="#F9DD95"/>
<stop offset="0.725" stop-color="#F1CF86"/>
<stop offset="1" stop-color="#E5B76D"/>
</linearGradient>
<linearGradient id="paint12_linear_5732_1061" x1="315" y1="259" x2="485" y2="259" gradientUnits="userSpaceOnUse">
<stop stop-color="#E6B970"/>
<stop offset="0.255" stop-color="#FEE7A0"/>
<stop offset="0.48" stop-color="#F9DD95"/>
<stop offset="0.725" stop-color="#F1CF86"/>
<stop offset="1" stop-color="#E5B76D"/>
</linearGradient>
<linearGradient id="paint13_linear_5732_1061" x1="305" y1="279" x2="495" y2="279" gradientUnits="userSpaceOnUse">
<stop stop-color="#E6B970"/>
<stop offset="0.255" stop-color="#FEE7A0"/>
<stop offset="0.48" stop-color="#F9DD95"/>
<stop offset="0.725" stop-color="#F1CF86"/>
<stop offset="1" stop-color="#E5B76D"/>
</linearGradient>
<linearGradient id="paint14_linear_5732_1061" x1="44" y1="239" x2="154" y2="239" gradientUnits="userSpaceOnUse">
<stop stop-color="#E6B970"/>
<stop offset="0.255" stop-color="#FEE7A0"/>
<stop offset="0.48" stop-color="#F9DD95"/>
<stop offset="0.725" stop-color="#F1CF86"/>
<stop offset="1" stop-color="#E5B76D"/>
</linearGradient>
<linearGradient id="paint15_linear_5732_1061" x1="34" y1="259" x2="164" y2="259" gradientUnits="userSpaceOnUse">
<stop stop-color="#E6B970"/>
<stop offset="0.255" stop-color="#FEE7A0"/>
<stop offset="0.48" stop-color="#F9DD95"/>
<stop offset="0.725" stop-color="#F1CF86"/>
<stop offset="1" stop-color="#E5B76D"/>
</linearGradient>
<linearGradient id="paint16_linear_5732_1061" x1="24" y1="279" x2="174" y2="279" gradientUnits="userSpaceOnUse">
<stop stop-color="#E6B970"/>
<stop offset="0.255" stop-color="#FEE7A0"/>
<stop offset="0.48" stop-color="#F9DD95"/>
<stop offset="0.725" stop-color="#F1CF86"/>
<stop offset="1" stop-color="#E5B76D"/>
</linearGradient>
</defs>
</svg>