<svg width="68" height="61" viewBox="0 0 68 61" fill="none" xmlns="http://www.w3.org/2000/svg">
<path d="M53.5392 4.93929H12.7424C9.89773 4.93929 7.59167 7.24534 7.59167 10.09V50.8868C7.59167 53.7314 9.89772 56.0375 12.7424 56.0375H53.5392C56.3838 56.0375 58.6899 53.7314 58.6899 50.8868V10.09C58.6899 7.24534 56.3838 4.93929 53.5392 4.93929Z" fill="#E0C69F"/>
<path d="M33.8555 21.9798C35.7955 21.9798 37.4655 22.3798 38.8655 23.1798C40.2655 23.9798 41.3455 25.1498 42.1055 26.6898C42.8655 28.2098 43.2455 30.1098 43.2455 32.3898C43.2455 34.8098 42.7855 36.8598 41.8655 38.5398C40.9655 40.2198 39.7155 41.4998 38.1155 42.3798C36.5155 43.2598 34.6555 43.6998 32.5355 43.6998C31.4355 43.6998 30.3755 43.5798 29.3555 43.3398C28.3355 43.0998 27.4555 42.7398 26.7155 42.2598L28.5155 38.6898C29.0955 39.0898 29.7155 39.3698 30.3755 39.5298C31.0355 39.6698 31.7255 39.7398 32.4455 39.7398C34.2455 39.7398 35.6755 39.1898 36.7355 38.0898C37.8155 36.9898 38.3555 35.3598 38.3555 33.1998C38.3555 32.8398 38.3455 32.4398 38.3255 31.9998C38.3055 31.5598 38.2555 31.1198 38.1755 30.6798L39.4955 31.9398C39.1555 32.7198 38.6755 33.3798 38.0555 33.9198C37.4355 34.4398 36.7155 34.8398 35.8955 35.1198C35.0755 35.3798 34.1555 35.5098 33.1355 35.5098C31.7955 35.5098 30.5755 35.2398 29.4755 34.6998C28.3955 34.1598 27.5255 33.3998 26.8655 32.4198C26.2255 31.4398 25.9055 30.2898 25.9055 28.9698C25.9055 27.5298 26.2555 26.2898 26.9555 25.2498C27.6755 24.2098 28.6355 23.4098 29.8355 22.8498C31.0555 22.2698 32.3955 21.9798 33.8555 21.9798ZM34.1555 25.6098C33.4555 25.6098 32.8455 25.7398 32.3255 25.9998C31.8055 26.2398 31.3955 26.5998 31.0955 27.0798C30.7955 27.5398 30.6455 28.0898 30.6455 28.7298C30.6455 29.6898 30.9655 30.4598 31.6055 31.0398C32.2655 31.5998 33.1355 31.8798 34.2155 31.8798C34.9155 31.8798 35.5355 31.7498 36.0755 31.4898C36.6355 31.2098 37.0655 30.8298 37.3655 30.3498C37.6655 29.8698 37.8155 29.3298 37.8155 28.7298C37.8155 28.1298 37.6655 27.5998 37.3655 27.1398C37.0855 26.6598 36.6755 26.2898 36.1355 26.0298C35.5955 25.7498 34.9355 25.6098 34.1555 25.6098Z" fill="#662B13"/>
<g clip-path="url(#clip0_5606_897)">
<path d="M3.28814 13.3425L12.325 13.3425V10.3037L3.28814 10.3037V13.3425Z" fill="#D5BF9B"/>
<path d="M4.19533 14.9556L11.3676 14.9556V13.3425L4.19533 13.3425V14.9556Z" fill="#FBF0E1"/>
<path d="M4.19533 49.9296H11.3676L11.3676 13.3444H4.19533L4.19533 49.9296Z" fill="#FFFAEB"/>
<path d="M4.19533 14.149L11.3676 14.149V13.3424L4.19533 13.3424V14.149Z" fill="#D5BF9B"/>
<path d="M4.19533 17.1538H11.3676V16.3472H4.19533V17.1538Z" fill="#D5BF9B"/>
<path d="M3.28814 10.8754L12.325 10.8754V10.3055L3.28814 10.3055V10.8754Z" fill="#FBF0E1"/>
<path d="M3.28814 13.6303L12.325 13.6303V13.0604L3.28814 13.0604V13.6303Z" fill="#FBF0E1"/>
<path d="M11.6746 10.3055H3.6803C3.6803 10.3055 1.5952 11.0837 1.16255 9.15437C0.729901 7.22315 2.25255 6.48096 3.31882 6.48096C4.3851 6.48096 12.1086 6.10986 13.133 6.63053C14.1588 7.14931 14.5635 8.3781 14.1867 9.15437C13.8085 9.93065 13.7569 10.6407 11.6746 10.3055Z" fill="#D5BF9B"/>
<path d="M7.67601 5.79399L3.11783 5.96629L2.82754 5.97954C2.71449 5.98711 2.60284 6.00037 2.49258 6.02877C2.27068 6.08557 2.05575 6.18213 1.85477 6.32224C1.45422 6.60435 1.11368 7.06632 0.932251 7.64569C0.748025 8.21748 0.745234 8.90855 0.95179 9.48035C1.15416 10.0484 1.5254 10.4573 1.93293 10.6618C2.13809 10.7659 2.35302 10.8208 2.56795 10.8284C2.79125 10.8284 2.9364 10.8265 3.16808 10.8038C3.60073 10.7451 4.01663 10.4516 4.2832 9.9764C4.54418 9.50875 4.65723 8.83093 4.43393 8.2705C4.21621 7.72521 3.76123 7.45446 3.34811 7.48097L2.7745 7.50369C2.56237 7.51694 2.35162 7.62865 2.19252 7.82177C2.03202 8.01111 1.92735 8.29511 1.92874 8.58858C1.92595 8.89719 2.06412 9.15469 2.22322 9.31752C2.38233 9.48981 2.58888 9.57123 2.78009 9.59016C2.97269 9.61288 3.17505 9.60531 3.35928 9.48981C3.56025 9.38 3.62445 9.04298 3.56304 8.79685C3.4821 8.5261 3.24623 8.48066 3.06759 8.4958C3.24763 8.49202 3.47512 8.56396 3.53373 8.8101C3.577 9.04488 3.51001 9.33645 3.33276 9.41219C3.16528 9.50307 2.97269 9.49739 2.79125 9.46331C2.60703 9.42923 2.43536 9.34592 2.30138 9.18498C2.1674 9.03162 2.07249 8.81199 2.08505 8.59615C2.09343 8.36895 2.18275 8.16068 2.31394 8.02057C2.44374 7.87857 2.61261 7.80473 2.78009 7.80662L3.34672 7.82745C3.68865 7.83124 4.01802 8.08305 4.15061 8.4693C4.28459 8.84229 4.18969 9.33645 3.98453 9.65832C3.77518 9.98966 3.45418 10.1904 3.13039 10.2074C2.98245 10.2112 2.74799 10.2017 2.59167 10.1866C2.42699 10.1676 2.26649 10.1127 2.11995 10.0256C1.82407 9.85144 1.57983 9.53525 1.46818 9.16037C1.35374 8.79306 1.37467 8.35948 1.50865 7.99785C1.64124 7.63622 1.8785 7.34275 2.16042 7.17046C2.30138 7.08715 2.45211 7.03035 2.60563 7.00384C2.68239 6.99059 2.76055 6.9868 2.83731 6.9868L3.11644 6.99627L7.67462 7.16856V5.79588L7.67601 5.79399Z" fill="white"/>
<path d="M7.67322 7.16628L12.2314 6.99398L12.5105 6.98451C12.5887 6.98451 12.6654 6.98641 12.7422 7.00155C12.8957 7.02806 13.0465 7.08297 13.1874 7.16817C13.4679 7.33857 13.7066 7.63393 13.8392 7.99556C13.9732 8.35909 13.9927 8.79077 13.8797 9.15808C13.7666 9.53296 13.5238 9.84915 13.2279 10.0233C13.0799 10.1104 12.9195 10.1653 12.7562 10.1843C12.5998 10.1994 12.3654 10.2089 12.2174 10.2051C11.8923 10.1881 11.5727 9.98737 11.3633 9.65603C11.1581 9.33227 11.0632 8.84 11.1972 8.46701C11.3298 8.08076 11.6592 7.82706 12.0011 7.82516L12.5677 7.80434C12.7338 7.80244 12.9027 7.87628 13.0339 8.01828C13.1651 8.15839 13.2544 8.36666 13.2628 8.59386C13.2753 8.8097 13.1804 9.03123 13.0465 9.18269C12.9125 9.34363 12.7422 9.42694 12.5566 9.46102C12.3751 9.49699 12.1825 9.50078 12.0151 9.4099C11.8378 9.33416 11.7708 9.04448 11.8141 8.80781C11.8713 8.56168 12.0988 8.48973 12.2802 8.49352C12.1016 8.47837 11.8643 8.52192 11.7848 8.79456C11.7234 9.04259 11.789 9.37771 11.9886 9.48752C12.1728 9.60302 12.3751 9.6087 12.5677 9.58787C12.759 9.56705 12.9655 9.48752 13.1246 9.31523C13.2837 9.1524 13.4219 8.89301 13.4191 8.58629C13.4191 8.29471 13.3144 8.01071 13.1553 7.81948C12.9962 7.62636 12.7869 7.51655 12.5733 7.5014L11.9997 7.47868C11.5866 7.45217 11.133 7.72292 10.9139 8.26821C10.6906 8.82864 10.8037 9.50646 11.0646 9.97412C11.3312 10.4493 11.7485 10.7428 12.1798 10.8015C12.4114 10.8223 12.5566 10.8261 12.7799 10.8261C12.9948 10.8167 13.2097 10.7636 13.4149 10.6595C13.8238 10.455 14.1951 10.0461 14.396 9.47806C14.6012 8.90816 14.5984 8.21519 14.4156 7.6434C14.2341 7.06403 13.8936 6.60206 13.4945 6.31995C13.2935 6.17984 13.0772 6.08139 12.8566 6.02648C12.7464 5.99808 12.6333 5.98293 12.5217 5.97725L12.2314 5.964L7.67322 5.7917V7.16438V7.16628Z" fill="white"/>
<path d="M2.61965 4.28273L12.7353 4.28273V-3.09944e-05L2.61965 -3.09944e-05V4.28273Z" fill="#FBF0E1"/>
<path d="M2.61965 3.3815L12.7353 3.3815V-2.55108e-05L2.61965 -2.55108e-05V3.3815Z" fill="#D5BF9B"/>
<path d="M2.61965 6.08527L12.7353 6.08527V4.67661L2.61965 4.67661V6.08527Z" fill="#FBF0E1"/>
<path d="M2.61965 5.18404L12.7353 5.18404V4.67662L2.61965 4.67662V5.18404Z" fill="#D5BF9B"/>
<path d="M2.61125 2.63933H12.7339L13.8239 0H1.52264L2.61125 2.63933Z" fill="white"/>
<path d="M2.61965 4.67651L12.7353 4.67651V3.94379L2.61965 3.94379V4.67651Z" fill="white"/>
<path d="M3.5938 16.0159H12.0654V15.5084L3.5938 15.5084V16.0159Z" fill="#D5BF9B"/>
<path d="M3.5938 15.5084L12.0654 15.5084V14.7757L3.5938 14.7757V15.5084Z" fill="white"/>
<path d="M3.5938 16.7505H12.0654V16.0178H3.5938V16.7505Z" fill="white"/>
<path d="M4.19533 49.9296H11.3676V49.1231H4.19533V49.9296Z" fill="#D5BF9B"/>
<path d="M3.5938 49.5263H12.0654V48.7935H3.5938V49.5263Z" fill="white"/>
<path d="M1.67477 56.8498H13.983V56.1171H1.67477V56.8498Z" fill="#D5BF9B"/>
<path d="M1.67477 58.141H13.983V56.8497H1.67477V58.141Z" fill="#FFFAEB"/>
<path d="M1.67477 56.4825H13.983V55.7498H1.67477V56.4825Z" fill="white"/>
<path d="M2.28882e-05 59.2392H15.6578V58.5064H2.28882e-05V59.2392Z" fill="#D5BF9B"/>
<path d="M2.28882e-05 61.0019H15.6578V59.2411H2.28882e-05V61.0019Z" fill="#FFFAEB"/>
<path d="M2.28882e-05 58.8738H15.6578V58.1411H2.28882e-05V58.8738Z" fill="white"/>
<path d="M11.274 12.7082H11.4597C11.6439 12.7082 11.7932 12.5056 11.7932 12.2557V11.6952C11.7932 11.4453 11.6439 11.2427 11.4597 11.2427H11.274C11.0898 11.2427 10.9405 11.4453 10.9405 11.6952V12.2557C10.9405 12.5056 11.0898 12.7082 11.274 12.7082Z" fill="#FBF0E1"/>
<path d="M9.44432 12.7082H9.62994C9.81416 12.7082 9.9635 12.5056 9.9635 12.2557V11.6952C9.9635 11.4453 9.81416 11.2427 9.62994 11.2427H9.44432C9.2601 11.2427 9.11076 11.4453 9.11076 11.6952V12.2557C9.11076 12.5056 9.2601 12.7082 9.44432 12.7082Z" fill="#FBF0E1"/>
<path d="M7.61327 12.7082H7.79889C7.98311 12.7082 8.13245 12.5056 8.13245 12.2557V11.6952C8.13245 11.4453 7.98311 11.2427 7.79889 11.2427H7.61327C7.42905 11.2427 7.27971 11.4453 7.27971 11.6952V12.2557C7.27971 12.5056 7.42905 12.7082 7.61327 12.7082Z" fill="#FBF0E1"/>
<path d="M5.86729 12.7082H6.05292C6.23714 12.7082 6.38647 12.5056 6.38647 12.2557V11.6952C6.38647 11.4453 6.23714 11.2427 6.05292 11.2427H5.86729C5.68307 11.2427 5.53373 11.4453 5.53373 11.6952V12.2557C5.53373 12.5056 5.68307 12.7082 5.86729 12.7082Z" fill="#FBF0E1"/>
<path d="M4.12273 12.7082H4.30835C4.49257 12.7082 4.64191 12.5056 4.64191 12.2557V11.6952C4.64191 11.4453 4.49257 11.2427 4.30835 11.2427H4.12273C3.93851 11.2427 3.78917 11.4453 3.78917 11.6952V12.2557C3.78917 12.5056 3.93851 12.7082 4.12273 12.7082Z" fill="#FBF0E1"/>
<path d="M7.85328 48.0059H7.71232C7.57276 48.0059 7.45971 47.8526 7.45971 47.6632L7.45971 17.9225C7.45971 17.7331 7.57276 17.5798 7.71232 17.5798H7.85328C7.99285 17.5798 8.1059 17.7331 8.1059 17.9225L8.1059 47.6632C8.1059 47.8526 7.99285 48.0059 7.85328 48.0059Z" fill="#EBD1AD"/>
<path d="M10.5637 48.0059H10.4227C10.2831 48.0059 10.1701 47.8526 10.1701 47.6632L10.1701 17.9225C10.1701 17.7331 10.2831 17.5798 10.4227 17.5798H10.5637C10.7032 17.5798 10.8163 17.7331 10.8163 17.9225L10.8163 47.6632C10.8163 47.8526 10.7032 48.0059 10.5637 48.0059Z" fill="#EBD1AD"/>
<path d="M5.14296 48.0059H5.002C4.86243 48.0059 4.74939 47.8526 4.74939 47.6632L4.74939 17.9225C4.74939 17.7331 4.86243 17.5798 5.002 17.5798H5.14296C5.28252 17.5798 5.39557 17.7331 5.39557 17.9225L5.39557 47.6632C5.39557 47.8526 5.28252 48.0059 5.14296 48.0059Z" fill="#EBD1AD"/>
<path d="M2.0921 55.7517H13.5224L11.3676 49.9296H4.19534L2.0921 55.7517Z" fill="#FFFAEB"/>
<path d="M15.035 41.8133C14.3322 41.6268 14.0858 41.3669 13.8785 40.6568C13.736 41.371 13.4985 41.6373 12.7219 41.8133C13.4968 42.0125 13.7191 42.2901 13.8785 42.9699C14.113 42.3176 14.2506 41.9575 15.035 41.8133Z" fill="white"/>
<path d="M15.035 41.8133C14.3322 41.6268 14.0858 41.3669 13.8785 40.6568C13.736 41.371 13.4985 41.6373 12.7219 41.8133C13.4968 42.0125 13.7191 42.2901 13.8785 42.9699C14.113 42.3176 14.2506 41.9575 15.035 41.8133Z" fill="white"/>
</g>
<g clip-path="url(#clip1_5606_897)">
<path d="M54.7425 13.3425L63.7794 13.3425V10.3037L54.7425 10.3037V13.3425Z" fill="#D5BF9B"/>
<path d="M55.6497 14.9556L62.822 14.9556V13.3425L55.6497 13.3425V14.9556Z" fill="#FBF0E1"/>
<path d="M55.6497 49.9296H62.822V13.3444H55.6497V49.9296Z" fill="#FFFAEB"/>
<path d="M55.6497 14.149L62.822 14.149V13.3424L55.6497 13.3424V14.149Z" fill="#D5BF9B"/>
<path d="M55.6497 17.1538H62.822V16.3472H55.6497V17.1538Z" fill="#D5BF9B"/>
<path d="M54.7425 10.8754L63.7794 10.8754V10.3055L54.7425 10.3055V10.8754Z" fill="#FBF0E1"/>
<path d="M54.7425 13.6303L63.7794 13.6303V13.0604L54.7425 13.0604V13.6303Z" fill="#FBF0E1"/>
<path d="M63.129 10.3055H55.1347C55.1347 10.3055 53.0496 11.0837 52.617 9.15437C52.1843 7.22315 53.707 6.48096 54.7732 6.48096C55.8395 6.48096 63.563 6.10986 64.5874 6.63053C65.6132 7.14931 66.018 8.3781 65.6411 9.15437C65.2629 9.93065 65.2113 10.6407 63.129 10.3055Z" fill="#D5BF9B"/>
<path d="M59.1304 5.79399L54.5722 5.96629L54.2819 5.97954C54.1689 5.98711 54.0572 6.00037 53.947 6.02877C53.7251 6.08557 53.5102 6.18213 53.3092 6.32224C52.9086 6.60435 52.5681 7.06632 52.3867 7.64569C52.2024 8.21748 52.1996 8.90855 52.4062 9.48035C52.6086 10.0484 52.9798 10.4573 53.3873 10.6618C53.5925 10.7659 53.8074 10.8208 54.0224 10.8284C54.2457 10.8284 54.3908 10.8265 54.6225 10.8038C55.0551 10.7451 55.471 10.4516 55.7376 9.9764C55.9986 9.50875 56.1116 8.83093 55.8883 8.2705C55.6706 7.72521 55.2156 7.45446 54.8025 7.48097L54.2289 7.50369C54.0168 7.51694 53.806 7.62865 53.6469 7.82177C53.4864 8.01111 53.3818 8.29511 53.3831 8.58858C53.3804 8.89719 53.5185 9.15469 53.6776 9.31752C53.8367 9.48981 54.0433 9.57123 54.2345 9.59016C54.4271 9.61288 54.6295 9.60531 54.8137 9.48981C55.0147 9.38 55.0789 9.04298 55.0175 8.79685C54.9365 8.5261 54.7006 8.48066 54.522 8.4958C54.702 8.49202 54.9295 8.56396 54.9881 8.8101C55.0314 9.04488 54.9644 9.33645 54.7872 9.41219C54.6197 9.50307 54.4271 9.49739 54.2457 9.46331C54.0614 9.42923 53.8898 9.34592 53.7558 9.18498C53.6218 9.03162 53.5269 8.81199 53.5395 8.59615C53.5478 8.36895 53.6372 8.16068 53.7683 8.02057C53.8981 7.87857 54.067 7.80473 54.2345 7.80662L54.8011 7.82745C55.1431 7.83124 55.4724 8.08305 55.605 8.4693C55.739 8.84229 55.6441 9.33645 55.4389 9.65832C55.2296 9.98966 54.9086 10.1904 54.5848 10.2074C54.4369 10.2112 54.2024 10.2017 54.0461 10.1866C53.8814 10.1676 53.7209 10.1127 53.5744 10.0256C53.2785 9.85144 53.0342 9.53525 52.9226 9.16037C52.8081 8.79306 52.8291 8.35948 52.9631 7.99785C53.0956 7.63622 53.3329 7.34275 53.6148 7.17046C53.7558 7.08715 53.9065 7.03035 54.06 7.00384C54.1368 6.99059 54.215 6.9868 54.2917 6.9868L54.5708 6.99627L59.129 7.16856V5.79588L59.1304 5.79399Z" fill="white"/>
<path d="M59.1276 7.16628L63.6858 6.99398L63.9649 6.98451C64.0431 6.98451 64.1199 6.98641 64.1966 7.00155C64.3501 7.02806 64.5009 7.08297 64.6418 7.16817C64.9223 7.33857 65.161 7.63393 65.2936 7.99556C65.4276 8.35909 65.4471 8.79077 65.3341 9.15808C65.221 9.53296 64.9782 9.84915 64.6823 10.0233C64.5344 10.1104 64.3739 10.1653 64.2106 10.1843C64.0543 10.1994 63.8198 10.2089 63.6718 10.2051C63.3467 10.1881 63.0271 9.98737 62.8177 9.65603C62.6126 9.33227 62.5176 8.84 62.6516 8.46701C62.7842 8.08076 63.1136 7.82706 63.4555 7.82516L64.0222 7.80434C64.1882 7.80244 64.3571 7.87628 64.4883 8.01828C64.6195 8.15839 64.7088 8.36666 64.7172 8.59386C64.7297 8.8097 64.6348 9.03123 64.5009 9.18269C64.3669 9.34363 64.1966 9.42694 64.011 9.46102C63.8296 9.49699 63.637 9.50078 63.4695 9.4099C63.2922 9.33416 63.2252 9.04448 63.2685 8.80781C63.3257 8.56168 63.5532 8.48973 63.7347 8.49352C63.556 8.47837 63.3187 8.52192 63.2392 8.79456C63.1778 9.04259 63.2434 9.37771 63.443 9.48752C63.6272 9.60302 63.8296 9.6087 64.0222 9.58787C64.2134 9.56705 64.4199 9.48752 64.579 9.31523C64.7381 9.1524 64.8763 8.89301 64.8735 8.58629C64.8735 8.29471 64.7688 8.01071 64.6097 7.81948C64.4506 7.62636 64.2413 7.51655 64.0277 7.5014L63.4541 7.47868C63.041 7.45217 62.5874 7.72292 62.3683 8.26821C62.145 8.82864 62.2581 9.50646 62.519 9.97412C62.7856 10.4493 63.2029 10.7428 63.6342 10.8015C63.8658 10.8223 64.011 10.8261 64.2343 10.8261C64.4492 10.8167 64.6642 10.7636 64.8693 10.6595C65.2782 10.455 65.6495 10.0461 65.8505 9.47806C66.0556 8.90816 66.0528 8.21519 65.87 7.6434C65.6886 7.06403 65.348 6.60206 64.9489 6.31995C64.7479 6.17984 64.5316 6.08139 64.3111 6.02648C64.2008 5.99808 64.0878 5.98293 63.9761 5.97725L63.6858 5.964L59.1276 5.7917V7.16438V7.16628Z" fill="white"/>
<path d="M54.0741 4.28273L64.1897 4.28273V-3.09944e-05L54.0741 -3.09944e-05V4.28273Z" fill="#FBF0E1"/>
<path d="M54.0741 3.3815L64.1897 3.3815V-2.55108e-05L54.0741 -2.55108e-05V3.3815Z" fill="#D5BF9B"/>
<path d="M54.0741 6.08527L64.1897 6.08527V4.67661L54.0741 4.67661V6.08527Z" fill="#FBF0E1"/>
<path d="M54.0741 5.18404L64.1897 5.18404V4.67662L54.0741 4.67662V5.18404Z" fill="#D5BF9B"/>
<path d="M54.0657 2.63933H64.1883L65.2783 0H52.9771L54.0657 2.63933Z" fill="white"/>
<path d="M54.0741 4.67651L64.1897 4.67651V3.94379L54.0741 3.94379V4.67651Z" fill="white"/>
<path d="M55.0482 16.0159H63.5198V15.5084L55.0482 15.5084V16.0159Z" fill="#D5BF9B"/>
<path d="M55.0482 15.5084L63.5198 15.5084V14.7757L55.0482 14.7757V15.5084Z" fill="white"/>
<path d="M55.0482 16.7505H63.5198V16.0178H55.0482V16.7505Z" fill="white"/>
<path d="M55.6497 49.9296H62.822V49.1231H55.6497V49.9296Z" fill="#D5BF9B"/>
<path d="M55.0482 49.5263H63.5198V48.7935H55.0482V49.5263Z" fill="white"/>
<path d="M53.1292 56.8498H65.4374V56.1171H53.1292V56.8498Z" fill="#D5BF9B"/>
<path d="M53.1292 58.141H65.4374V56.8497H53.1292V58.141Z" fill="#FFFAEB"/>
<path d="M53.1292 56.4825H65.4374V55.7498H53.1292V56.4825Z" fill="white"/>
<path d="M51.4544 59.2392H67.1122V58.5064H51.4544V59.2392Z" fill="#D5BF9B"/>
<path d="M51.4544 61.0019H67.1122V59.2411H51.4544V61.0019Z" fill="#FFFAEB"/>
<path d="M51.4544 58.8738H67.1122V58.1411H51.4544V58.8738Z" fill="white"/>
<path d="M62.7284 12.7082H62.9141C63.0983 12.7082 63.2476 12.5056 63.2476 12.2557V11.6952C63.2476 11.4453 63.0983 11.2427 62.9141 11.2427H62.7284C62.5442 11.2427 62.3949 11.4453 62.3949 11.6952V12.2557C62.3949 12.5056 62.5442 12.7082 62.7284 12.7082Z" fill="#FBF0E1"/>
<path d="M60.8987 12.7082H61.0843C61.2686 12.7082 61.4179 12.5056 61.4179 12.2557V11.6952C61.4179 11.4453 61.2686 11.2427 61.0843 11.2427H60.8987C60.7145 11.2427 60.5652 11.4453 60.5652 11.6952V12.2557C60.5652 12.5056 60.7145 12.7082 60.8987 12.7082Z" fill="#FBF0E1"/>
<path d="M59.0677 12.7082H59.2533C59.4375 12.7082 59.5869 12.5056 59.5869 12.2557V11.6952C59.5869 11.4453 59.4375 11.2427 59.2533 11.2427H59.0677C58.8835 11.2427 58.7341 11.4453 58.7341 11.6952V12.2557C58.7341 12.5056 58.8835 12.7082 59.0677 12.7082Z" fill="#FBF0E1"/>
<path d="M57.3217 12.7082H57.5073C57.6915 12.7082 57.8409 12.5056 57.8409 12.2557V11.6952C57.8409 11.4453 57.6915 11.2427 57.5073 11.2427H57.3217C57.1375 11.2427 56.9881 11.4453 56.9881 11.6952V12.2557C56.9881 12.5056 57.1375 12.7082 57.3217 12.7082Z" fill="#FBF0E1"/>
<path d="M55.5771 12.7082H55.7628C55.947 12.7082 56.0963 12.5056 56.0963 12.2557V11.6952C56.0963 11.4453 55.947 11.2427 55.7628 11.2427H55.5771C55.3929 11.2427 55.2436 11.4453 55.2436 11.6952V12.2557C55.2436 12.5056 55.3929 12.7082 55.5771 12.7082Z" fill="#FBF0E1"/>
<path d="M59.3077 48.0059H59.1667C59.0272 48.0059 58.9141 47.8526 58.9141 47.6632V17.9225C58.9141 17.7331 59.0272 17.5798 59.1667 17.5798H59.3077C59.4473 17.5798 59.5603 17.7331 59.5603 17.9225V47.6632C59.5603 47.8526 59.4473 48.0059 59.3077 48.0059Z" fill="#EBD1AD"/>
<path d="M62.0181 48.0059H61.8771C61.7376 48.0059 61.6245 47.8526 61.6245 47.6632V17.9225C61.6245 17.7331 61.7376 17.5798 61.8771 17.5798H62.0181C62.1576 17.5798 62.2707 17.7331 62.2707 17.9225V47.6632C62.2707 47.8526 62.1576 48.0059 62.0181 48.0059Z" fill="#EBD1AD"/>
<path d="M56.5974 48.0059H56.4564C56.3168 48.0059 56.2038 47.8526 56.2038 47.6632V17.9225C56.2038 17.7331 56.3168 17.5798 56.4564 17.5798H56.5974C56.7369 17.5798 56.85 17.7331 56.85 17.9225V47.6632C56.85 47.8526 56.7369 48.0059 56.5974 48.0059Z" fill="#EBD1AD"/>
<path d="M53.5465 55.7517H64.9769L62.822 49.9296H55.6497L53.5465 55.7517Z" fill="#FFFAEB"/>
<path d="M66.4894 41.8133C65.7866 41.6268 65.5402 41.3669 65.3329 40.6568C65.1904 41.371 64.9529 41.6373 64.1763 41.8133C64.9512 42.0125 65.1736 42.2901 65.3329 42.9699C65.5674 42.3176 65.705 41.9575 66.4894 41.8133Z" fill="white"/>
<path d="M66.4894 41.8133C65.7866 41.6268 65.5402 41.3669 65.3329 40.6568C65.1904 41.371 64.9529 41.6373 64.1763 41.8133C64.9512 42.0125 65.1736 42.2901 65.3329 42.9699C65.5674 42.3176 65.705 41.9575 66.4894 41.8133Z" fill="white"/>
</g>
<defs>
<clipPath id="clip0_5606_897">
<rect width="15.6578" height="61" fill="white"/>
</clipPath>
<clipPath id="clip1_5606_897">
<rect width="15.6578" height="61" fill="white" transform="translate(51.4544)"/>
</clipPath>
</defs>
</svg>
