<svg width="171" height="43" viewBox="0 0 171 43" fill="none" xmlns="http://www.w3.org/2000/svg">
<rect width="171" height="42.6444" rx="16.8889" fill="#FFB23E"/>
<path d="M69.718 1.89746H92.0545L49.5432 40.3197H25.7656L69.718 1.89746Z" fill="#F5EA83"/>
<path d="M104.765 1.89746H127.101L84.59 40.3197H60.8125L104.765 1.89746Z" fill="#F5EA83"/>
<path d="M60.4367 27.0889V16.4489H65.8783C67.2767 16.4489 68.3204 16.7073 69.0095 17.2241C69.6986 17.7307 70.0431 18.3995 70.0431 19.2305C70.0431 19.7777 69.8962 20.259 69.6023 20.6745C69.3186 21.0798 68.9132 21.4041 68.3863 21.6473C67.8695 21.8803 67.2514 21.9969 66.5319 21.9969L66.8359 21.2673C67.5858 21.2673 68.2394 21.3838 68.7967 21.6169C69.354 21.8398 69.7847 22.1691 70.0887 22.6049C70.4028 23.0305 70.5599 23.5523 70.5599 24.1705C70.5599 25.0926 70.185 25.8121 69.4351 26.3289C68.6954 26.8355 67.6111 27.0889 66.1823 27.0889H60.4367ZM63.4159 24.9153H65.9391C66.4559 24.9153 66.846 24.8291 67.1095 24.6569C67.3831 24.4745 67.5199 24.2009 67.5199 23.8361C67.5199 23.4713 67.3831 23.2027 67.1095 23.0305C66.846 22.8481 66.4559 22.7569 65.9391 22.7569H63.2031V20.6745H65.4831C65.9898 20.6745 66.3698 20.5883 66.6231 20.4161C66.8764 20.2438 67.0031 19.9854 67.0031 19.6409C67.0031 19.2963 66.8764 19.043 66.6231 18.8809C66.3698 18.7086 65.9898 18.6225 65.4831 18.6225H63.4159V24.9153ZM74.8851 20.5681H79.8251V22.8177H74.8851V20.5681ZM75.0979 24.7633H80.6611V27.0889H72.1187V16.4489H80.4635V18.7745H75.0979V24.7633ZM87.6512 27.3017C86.8102 27.3017 86.0299 27.1699 85.3104 26.9065C84.591 26.6329 83.9678 26.2478 83.4408 25.7513C82.924 25.2547 82.5187 24.6721 82.2248 24.0033C81.931 23.3243 81.784 22.5795 81.784 21.7689C81.784 20.9582 81.931 20.2185 82.2248 19.5497C82.5187 18.8707 82.9291 18.283 83.456 17.7865C83.983 17.2899 84.6062 16.9099 85.3256 16.6465C86.0552 16.3729 86.8507 16.2361 87.712 16.2361C88.7152 16.2361 89.612 16.4033 90.4024 16.7377C91.1928 17.0721 91.8464 17.5534 92.3632 18.1817L90.448 19.9145C90.0832 19.5193 89.688 19.2254 89.2624 19.0329C88.847 18.8302 88.3808 18.7289 87.864 18.7289C87.408 18.7289 86.9926 18.7998 86.6176 18.9417C86.2427 19.0835 85.9235 19.2913 85.66 19.5649C85.3966 19.8283 85.1888 20.1475 85.0368 20.5225C84.895 20.8873 84.824 21.3027 84.824 21.7689C84.824 22.2147 84.895 22.6251 85.0368 23.0001C85.1888 23.375 85.3966 23.6993 85.66 23.9729C85.9235 24.2363 86.2376 24.4441 86.6024 24.5961C86.9774 24.7379 87.3878 24.8089 87.8336 24.8089C88.2795 24.8089 88.7152 24.7379 89.1408 24.5961C89.5664 24.4441 89.9971 24.1907 90.4328 23.8361L92.12 25.9489C91.512 26.3846 90.8078 26.719 90.0072 26.9521C89.2067 27.1851 88.4214 27.3017 87.6512 27.3017ZM89.46 25.5537V21.5409H92.12V25.9489L89.46 25.5537ZM94.0281 27.0889V16.4489H97.0377V27.0889H94.0281ZM99.1789 27.0889V16.4489H101.656L107.524 23.5321H106.353V16.4489H109.302V27.0889H106.824L100.957 20.0057H102.128V27.0889H99.1789Z" fill="#A61E00"/>
</svg>
