<svg width="400" height="43" viewBox="0 0 400 43" fill="none" xmlns="http://www.w3.org/2000/svg">
<rect width="400" height="42.6444" rx="16.8889" fill="#FFB23E"/>
<path d="M163.083 1.89746H215.332L115.89 40.3197H60.2705L163.083 1.89746Z" fill="#F5EA83"/>
<path d="M245.064 1.89746H297.313L197.871 40.3197H142.251L245.064 1.89746Z" fill="#F5EA83"/>
<path d="M166.374 29.0889V15.0889H173.534C175.374 15.0889 176.747 15.4289 177.654 16.1089C178.56 16.7755 179.014 17.6555 179.014 18.7489C179.014 19.4689 178.82 20.1022 178.434 20.6489C178.06 21.1822 177.527 21.6089 176.834 21.9289C176.154 22.2355 175.34 22.3889 174.394 22.3889L174.794 21.4289C175.78 21.4289 176.64 21.5822 177.374 21.8889C178.107 22.1822 178.674 22.6155 179.074 23.1889C179.487 23.7489 179.694 24.4355 179.694 25.2489C179.694 26.4622 179.2 27.4089 178.214 28.0889C177.24 28.7555 175.814 29.0889 173.934 29.0889H166.374ZM170.294 26.2289H173.614C174.294 26.2289 174.807 26.1155 175.154 25.8889C175.514 25.6489 175.694 25.2889 175.694 24.8089C175.694 24.3289 175.514 23.9755 175.154 23.7489C174.807 23.5089 174.294 23.3889 173.614 23.3889H170.014V20.6489H173.014C173.68 20.6489 174.18 20.5355 174.514 20.3089C174.847 20.0822 175.014 19.7422 175.014 19.2889C175.014 18.8355 174.847 18.5022 174.514 18.2889C174.18 18.0622 173.68 17.9489 173.014 17.9489H170.294V26.2289ZM185.385 20.5089H191.885V23.4689H185.385V20.5089ZM185.665 26.0289H192.985V29.0889H181.745V15.0889H192.725V18.1489H185.665V26.0289ZM202.182 29.3689C201.076 29.3689 200.049 29.1955 199.102 28.8489C198.156 28.4889 197.336 27.9822 196.642 27.3289C195.962 26.6755 195.429 25.9089 195.042 25.0289C194.656 24.1355 194.462 23.1555 194.462 22.0889C194.462 21.0222 194.656 20.0489 195.042 19.1689C195.429 18.2755 195.969 17.5022 196.662 16.8489C197.356 16.1955 198.176 15.6955 199.122 15.3489C200.082 14.9889 201.129 14.8089 202.262 14.8089C203.582 14.8089 204.762 15.0289 205.802 15.4689C206.842 15.9089 207.702 16.5422 208.382 17.3689L205.862 19.6489C205.382 19.1289 204.862 18.7422 204.302 18.4889C203.756 18.2222 203.142 18.0889 202.462 18.0889C201.862 18.0889 201.316 18.1822 200.822 18.3689C200.329 18.5555 199.909 18.8289 199.562 19.1889C199.216 19.5355 198.942 19.9555 198.742 20.4489C198.556 20.9289 198.462 21.4755 198.462 22.0889C198.462 22.6755 198.556 23.2155 198.742 23.7089C198.942 24.2022 199.216 24.6289 199.562 24.9889C199.909 25.3355 200.322 25.6089 200.802 25.8089C201.296 25.9955 201.836 26.0889 202.422 26.0889C203.009 26.0889 203.582 25.9955 204.142 25.8089C204.702 25.6089 205.269 25.2755 205.842 24.8089L208.062 27.5889C207.262 28.1622 206.336 28.6022 205.282 28.9089C204.229 29.2155 203.196 29.3689 202.182 29.3689ZM204.562 27.0689V21.7889H208.062V27.5889L204.562 27.0689ZM210.573 29.0889V15.0889H214.533V29.0889H210.573ZM217.35 29.0889V15.0889H220.61L228.33 24.4089H226.79V15.0889H230.67V29.0889H227.41L219.69 19.7689H221.23V29.0889H217.35Z" fill="#A61E00"/>
</svg>
