<svg width="179" height="51" viewBox="0 0 179 51" fill="none" xmlns="http://www.w3.org/2000/svg">
<g filter="url(#filter0_d_2284_21877)">
<rect x="5.05556" y="1.05556" width="168.889" height="40.5333" rx="15.8333" stroke="white" stroke-width="2.11111"/>
<path d="M64.4367 27.0889V16.4489H69.8783C71.2767 16.4489 72.3204 16.7073 73.0095 17.2241C73.6986 17.7307 74.0431 18.3995 74.0431 19.2305C74.0431 19.7777 73.8962 20.259 73.6023 20.6745C73.3186 21.0798 72.9132 21.4041 72.3863 21.6473C71.8695 21.8803 71.2514 21.9969 70.5319 21.9969L70.8359 21.2673C71.5858 21.2673 72.2394 21.3838 72.7967 21.6169C73.354 21.8398 73.7847 22.1691 74.0887 22.6049C74.4028 23.0305 74.5599 23.5523 74.5599 24.1705C74.5599 25.0926 74.185 25.8121 73.4351 26.3289C72.6954 26.8355 71.6111 27.0889 70.1823 27.0889H64.4367ZM67.4159 24.9153H69.9391C70.4559 24.9153 70.846 24.8291 71.1095 24.6569C71.3831 24.4745 71.5199 24.2009 71.5199 23.8361C71.5199 23.4713 71.3831 23.2027 71.1095 23.0305C70.846 22.8481 70.4559 22.7569 69.9391 22.7569H67.2031V20.6745H69.4831C69.9898 20.6745 70.3698 20.5883 70.6231 20.4161C70.8764 20.2438 71.0031 19.9854 71.0031 19.6409C71.0031 19.2963 70.8764 19.043 70.6231 18.8809C70.3698 18.7086 69.9898 18.6225 69.4831 18.6225H67.4159V24.9153ZM78.8851 20.5681H83.8251V22.8177H78.8851V20.5681ZM79.0979 24.7633H84.6611V27.0889H76.1187V16.4489H84.4635V18.7745H79.0979V24.7633ZM91.6512 27.3017C90.8102 27.3017 90.0299 27.1699 89.3104 26.9065C88.591 26.6329 87.9678 26.2478 87.4408 25.7513C86.924 25.2547 86.5187 24.6721 86.2248 24.0033C85.931 23.3243 85.784 22.5795 85.784 21.7689C85.784 20.9582 85.931 20.2185 86.2248 19.5497C86.5187 18.8707 86.9291 18.283 87.456 17.7865C87.983 17.2899 88.6062 16.9099 89.3256 16.6465C90.0552 16.3729 90.8507 16.2361 91.712 16.2361C92.7152 16.2361 93.612 16.4033 94.4024 16.7377C95.1928 17.0721 95.8464 17.5534 96.3632 18.1817L94.448 19.9145C94.0832 19.5193 93.688 19.2254 93.2624 19.0329C92.847 18.8302 92.3808 18.7289 91.864 18.7289C91.408 18.7289 90.9926 18.7998 90.6176 18.9417C90.2427 19.0835 89.9235 19.2913 89.66 19.5649C89.3966 19.8283 89.1888 20.1475 89.0368 20.5225C88.895 20.8873 88.824 21.3027 88.824 21.7689C88.824 22.2147 88.895 22.6251 89.0368 23.0001C89.1888 23.375 89.3966 23.6993 89.66 23.9729C89.9235 24.2363 90.2376 24.4441 90.6024 24.5961C90.9774 24.7379 91.3878 24.8089 91.8336 24.8089C92.2795 24.8089 92.7152 24.7379 93.1408 24.5961C93.5664 24.4441 93.9971 24.1907 94.4328 23.8361L96.12 25.9489C95.512 26.3846 94.8078 26.719 94.0072 26.9521C93.2067 27.1851 92.4214 27.3017 91.6512 27.3017ZM93.46 25.5537V21.5409H96.12V25.9489L93.46 25.5537ZM98.0281 27.0889V16.4489H101.038V27.0889H98.0281ZM103.179 27.0889V16.4489H105.656L111.524 23.5321H110.353V16.4489H113.302V27.0889H110.824L104.957 20.0057H106.128V27.0889H103.179Z" fill="white"/>
</g>
<defs>
<filter id="filter0_d_2284_21877" x="0" y="0" width="179" height="50.6445" filterUnits="userSpaceOnUse" color-interpolation-filters="sRGB">
<feFlood flood-opacity="0" result="BackgroundImageFix"/>
<feColorMatrix in="SourceAlpha" type="matrix" values="0 0 0 0 0 0 0 0 0 0 0 0 0 0 0 0 0 0 127 0" result="hardAlpha"/>
<feOffset dy="4"/>
<feGaussianBlur stdDeviation="2"/>
<feComposite in2="hardAlpha" operator="out"/>
<feColorMatrix type="matrix" values="0 0 0 0 0 0 0 0 0 0 0 0 0 0 0 0 0 0 0.25 0"/>
<feBlend mode="normal" in2="BackgroundImageFix" result="effect1_dropShadow_2284_21877"/>
<feBlend mode="normal" in="SourceGraphic" in2="effect1_dropShadow_2284_21877" result="shape"/>
</filter>
</defs>
</svg>
