<svg width="92" height="114" viewBox="0 0 92 114" fill="none" xmlns="http://www.w3.org/2000/svg">
<path d="M80.659 75.8685C80.659 91.4331 62.7535 104.051 40.6656 104.051C18.5777 104.051 0.671875 91.4331 0.671875 75.8685C0.671875 60.304 18.5777 47.6865 40.6656 47.6865C62.7535 47.6865 80.659 60.304 80.659 75.8685Z" fill="#191824"/>
<path d="M36.8947 47.8661L9.21777 58.5798L16.0884 50.9909V43.0758L24.7781 46.9095L36.8947 47.8661Z" fill="#191824"/>
<path d="M41.168 48.2485L72.2149 58.5821L65.3442 50.9933V43.0782L56.6545 46.9119L41.168 48.2485Z" fill="#191824"/>
<path d="M74.235 72.1C74.235 85.2048 59.1585 95.8284 40.5611 95.8284C21.9638 95.8284 6.8877 85.2048 6.8877 72.1C6.8877 58.9951 21.9638 48.3716 40.5611 48.3716C59.1585 48.3716 74.235 58.9951 74.235 72.1Z" fill="#1F1E2E"/>
<path d="M37.3862 48.5228L14.083 57.5434L19.8679 51.1538V44.4896L27.1843 47.7174L37.3862 48.5228Z" fill="#1F1E2E"/>
<path d="M40.9854 48.8448L67.1257 57.5454L61.3409 51.1558V44.4916L54.0244 47.7194L40.9854 48.8448Z" fill="#1F1E2E"/>
<path d="M40.5794 48.6002C57.5456 48.6002 71.2994 44.0156 71.2994 38.3602C71.2994 32.7048 57.5456 28.1202 40.5794 28.1202C23.6132 28.1202 9.85938 32.7048 9.85938 38.3602C9.85938 44.0156 23.6132 48.6002 40.5794 48.6002Z" fill="#27233C"/>
<path d="M40.5783 47.3204C56.4841 47.3204 69.3783 42.9507 69.3783 37.5604C69.3783 32.1701 56.4841 27.8004 40.5783 27.8004C24.6725 27.8004 11.7783 32.1701 11.7783 37.5604C11.7783 42.9507 24.6725 47.3204 40.5783 47.3204Z" fill="#383450"/>
<path d="M40.5792 44.4402C54.8944 44.4402 66.4992 41.6465 66.4992 38.2002C66.4992 34.7539 54.8944 31.9602 40.5792 31.9602C26.264 31.9602 14.6592 34.7539 14.6592 38.2002C14.6592 41.6465 26.264 44.4402 40.5792 44.4402Z" fill="#151420"/>
<path d="M40.0992 40.2802C45.843 40.2802 50.4992 36.9134 50.4992 32.7602C50.4992 28.607 45.843 25.2402 40.0992 25.2402C34.3555 25.2402 29.6992 28.607 29.6992 32.7602C29.6992 36.9134 34.3555 40.2802 40.0992 40.2802Z" fill="#5FD35F"/>
<path d="M53.5392 41.8802C56.8087 41.8802 59.4592 39.3014 59.4592 36.1202C59.4592 32.9391 56.8087 30.3602 53.5392 30.3602C50.2696 30.3602 47.6191 32.9391 47.6191 36.1202C47.6191 39.3014 50.2696 41.8802 53.5392 41.8802Z" fill="#5FD35F"/>
<path d="M31.9396 38.4347C31.9396 41.4802 29.2891 41.2356 26.0196 41.2356C22.7501 41.2356 20.0996 41.4802 20.0996 38.4347C20.0996 35.3892 22.7501 32.9203 26.0196 32.9203C29.2891 32.9203 31.9396 35.3892 31.9396 38.4347Z" fill="#5FD35F"/>
<path d="M63.6191 40.55C63.6191 42.0512 53.3836 44.4404 41.0271 44.4404C28.6706 44.4404 17.5391 42.1885 17.5391 40.6873C17.5391 39.1861 28.4726 37.4004 40.8291 37.4004C53.1856 37.4004 63.6191 39.0488 63.6191 40.55Z" fill="#5FD35F"/>
<path d="M22.9805 105.347L34.2768 101.08L45.3805 103.436L24.2641 113.88L25.2911 112.989L25.8045 112.033L26.1896 110.823L26.318 109.677L26.0613 108.212L25.3553 106.557L24.3283 105.665L22.9805 105.347Z" fill="#5F402C"/>
<path d="M5.63594 96.835L17.6668 95.8484L27.6704 101.196L4.49414 105.42L5.72804 104.845L6.48664 104.066L7.19294 103.005L7.63504 101.935L7.79614 100.452L7.57894 98.6595L6.84124 97.5153L5.63594 96.835Z" fill="#5F402C"/>
<path d="M3.50402 105.349C5.09846 105.809 6.93101 104.31 7.59714 102.001C8.26327 99.6916 7.51073 97.4468 5.91629 96.9869C4.32184 96.5269 2.48929 98.026 1.82316 100.335C1.15703 102.644 1.90957 104.889 3.50402 105.349Z" fill="#3E2318"/>
<path d="M66.1003 102.065L54.3879 99.1431L43.6504 102.8L65.8368 110.721L64.7124 109.954L64.0899 109.062L63.5646 107.901L63.3016 106.774L63.3829 105.284L63.8874 103.55L64.8007 102.541L66.1003 102.065Z" fill="#5F402C"/>
<path d="M66.8258 110.813C65.178 111.009 63.6123 109.232 63.3289 106.846C63.0455 104.459 64.1516 102.366 65.7995 102.17C67.4473 101.975 69.013 103.751 69.2964 106.137C69.5798 108.524 68.4737 110.617 66.8258 110.813Z" fill="#3E2318"/>
<path d="M82.1649 94.1414L70.1339 93.1548L60.1299 98.5019L83.3059 102.726L82.0719 102.151L81.3139 101.372L80.6069 100.312L80.1649 99.2418L80.0039 97.7582L80.2209 95.9659L80.9589 94.8217L82.1649 94.1414Z" fill="#5F402C"/>
<path d="M84.2968 102.656C82.7023 103.116 80.8698 101.617 80.2036 99.3077C79.5375 96.9985 80.2901 94.7537 81.8845 94.2937C83.4789 93.8338 85.3115 95.3329 85.9776 97.6421C86.6438 99.9513 85.8912 102.196 84.2968 102.656Z" fill="#3E2318"/>
<path d="M23.4599 113.88C25.1389 113.88 26.4999 111.946 26.4999 109.56C26.4999 107.174 25.1389 105.24 23.4599 105.24C21.781 105.24 20.4199 107.174 20.4199 109.56C20.4199 111.946 21.781 113.88 23.4599 113.88Z" fill="#3E2318"/>
<path d="M76.1841 25.0601C78.8627 25.0601 81.0341 22.8887 81.0341 20.21C81.0341 17.5314 78.8627 15.36 76.1841 15.36C73.5054 15.36 71.334 17.5314 71.334 20.21C71.334 22.8887 73.5054 25.0601 76.1841 25.0601Z" fill="#5FD35F"/>
<path d="M79.7822 22.5865C78.9892 23.6262 77.9662 24.1789 77.4972 23.8211C77.0272 23.4632 78.3102 23.1082 79.1022 22.0685C79.8952 21.0288 79.8972 19.6981 80.3662 20.056C80.8362 20.4138 80.5742 21.5468 79.7822 22.5865Z" fill="#D3E8E8"/>
<path d="M72.5002 18.2755C73.1442 17.138 74.0832 16.4517 74.5972 16.7426C75.1102 17.0335 73.8882 17.5591 73.2442 18.6966C72.6002 19.8341 72.7782 21.1528 72.2642 20.8619C71.7502 20.5709 71.8562 19.413 72.5002 18.2755Z" fill="#D3E8E8"/>
<path d="M35.2706 27.2014C37.5239 26.0494 39.6817 25.7634 40.0902 26.5625C40.4988 27.3616 38.1153 27.2061 35.862 28.3581C33.6088 29.5101 32.3391 31.5333 31.9305 30.7342C31.522 29.9351 33.0174 28.3534 35.2706 27.2014Z" fill="#D3E8E8"/>
<path d="M22.1074 35.2154C22.9872 34.2314 24.0607 33.7558 24.5051 34.1531C24.9495 34.5504 23.6305 34.8065 22.7507 35.7906C21.8709 36.7746 21.7634 38.114 21.319 37.7167C20.8746 37.3193 21.2276 36.1995 22.1074 35.2154Z" fill="#D3E8E8"/>
<path d="M57.485 32.9541C56.6461 31.935 55.5929 31.4159 55.1326 31.7948C54.6724 32.1737 55.9799 32.4834 56.8188 33.5025C57.6577 34.5216 57.7104 35.8643 58.1707 35.4854C58.6309 35.1065 58.3239 33.9732 57.485 32.9541Z" fill="#D3E8E8"/>
<path d="M75.7562 17.3572C76.1501 17.3572 76.4695 17.0378 76.4695 16.6439C76.4695 16.25 76.1501 15.9307 75.7562 15.9307C75.3623 15.9307 75.043 16.25 75.043 16.6439C75.043 17.0378 75.3623 17.3572 75.7562 17.3572Z" fill="#D3E8E8"/>
<path d="M31.225 33.5714C31.6189 33.5714 31.9382 33.2521 31.9382 32.8581C31.9382 32.4642 31.6189 32.1449 31.225 32.1449C30.831 32.1449 30.5117 32.4642 30.5117 32.8581C30.5117 33.2521 30.831 33.5714 31.225 33.5714Z" fill="#D3E8E8"/>
<path d="M12.5532 5.38774C14.041 5.38774 15.2471 4.18165 15.2471 2.69387C15.2471 1.20609 14.041 0 12.5532 0C11.0655 0 9.85938 1.20609 9.85938 2.69387C9.85938 4.18165 11.0655 5.38774 12.5532 5.38774Z" fill="#5FD35F"/>
<path d="M14.5516 4.01376C14.1114 4.59124 13.5433 4.89825 13.2825 4.69948C13.0217 4.50071 13.7339 4.30353 14.1741 3.72604C14.6142 3.14856 14.6155 2.40947 14.8763 2.60824C15.1371 2.807 14.9917 3.43628 14.5516 4.01376Z" fill="#D3E8E8"/>
<path d="M10.5073 1.61934C10.8651 0.987539 11.3865 0.606353 11.6718 0.767941C11.9571 0.929528 11.2781 1.22143 10.9203 1.85324C10.5625 2.48504 10.6614 3.21749 10.3761 3.05591C10.0908 2.89432 10.1495 2.25115 10.5073 1.61934Z" fill="#D3E8E8"/>
<path d="M12.3161 1.10921C12.5349 1.10921 12.7122 0.931843 12.7122 0.713051C12.7122 0.49426 12.5349 0.316895 12.3161 0.316895C12.0973 0.316895 11.9199 0.49426 11.9199 0.713051C11.9199 0.931843 12.0973 1.10921 12.3161 1.10921Z" fill="#D3E8E8"/>
<path d="M46.652 21.5833C47.326 21.5833 47.8724 21.0369 47.8724 20.3629C47.8724 19.689 47.326 19.1426 46.652 19.1426C45.978 19.1426 45.4316 19.689 45.4316 20.3629C45.4316 21.0369 45.978 21.5833 46.652 21.5833Z" fill="#5FD35F"/>
<path d="M47.5572 20.9611C47.3579 21.2227 47.1004 21.3618 46.9823 21.2718C46.8642 21.1817 47.1868 21.0924 47.3862 20.8308C47.5856 20.5692 47.5862 20.2343 47.7043 20.3244C47.8225 20.4144 47.7566 20.6995 47.5572 20.9611Z" fill="#D3E8E8"/>
<path d="M45.7254 19.8765C45.8874 19.5902 46.1236 19.4176 46.2529 19.4908C46.3821 19.564 46.0745 19.6962 45.9125 19.9824C45.7504 20.2686 45.7951 20.6004 45.6658 20.5272C45.5366 20.454 45.5633 20.1627 45.7254 19.8765Z" fill="#D3E8E8"/>
<path d="M46.5437 19.6449C46.6428 19.6449 46.7232 19.5646 46.7232 19.4655C46.7232 19.3664 46.6428 19.286 46.5437 19.286C46.4446 19.286 46.3643 19.3664 46.3643 19.4655C46.3643 19.5646 46.4446 19.6449 46.5437 19.6449Z" fill="#D3E8E8"/>
<path d="M38.5026 14.7273C39.6534 14.7273 40.5863 13.7944 40.5863 12.6436C40.5863 11.4928 39.6534 10.5599 38.5026 10.5599C37.3518 10.5599 36.4189 11.4928 36.4189 12.6436C36.4189 13.7944 37.3518 14.7273 38.5026 14.7273Z" fill="#5FD35F"/>
<path d="M40.0492 13.6646C39.7088 14.1113 39.2693 14.3488 39.0676 14.195C38.8659 14.0413 39.4168 13.8888 39.7572 13.4421C40.0977 12.9954 40.0987 12.4237 40.3004 12.5775C40.5021 12.7312 40.3897 13.218 40.0492 13.6646Z" fill="#D3E8E8"/>
<path d="M36.921 11.8125C37.1977 11.3238 37.6011 11.029 37.8218 11.1539C38.0425 11.2789 37.5173 11.5047 37.2406 11.9934C36.9638 12.4821 37.0403 13.0487 36.8196 12.9237C36.5989 12.7987 36.6442 12.3012 36.921 11.8125Z" fill="#D3E8E8"/>
<path d="M38.3181 11.4179C38.4874 11.4179 38.6246 11.2807 38.6246 11.1115C38.6246 10.9422 38.4874 10.8051 38.3181 10.8051C38.1489 10.8051 38.0117 10.9422 38.0117 11.1115C38.0117 11.2807 38.1489 11.4179 38.3181 11.4179Z" fill="#D3E8E8"/>
<path d="M25.7675 21.2567C27.4842 21.2567 28.8758 19.865 28.8758 18.1483C28.8758 16.4317 27.4842 15.04 25.7675 15.04C24.0508 15.04 22.6592 16.4317 22.6592 18.1483C22.6592 19.865 24.0508 21.2567 25.7675 21.2567Z" fill="#5FD35F"/>
<path d="M28.0738 19.6713C27.566 20.3376 26.9104 20.6918 26.6094 20.4625C26.3085 20.2331 27.1304 20.0056 27.6382 19.3393C28.1461 18.673 28.1476 17.8202 28.4485 18.0495C28.7494 18.2789 28.5817 19.005 28.0738 19.6713Z" fill="#D3E8E8"/>
<path d="M23.4069 16.9085C23.8197 16.1795 24.4213 15.7397 24.7505 15.9261C25.0798 16.1125 24.2963 16.4494 23.8835 17.1784C23.4706 17.9074 23.5847 18.7525 23.2555 18.5661C22.9263 18.3796 22.9941 17.6375 23.4069 16.9085Z" fill="#D3E8E8"/>
<path d="M25.4932 16.3198C25.7457 16.3198 25.9503 16.1152 25.9503 15.8627C25.9503 15.6103 25.7457 15.4056 25.4932 15.4056C25.2408 15.4056 25.0361 15.6103 25.0361 15.8627C25.0361 16.1152 25.2408 16.3198 25.4932 16.3198Z" fill="#D3E8E8"/>
<path d="M87.8381 40.7582C89.7264 40.7582 91.2572 39.2274 91.2572 37.3391C91.2572 35.4507 89.7264 33.9199 87.8381 33.9199C85.9497 33.9199 84.4189 35.4507 84.4189 37.3391C84.4189 39.2274 85.9497 40.7582 87.8381 40.7582Z" fill="#5FD35F"/>
<path d="M90.3743 39.0143C89.8163 39.7473 89.0943 40.137 88.7633 39.8847C88.4323 39.6324 89.3363 39.3821 89.8953 38.6492C90.4543 37.9162 90.4553 36.9781 90.7863 37.2304C91.1173 37.4827 90.9333 38.2814 90.3743 39.0143Z" fill="#D3E8E8"/>
<path d="M85.2419 35.9753C85.6959 35.1734 86.3579 34.6896 86.7199 34.8946C87.0819 35.0997 86.2199 35.4702 85.7659 36.2721C85.3119 37.0741 85.4369 38.0037 85.0749 37.7986C84.7129 37.5935 84.7879 36.7772 85.2419 35.9753Z" fill="#D3E8E8"/>
<path d="M87.537 35.3279C87.8147 35.3279 88.0398 35.1028 88.0398 34.8251C88.0398 34.5474 87.8147 34.3223 87.537 34.3223C87.2593 34.3223 87.0342 34.5474 87.0342 34.8251C87.0342 35.1028 87.2593 35.3279 87.537 35.3279Z" fill="#D3E8E8"/>
<path d="M64.3075 19.2973C65.3947 19.2973 66.2761 18.4159 66.2761 17.3287C66.2761 16.2415 65.3947 15.3601 64.3075 15.3601C63.2202 15.3601 62.3389 16.2415 62.3389 17.3287C62.3389 18.4159 63.2202 19.2973 64.3075 19.2973Z" fill="#5FD35F"/>
<path d="M65.7671 18.2934C65.4455 18.7154 65.0303 18.9397 64.8397 18.7945C64.6491 18.6492 65.1696 18.5051 65.4913 18.0831C65.8129 17.6611 65.8138 17.121 66.0044 17.2663C66.195 17.4115 66.0888 17.8714 65.7671 18.2934Z" fill="#D3E8E8"/>
<path d="M62.812 16.5434C63.0735 16.0817 63.4545 15.8031 63.663 15.9212C63.8715 16.0393 63.3753 16.2526 63.1138 16.7143C62.8524 17.176 62.9247 17.7113 62.7161 17.5932C62.5076 17.4751 62.5506 17.0051 62.812 16.5434Z" fill="#D3E8E8"/>
<path d="M64.1333 16.1709C64.2931 16.1709 64.4228 16.0413 64.4228 15.8814C64.4228 15.7215 64.2931 15.5919 64.1333 15.5919C63.9734 15.5919 63.8438 15.7215 63.8438 15.8814C63.8438 16.0413 63.9734 16.1709 64.1333 16.1709Z" fill="#D3E8E8"/>
<path d="M3.13792 23.0795C3.96054 23.0795 4.6274 22.4127 4.6274 21.5901C4.6274 20.7674 3.96054 20.1006 3.13792 20.1006C2.3153 20.1006 1.64844 20.7674 1.64844 21.5901C1.64844 22.4127 2.3153 23.0795 3.13792 23.0795Z" fill="#5FD35F"/>
<path d="M4.24246 22.32C3.99906 22.6393 3.68486 22.809 3.54066 22.6991C3.39646 22.5892 3.79036 22.4802 4.03366 22.1609C4.27706 21.8416 4.27777 21.4329 4.42197 21.5428C4.56617 21.6527 4.48576 22.0007 4.24246 22.32Z" fill="#D3E8E8"/>
<path d="M2.00648 20.9958C2.20428 20.6465 2.49258 20.4357 2.65038 20.5251C2.80808 20.6144 2.43268 20.7758 2.23488 21.1252C2.03698 21.4745 2.09168 21.8795 1.93398 21.7901C1.77618 21.7008 1.80868 21.3452 2.00648 20.9958Z" fill="#D3E8E8"/>
<path d="M3.00713 20.714C3.1281 20.714 3.22617 20.6159 3.22617 20.4949C3.22617 20.3739 3.1281 20.2759 3.00713 20.2759C2.88615 20.2759 2.78809 20.3739 2.78809 20.4949C2.78809 20.6159 2.88615 20.714 3.00713 20.714Z" fill="#D3E8E8"/>
<path d="M13.2897 25.3133C13.9637 25.3133 14.5101 24.7669 14.5101 24.0929C14.5101 23.4189 13.9637 22.8726 13.2897 22.8726C12.6157 22.8726 12.0693 23.4189 12.0693 24.0929C12.0693 24.7669 12.6157 25.3133 13.2897 25.3133Z" fill="#5FD35F"/>
<path d="M14.195 24.6909C13.9957 24.9525 13.7382 25.0916 13.6201 25.0015C13.5019 24.9115 13.8246 24.8221 14.024 24.5605C14.2234 24.2989 14.224 23.9641 14.3421 24.0541C14.4603 24.1442 14.3944 24.4293 14.195 24.6909Z" fill="#D3E8E8"/>
<path d="M12.363 23.6061C12.5251 23.3198 12.7613 23.1472 12.8906 23.2204C13.0199 23.2936 12.7122 23.4258 12.5502 23.712C12.3881 23.9982 12.4329 24.3301 12.3036 24.2569C12.1743 24.1837 12.201 23.8923 12.363 23.6061Z" fill="#D3E8E8"/>
<path d="M13.1824 23.3753C13.2815 23.3753 13.3619 23.2949 13.3619 23.1958C13.3619 23.0967 13.2815 23.0164 13.1824 23.0164C13.0833 23.0164 13.0029 23.0967 13.0029 23.1958C13.0029 23.2949 13.0833 23.3753 13.1824 23.3753Z" fill="#D3E8E8"/>
<path fill-rule="evenodd" clip-rule="evenodd" d="M61.2577 60.6089C56.1062 57.0581 53.6689 53.9525 53.6689 53.9525C44.1555 59.5879 34.0523 79.5979 34.0523 79.5979C29.3175 72.897 24.5569 71.028 24.5569 71.028C22.4167 73.9031 18.7275 77.7348 18.7275 77.7348C27.332 80.0644 34.5542 88.6135 34.5542 88.6135C50.167 63.9714 61.2577 60.6089 61.2577 60.6089Z" fill="#5FD35F"/>
<path opacity="0.277778" fill-rule="evenodd" clip-rule="evenodd" d="M62.3026 60.639C57.1511 57.0881 54.7138 53.9825 54.7138 53.9825C45.2004 59.618 35.0972 79.6279 35.0972 79.6279C30.3625 72.927 25.6018 71.058 25.6018 71.058C23.4616 73.9331 19.7725 77.7648 19.7725 77.7648C28.3769 80.0945 35.5992 88.6435 35.5992 88.6435C51.2119 64.0014 62.3026 60.639 62.3026 60.639Z" fill="#5FD35F"/>
</svg>
