<svg width="88" height="93" viewBox="0 0 88 93" fill="none" xmlns="http://www.w3.org/2000/svg">
<path d="M80.6592 50.8684C80.6592 66.4329 62.7535 79.0505 40.6656 79.0505C18.5777 79.0505 0.671875 66.4329 0.671875 50.8684C0.671875 35.3039 18.5777 22.6864 40.6656 22.6864C62.7535 22.6864 80.6592 35.3039 80.6592 50.8684Z" fill="#191824"/>
<path d="M36.8943 22.866L9.21737 33.5796L16.088 25.9908L16.088 18.0757L24.7777 21.9094L36.8943 22.866Z" fill="#191824"/>
<path d="M41.1681 23.2485L72.2149 33.5821L65.3443 25.9932L65.3443 18.0782L56.6546 21.9119L41.1681 23.2485Z" fill="#191824"/>
<path d="M74.2346 47.0999C74.2346 60.2047 59.1585 70.8282 40.5611 70.8282C21.9638 70.8282 6.8877 60.2047 6.8877 47.0999C6.8877 33.995 21.9638 23.3715 40.5611 23.3715C59.1585 23.3715 74.2346 33.995 74.2346 47.0999Z" fill="#1F1E2E"/>
<path d="M37.3861 23.5227L14.0829 32.5433L19.8678 26.1537L19.8678 19.4895L27.1842 22.7173L37.3861 23.5227Z" fill="#1F1E2E"/>
<path d="M40.9856 23.8447L67.126 32.5453L61.3411 26.1557L61.3411 19.4914L54.0247 22.7193L40.9856 23.8447Z" fill="#1F1E2E"/>
<ellipse cx="40.5794" cy="13.3602" rx="30.72" ry="10.24" fill="#27233C"/>
<ellipse cx="40.5784" cy="12.5604" rx="28.8" ry="9.75999" fill="#383450"/>
<ellipse cx="40.5792" cy="13.2002" rx="25.92" ry="6.24" fill="#151420"/>
<ellipse cx="40.0992" cy="7.76023" rx="10.4" ry="7.51999" fill="#5FD35F"/>
<ellipse cx="53.5391" cy="11.1202" rx="5.92001" ry="5.76" fill="#5FD35F"/>
<path d="M31.9396 13.4347C31.9396 16.4802 29.2891 16.2356 26.0196 16.2356C22.7501 16.2356 20.0996 16.4802 20.0996 13.4347C20.0996 10.3892 22.7501 7.92029 26.0196 7.92029C29.2891 7.92029 31.9396 10.3892 31.9396 13.4347Z" fill="#5FD35F"/>
<path d="M63.6191 15.55C63.6191 17.0512 53.3836 19.4404 41.0271 19.4404C28.6706 19.4404 17.5391 17.1885 17.5391 15.6873C17.5391 14.1861 28.4726 12.4004 40.8291 12.4004C53.1856 12.4004 63.6191 14.0488 63.6191 15.55Z" fill="#5FD35F"/>
<path d="M22.9805 80.3467L34.2768 76.0801L45.3805 78.4363L24.2641 88.8801L25.2911 87.9885L25.8045 87.0333L26.1896 85.8234L26.318 84.6771L26.0613 83.2124L25.3553 81.5567L24.3283 80.6651L22.9805 80.3467Z" fill="#5F402C"/>
<path d="M5.63625 71.835L17.6672 70.8484L27.6708 76.1955L4.49454 80.42L5.72838 79.8446L6.48704 79.0656L7.19332 78.0053L7.63544 76.9354L7.79646 75.4518L7.57934 73.6595L6.84155 72.5153L5.63625 71.835Z" fill="#5F402C"/>
<ellipse cx="4.71015" cy="76.1685" rx="3.00471" ry="4.35164" transform="matrix(0.960822 0.277167 -0.277168 0.960821 21.296 1.67867)" fill="#3E2318"/>
<path d="M66.0998 77.0647L54.3874 74.143L43.6499 77.7997L65.8363 85.7213L64.7119 84.9537L64.0894 84.0621L63.5641 82.9015L63.3011 81.7741L63.3824 80.284L63.8869 78.5505L64.8002 77.5409L66.0998 77.0647Z" fill="#5F402C"/>
<ellipse cx="3.00471" cy="4.35164" rx="3.00471" ry="4.35164" transform="matrix(-0.993022 0.117929 0.11793 0.993022 68.7832 76.8157)" fill="#3E2318"/>
<path d="M82.1645 69.1414L70.1336 68.1548L60.13 73.5019L83.3062 77.7264L82.0724 77.151L81.3137 76.372L80.6075 75.3117L80.1653 74.2418L80.0043 72.7582L80.2214 70.9659L80.9592 69.8217L82.1645 69.1414Z" fill="#5F402C"/>
<ellipse cx="3.00471" cy="4.35164" rx="3.00471" ry="4.35164" transform="matrix(-0.960822 0.277167 0.277168 0.960822 84.7715 68.4609)" fill="#3E2318"/>
<ellipse cx="23.4599" cy="84.5602" rx="3.04" ry="4.32" fill="#3E2318"/>
</svg>
