<svg width="968" height="968" viewBox="0 0 968 968" fill="none" xmlns="http://www.w3.org/2000/svg">
<rect width="968" height="968" fill="#9BD2D2"/>
<rect x="66" y="66" width="836" height="836" fill="#0D3F41"/>
<rect x="107.8" y="107.8" width="94.05" height="94.05" fill="#89BEAA"/>
<rect x="201.85" y="107.8" width="94.05" height="94.05" fill="#EBD2D2"/>
<rect x="295.9" y="107.8" width="94.05" height="94.05" fill="#89BEAA"/>
<rect x="389.95" y="107.8" width="94.05" height="94.05" fill="#EBD2D2"/>
<rect x="484" y="107.8" width="94.05" height="94.05" fill="#89BEAA"/>
<rect x="578.05" y="107.8" width="94.05" height="94.05" fill="#EBD2D2"/>
<rect x="672.1" y="107.8" width="94.05" height="94.05" fill="#89BEAA"/>
<rect x="766.15" y="107.8" width="94.05" height="94.05" fill="#EBD2D2"/>
<rect x="201.85" y="201.85" width="94.05" height="94.05" fill="#89BEAA"/>
<rect x="389.95" y="201.85" width="94.05" height="94.05" fill="#89BEAA"/>
<rect x="578.05" y="201.85" width="94.05" height="94.05" fill="#89BEAA"/>
<rect x="107.8" y="201.85" width="94.05" height="94.05" fill="#EBD2D2"/>
<rect x="295.9" y="201.85" width="94.05" height="94.05" fill="#EBD2D2"/>
<rect x="484" y="201.85" width="94.05" height="94.05" fill="#EBD2D2"/>
<rect x="672.1" y="201.85" width="94.05" height="94.05" fill="#EBD2D2"/>
<rect x="766.15" y="201.85" width="94.05" height="94.05" fill="#89BEAA"/>
<rect x="107.8" y="295.9" width="94.05" height="94.05" fill="#89BEAA"/>
<rect x="201.85" y="295.9" width="94.05" height="94.05" fill="#EBD2D2"/>
<rect x="295.9" y="295.9" width="94.05" height="94.05" fill="#89BEAA"/>
<rect x="389.95" y="295.9" width="94.05" height="94.05" fill="#EBD2D2"/>
<rect x="484" y="295.9" width="94.05" height="94.05" fill="#89BEAA"/>
<rect x="578.05" y="295.9" width="94.05" height="94.05" fill="#EBD2D2"/>
<rect x="672.1" y="295.9" width="94.05" height="94.05" fill="#89BEAA"/>
<rect x="766.15" y="295.9" width="94.05" height="94.05" fill="#EBD2D2"/>
<rect x="201.85" y="389.95" width="94.05" height="94.05" fill="#89BEAA"/>
<rect x="389.95" y="389.95" width="94.05" height="94.05" fill="#89BEAA"/>
<rect x="578.05" y="389.95" width="94.05" height="94.05" fill="#89BEAA"/>
<rect x="107.8" y="389.95" width="94.05" height="94.05" fill="#EBD2D2"/>
<rect x="295.9" y="389.95" width="94.05" height="94.05" fill="#EBD2D2"/>
<rect x="484" y="389.95" width="94.05" height="94.05" fill="#EBD2D2"/>
<rect x="672.1" y="389.95" width="94.05" height="94.05" fill="#EBD2D2"/>
<rect x="766.15" y="389.95" width="94.05" height="94.05" fill="#89BEAA"/>
<rect x="107.8" y="484" width="94.05" height="94.05" fill="#89BEAA"/>
<rect x="201.85" y="484" width="94.05" height="94.05" fill="#EBD2D2"/>
<rect x="295.9" y="484" width="94.05" height="94.05" fill="#89BEAA"/>
<rect x="389.95" y="484" width="94.05" height="94.05" fill="#EBD2D2"/>
<rect x="484" y="484" width="94.05" height="94.05" fill="#89BEAA"/>
<rect x="578.05" y="484" width="94.05" height="94.05" fill="#EBD2D2"/>
<rect x="672.1" y="484" width="94.05" height="94.05" fill="#89BEAA"/>
<rect x="766.15" y="484" width="94.05" height="94.05" fill="#EBD2D2"/>
<rect x="201.85" y="578.05" width="94.05" height="94.05" fill="#89BEAA"/>
<rect x="389.95" y="578.05" width="94.05" height="94.05" fill="#89BEAA"/>
<rect x="578.05" y="578.05" width="94.05" height="94.05" fill="#89BEAA"/>
<rect x="107.8" y="578.05" width="94.05" height="94.05" fill="#EBD2D2"/>
<rect x="295.9" y="578.05" width="94.05" height="94.05" fill="#EBD2D2"/>
<rect x="484" y="578.05" width="94.05" height="94.05" fill="#EBD2D2"/>
<rect x="672.1" y="578.05" width="94.05" height="94.05" fill="#EBD2D2"/>
<rect x="766.15" y="578.05" width="94.05" height="94.05" fill="#89BEAA"/>
<rect x="107.8" y="672.1" width="94.05" height="94.05" fill="#89BEAA"/>
<rect x="201.85" y="672.1" width="94.05" height="94.05" fill="#EBD2D2"/>
<rect x="295.9" y="672.1" width="94.05" height="94.05" fill="#89BEAA"/>
<rect x="389.95" y="672.1" width="94.05" height="94.05" fill="#EBD2D2"/>
<rect x="484" y="672.1" width="94.05" height="94.05" fill="#89BEAA"/>
<rect x="578.05" y="672.1" width="94.05" height="94.05" fill="#EBD2D2"/>
<rect x="672.1" y="672.1" width="94.05" height="94.05" fill="#89BEAA"/>
<rect x="766.15" y="672.1" width="94.05" height="94.05" fill="#EBD2D2"/>
<rect x="201.85" y="766.15" width="94.05" height="94.05" fill="#89BEAA"/>
<rect x="389.95" y="766.15" width="94.05" height="94.05" fill="#89BEAA"/>
<rect x="578.05" y="766.15" width="94.05" height="94.05" fill="#89BEAA"/>
<rect x="107.8" y="766.15" width="94.05" height="94.05" fill="#EBD2D2"/>
<rect x="295.9" y="766.15" width="94.05" height="94.05" fill="#EBD2D2"/>
<rect x="484" y="766.15" width="94.05" height="94.05" fill="#EBD2D2"/>
<rect x="672.1" y="766.15" width="94.05" height="94.05" fill="#EBD2D2"/>
<rect x="766.15" y="766.15" width="94.05" height="94.05" fill="#89BEAA"/>
<path d="M411.013 130.015L438.226 174.836L429.179 179.203L411.013 130.015Z" fill="#C9345A"/>
<path d="M429.518 124.445L441.736 175.437L431.788 176.832L429.518 124.445Z" fill="#C9345A"/>
<path d="M445.548 124.224L445.286 176.659L435.293 175.647L445.548 124.224Z" fill="#C9345A"/>
<path d="M464.707 131.216L447.329 180.688L437.47 176.605L464.707 131.216Z" fill="#C9345A"/>
<circle cx="412.855" cy="134.265" r="4.49615" fill="#C9345A"/>
<circle cx="430.545" cy="128.136" r="4.49615" fill="#C9345A"/>
<circle cx="445.265" cy="128.136" r="4.49615" fill="#C9345A"/>
<circle cx="462.955" cy="134.265" r="4.49615" fill="#C9345A"/>
<rect x="419.921" y="177.594" width="35.9692" height="7.70768" fill="#C9345A"/>
<rect x="428.913" y="173.74" width="17.9846" height="7.70768" fill="#C9345A"/>
<rect x="578.05" y="484" width="94.05" height="94.05" fill="#EBD2D2"/>
<path d="M599.113 506.215L626.326 551.037L617.279 555.403L599.113 506.215Z" fill="#C9345A"/>
<path d="M617.618 500.645L629.836 551.637L619.888 553.032L617.618 500.645Z" fill="#C9345A"/>
<path d="M633.648 500.424L633.386 552.859L623.393 551.847L633.648 500.424Z" fill="#C9345A"/>
<path d="M652.807 507.416L635.429 556.888L625.57 552.805L652.807 507.416Z" fill="#C9345A"/>
<circle cx="600.955" cy="510.465" r="4.49615" fill="#C9345A"/>
<circle cx="618.645" cy="504.336" r="4.49615" fill="#C9345A"/>
<circle cx="633.365" cy="504.336" r="4.49615" fill="#C9345A"/>
<circle cx="651.055" cy="510.465" r="4.49615" fill="#C9345A"/>
<rect x="608.021" y="553.794" width="35.9692" height="7.70768" fill="#C9345A"/>
<rect x="617.013" y="549.94" width="17.9846" height="7.70768" fill="#C9345A"/>
<rect x="672.1" y="766.15" width="94.05" height="94.05" fill="#EBD2D2"/>
<path d="M693.163 788.365L720.376 833.186L711.329 837.553L693.163 788.365Z" fill="#C9345A"/>
<path d="M711.668 782.795L723.886 833.787L713.938 835.182L711.668 782.795Z" fill="#C9345A"/>
<path d="M727.698 782.574L727.436 835.009L717.443 833.997L727.698 782.574Z" fill="#C9345A"/>
<path d="M746.857 789.566L729.479 839.038L719.62 834.955L746.857 789.566Z" fill="#C9345A"/>
<circle cx="695.005" cy="792.615" r="4.49615" fill="#C9345A"/>
<circle cx="712.695" cy="786.486" r="4.49615" fill="#C9345A"/>
<circle cx="727.415" cy="786.486" r="4.49615" fill="#C9345A"/>
<circle cx="745.105" cy="792.615" r="4.49615" fill="#C9345A"/>
<rect x="702.071" y="835.944" width="35.9692" height="7.70768" fill="#C9345A"/>
<rect x="711.063" y="832.09" width="17.9846" height="7.70768" fill="#C9345A"/>
<rect x="107.8" y="578.05" width="94.05" height="94.05" fill="#EBD2D2"/>
<path d="M128.863 600.265L156.076 645.087L147.029 649.453L128.863 600.265Z" fill="#C9345A"/>
<path d="M147.368 594.695L159.586 645.687L149.638 647.082L147.368 594.695Z" fill="#C9345A"/>
<path d="M163.398 594.474L163.136 646.909L153.143 645.897L163.398 594.474Z" fill="#C9345A"/>
<path d="M182.557 601.466L165.179 650.938L155.32 646.855L182.557 601.466Z" fill="#C9345A"/>
<circle cx="130.705" cy="604.515" r="4.49615" fill="#C9345A"/>
<circle cx="148.395" cy="598.386" r="4.49615" fill="#C9345A"/>
<circle cx="163.115" cy="598.386" r="4.49615" fill="#C9345A"/>
<circle cx="180.805" cy="604.515" r="4.49615" fill="#C9345A"/>
<rect x="137.771" y="647.844" width="35.9692" height="7.70768" fill="#C9345A"/>
<rect x="146.763" y="643.99" width="17.9846" height="7.70768" fill="#C9345A"/>
<rect x="201.85" y="201.85" width="94.05" height="94.05" fill="#89BEAA"/>
<path d="M222.913 224.065L250.126 268.886L241.079 273.253L222.913 224.065Z" fill="#C9345A"/>
<path d="M241.418 218.495L253.636 269.487L243.688 270.881L241.418 218.495Z" fill="#C9345A"/>
<path d="M257.448 218.274L257.186 270.709L247.193 269.697L257.448 218.274Z" fill="#C9345A"/>
<path d="M276.607 225.266L259.229 274.738L249.37 270.655L276.607 225.266Z" fill="#C9345A"/>
<circle cx="224.755" cy="228.315" r="4.49615" fill="#C9345A"/>
<circle cx="242.445" cy="222.186" r="4.49615" fill="#C9345A"/>
<circle cx="257.165" cy="222.186" r="4.49615" fill="#C9345A"/>
<circle cx="274.855" cy="228.315" r="4.49615" fill="#C9345A"/>
<rect x="231.821" y="271.644" width="35.9692" height="7.70768" fill="#C9345A"/>
<rect x="240.813" y="267.79" width="17.9846" height="7.70768" fill="#C9345A"/>
<rect x="484" y="295.9" width="94.05" height="94.05" fill="#89BEAA"/>
<path d="M505.063 318.115L532.275 362.936L523.229 367.303L505.063 318.115Z" fill="#C9345A"/>
<path d="M523.568 312.545L535.786 363.537L525.838 364.931L523.568 312.545Z" fill="#C9345A"/>
<path d="M539.598 312.324L539.336 364.759L529.343 363.747L539.598 312.324Z" fill="#C9345A"/>
<path d="M558.757 319.316L541.379 368.788L531.52 364.705L558.757 319.316Z" fill="#C9345A"/>
<circle cx="506.905" cy="322.365" r="4.49615" fill="#C9345A"/>
<circle cx="524.595" cy="316.236" r="4.49615" fill="#C9345A"/>
<circle cx="539.315" cy="316.236" r="4.49615" fill="#C9345A"/>
<circle cx="557.005" cy="322.365" r="4.49615" fill="#C9345A"/>
<rect x="513.971" y="365.694" width="35.9692" height="7.70768" fill="#C9345A"/>
<rect x="522.963" y="361.84" width="17.9846" height="7.70768" fill="#C9345A"/>
<rect x="766.15" y="386.98" width="94.05" height="94.05" fill="#89BEAA"/>
<path d="M787.213 409.195L814.426 454.016L805.379 458.383L787.213 409.195Z" fill="#C9345A"/>
<path d="M805.718 403.625L817.936 454.617L807.988 456.011L805.718 403.625Z" fill="#C9345A"/>
<path d="M821.748 403.404L821.486 455.839L811.493 454.827L821.748 403.404Z" fill="#C9345A"/>
<path d="M840.907 410.396L823.529 459.868L813.67 455.785L840.907 410.396Z" fill="#C9345A"/>
<circle cx="789.055" cy="413.445" r="4.49615" fill="#C9345A"/>
<circle cx="806.745" cy="407.316" r="4.49615" fill="#C9345A"/>
<circle cx="821.465" cy="407.316" r="4.49615" fill="#C9345A"/>
<circle cx="839.155" cy="413.445" r="4.49615" fill="#C9345A"/>
<rect x="796.121" y="456.774" width="35.9692" height="7.70768" fill="#C9345A"/>
<rect x="805.113" y="452.92" width="17.9846" height="7.70768" fill="#C9345A"/>
<rect x="295.9" y="672.1" width="94.05" height="94.05" fill="#89BEAA"/>
<path d="M316.963 694.315L344.176 739.136L335.129 743.503L316.963 694.315Z" fill="#C9345A"/>
<path d="M335.468 688.745L347.686 739.737L337.738 741.131L335.468 688.745Z" fill="#C9345A"/>
<path d="M351.498 688.524L351.236 740.959L341.243 739.947L351.498 688.524Z" fill="#C9345A"/>
<path d="M370.657 695.516L353.279 744.988L343.42 740.905L370.657 695.516Z" fill="#C9345A"/>
<circle cx="318.805" cy="698.565" r="4.49615" fill="#C9345A"/>
<circle cx="336.495" cy="692.436" r="4.49615" fill="#C9345A"/>
<circle cx="351.215" cy="692.436" r="4.49615" fill="#C9345A"/>
<circle cx="368.905" cy="698.565" r="4.49615" fill="#C9345A"/>
<rect x="325.871" y="741.894" width="35.9692" height="7.70768" fill="#C9345A"/>
<rect x="334.863" y="738.04" width="17.9846" height="7.70768" fill="#C9345A"/>
<rect x="222.2" y="15.4" width="24.2" height="6.6" rx="3.3" fill="#C2EAEA"/>
<rect x="189.2" y="28.6" width="39.6" height="6.6" rx="3.3" fill="#C2EAEA"/>
<circle cx="214.5" cy="18.7" r="3.3" fill="#C2EAEA"/>
<path d="M953.7 173.8C953.7 171.977 955.178 170.5 957 170.5H968V177.1H957C955.178 177.1 953.7 175.623 953.7 173.8Z" fill="#C2EAEA"/>
<rect x="920.7" y="183.7" width="39.6" height="6.6" rx="3.3" fill="#C2EAEA"/>
<circle cx="946" cy="173.8" r="3.3" fill="#C2EAEA"/>
<path d="M961.4 676.5C961.4 674.677 962.877 673.2 964.7 673.2H968V679.8H964.7C962.877 679.8 961.4 678.323 961.4 676.5Z" fill="#C2EAEA"/>
<rect x="928.4" y="686.4" width="39.6" height="6.6" rx="3.3" fill="#C2EAEA"/>
<circle cx="953.7" cy="676.5" r="3.3" fill="#C2EAEA"/>
<path d="M6.60004 760.1C6.60004 758.277 5.12258 756.8 3.30004 756.8H3.67165e-05V763.4H3.30004C5.12258 763.4 6.60004 761.923 6.60004 760.1Z" fill="#C2EAEA"/>
<rect width="39.6" height="6.6" rx="3.3" transform="matrix(-1 0 0 1 39.6 770)" fill="#C2EAEA"/>
<circle cx="3.3" cy="3.3" r="3.3" transform="matrix(-1 0 0 1 17.6 756.8)" fill="#C2EAEA"/>
<path d="M14.3 353.1C14.3 351.277 12.8225 349.8 11 349.8H2.86102e-06V356.4H11C12.8225 356.4 14.3 354.923 14.3 353.1Z" fill="#C2EAEA"/>
<rect width="39.6" height="6.6" rx="3.3" transform="matrix(-1 0 0 1 47.3 363)" fill="#C2EAEA"/>
<circle cx="3.3" cy="3.3" r="3.3" transform="matrix(-1 0 0 1 25.3 349.8)" fill="#C2EAEA"/>
<rect x="664.4" y="917.4" width="24.2" height="6.6" rx="3.3" fill="#C2EAEA"/>
<rect x="631.4" y="930.6" width="39.6" height="6.6" rx="3.3" fill="#C2EAEA"/>
<circle cx="656.7" cy="920.7" r="3.3" fill="#C2EAEA"/>
<rect width="24.2" height="6.6" rx="3.3" transform="matrix(-1 0 0 1 757.9 30.8)" fill="#C2EAEA"/>
<rect width="39.6" height="6.6" rx="3.3" transform="matrix(-1 0 0 1 790.9 44)" fill="#C2EAEA"/>
<circle cx="3.3" cy="3.3" r="3.3" transform="matrix(-1 0 0 1 768.9 30.8)" fill="#C2EAEA"/>
<rect width="24.2" height="6.6" rx="3.3" transform="matrix(-1 0 0 1 183.7 930.6)" fill="#C2EAEA"/>
<rect width="39.6" height="6.6" rx="3.3" transform="matrix(-1 0 0 1 216.7 943.8)" fill="#C2EAEA"/>
<circle cx="3.3" cy="3.3" r="3.3" transform="matrix(-1 0 0 1 194.7 930.6)" fill="#C2EAEA"/>
<path d="M827.169 26.4805C826.909 24.6119 827.741 22.6567 829.509 20.981C831.277 19.3053 833.86 18.024 836.774 17.3771C839.689 16.7302 842.734 16.762 845.341 17.4666C847.947 18.1712 849.936 19.5003 850.934 21.2049C851.933 22.9096 851.872 24.8728 850.765 26.727C849.657 28.5813 847.578 30.1993 844.916 31.2781C842.255 32.3569 839.194 32.8225 836.307 32.5876C833.42 32.3528 830.905 31.4337 829.232 30.0024L839.382 24.7806L827.169 26.4805Z" fill="#609C73"/>
<path d="M455.736 31.9475C455.817 30.0627 456.989 28.2899 459.03 26.961C461.072 25.6322 463.844 24.8384 466.827 24.7285C469.81 24.6185 472.8 25.1998 475.236 26.3635C477.673 27.5272 479.388 29.1936 480.063 31.0505C480.737 32.9074 480.323 34.8275 478.899 36.4512C477.474 38.0749 475.137 39.2908 472.325 39.8712C469.512 40.4517 466.418 40.3569 463.62 39.6045C460.823 38.8521 458.515 37.4938 457.128 35.784L468.055 32.4811L455.736 31.9475Z" fill="#609C73"/>
<path d="M163.904 49.4974C164.162 47.6428 163.336 45.7023 161.581 44.0392C159.826 42.376 157.263 41.1044 154.37 40.4623C151.478 39.8202 148.455 39.8518 145.868 40.5511C143.281 41.2505 141.308 42.5696 140.317 44.2614C139.326 45.9532 139.386 47.9018 140.485 49.7421C141.585 51.5824 143.648 53.1883 146.289 54.259C148.931 55.3297 151.969 55.7918 154.834 55.5587C157.7 55.3257 160.196 54.4134 161.856 52.9929L151.782 47.8102L163.904 49.4974Z" fill="#609C73"/>
<path d="M937.204 299.197C937.462 297.343 936.636 295.402 934.881 293.739C933.126 292.076 930.563 290.804 927.67 290.162C924.778 289.52 921.755 289.552 919.168 290.251C916.581 290.95 914.608 292.27 913.617 293.961C912.626 295.653 912.686 297.602 913.785 299.442C914.885 301.282 916.948 302.888 919.589 303.959C922.231 305.03 925.269 305.492 928.134 305.259C931 305.026 933.496 304.113 935.156 302.693L925.082 297.51L937.204 299.197Z" fill="#609C73"/>
<path d="M571.065 944.808C570.757 942.597 571.741 940.284 573.833 938.302C575.924 936.32 578.98 934.804 582.427 934.039C585.875 933.274 589.477 933.311 592.561 934.145C595.644 934.978 597.997 936.551 599.178 938.567C600.359 940.583 600.287 942.906 598.977 945.099C597.667 947.293 595.207 949.207 592.059 950.483C588.911 951.759 585.29 952.31 581.875 952.032C578.459 951.754 575.484 950.667 573.505 948.974L585.512 942.797L571.065 944.808Z" fill="#609C73"/>
<path d="M923.065 754.508C922.757 752.297 923.741 749.984 925.833 748.002C927.924 746.02 930.98 744.504 934.427 743.739C937.875 742.974 941.477 743.011 944.561 743.845C947.644 744.678 949.997 746.251 951.178 748.267C952.359 750.284 952.287 752.606 950.977 754.799C949.667 756.993 947.207 758.907 944.059 760.183C940.911 761.459 937.29 762.01 933.875 761.732C930.459 761.454 927.484 760.367 925.505 758.674L937.512 752.497L923.065 754.508Z" fill="#609C73"/>
<path d="M304.895 935.08C305.155 933.212 304.323 931.257 302.555 929.581C300.787 927.905 298.204 926.624 295.29 925.977C292.375 925.33 289.33 925.362 286.723 926.067C284.117 926.771 282.128 928.1 281.13 929.805C280.131 931.51 280.192 933.473 281.299 935.327C282.407 937.181 284.486 938.799 287.148 939.878C289.809 940.957 292.87 941.422 295.757 941.188C298.644 940.953 301.159 940.034 302.832 938.602L292.682 933.381L304.895 935.08Z" fill="#609C73"/>
<path d="M52.9948 440.08C53.2549 438.212 52.4229 436.257 50.6548 434.581C48.8867 432.905 46.3037 431.624 43.3895 430.977C40.4753 430.33 37.4297 430.362 34.8233 431.067C32.2168 431.771 30.2281 433.1 29.2297 434.805C28.2313 436.51 28.2916 438.473 29.3993 440.327C30.5071 442.181 32.5863 443.799 35.2475 444.878C37.9088 445.957 40.9696 446.422 43.8567 446.188C46.7438 445.953 49.2593 445.034 50.932 443.602L40.7819 438.381L52.9948 440.08Z" fill="#609C73"/>
<path d="M313.674 33.7534L313.435 32.7974L313.767 31.8569L312.778 32.1104L311.811 31.8088L312.057 32.7637L311.727 33.711L312.714 33.4506L313.674 33.7534Z" fill="#FFF5BF"/>
<path d="M296.717 24.3773L296.834 25.356L296.385 26.2469L297.398 26.1205L298.32 26.5421L298.196 25.5637L298.644 24.6658L297.631 24.7992L296.717 24.3773Z" fill="#FFF5BF"/>
<path d="M302.24 23.9704L302.679 24.6286L302.68 25.4287L303.36 24.9714L304.172 24.9393L303.729 24.2839L303.724 23.4789L303.048 23.9412L302.24 23.9704Z" fill="#FFF5BF"/>
<path d="M303.339 28.7634L303.059 29.0989L302.635 29.2254L302.984 29.5136L303.129 29.9391L303.407 29.6014L303.833 29.4727L303.481 29.1867L303.339 28.7634Z" fill="#FFF5BF"/>
<path d="M265.006 30.8617L265.519 30.0202L265.482 29.0236L266.351 29.5596L267.364 29.5594L266.844 30.3976L266.878 31.4005L266.013 30.8582L265.006 30.8617Z" fill="#FFF5BF"/>
<path d="M283.932 26.5679L283.53 27.4676L283.693 28.4515L282.764 28.0297L281.758 28.1581L282.168 27.2609L282.007 26.2704L282.934 26.6988L283.932 26.5679Z" fill="#FFF5BF"/>
<path d="M278.775 24.5359L278.161 25.0341L277.921 25.7974L277.409 25.1588L276.643 24.8867L277.261 24.3927L277.505 23.6255L278.013 24.268L278.775 24.5359Z" fill="#FFF5BF"/>
<path d="M276.306 28.787L276.474 29.1906L276.841 29.4375L276.422 29.6089L276.157 29.9722L275.993 29.5671L275.624 29.3175L276.044 29.1489L276.306 28.787Z" fill="#FFF5BF"/>
<ellipse cx="288.937" cy="37.9723" rx="18.9145" ry="8.15102" fill="#C45C84"/>
<path d="M284.447 31.7692C288.541 34.5952 287.095 43.0629 282.196 47.4227C277.298 51.7826 270.007 53.026 265.913 50.2C261.819 47.374 262.471 41.5486 267.37 37.1887C272.269 32.8289 280.353 28.9432 284.447 31.7692Z" fill="#C45C84"/>
<path d="M290.254 31.3484C285.787 34.3154 289.861 43.0216 294.969 47.3969C300.078 51.7723 307.84 52.914 312.307 49.947C316.773 46.9801 316.253 41.028 311.144 36.6527C306.036 32.2773 294.721 28.3815 290.254 31.3484Z" fill="#C45C84"/>
<path d="M297.542 39.1442C297.991 38.1417 301.797 37.8485 305.449 39.3645C309.101 40.8804 311.474 43.5523 311.025 44.5547C310.576 45.5572 307.56 45.413 303.908 43.8971C300.256 42.3811 297.093 40.1466 297.542 39.1442Z" fill="#EF7BA2"/>
<path d="M279.448 38.9329C279.335 38.244 280.504 36.9387 282.091 36.6794C283.678 36.42 285.146 37.1833 285.258 37.8722C285.371 38.5612 284.347 39.3875 282.76 39.6469C281.173 39.9062 279.56 39.6219 279.448 38.9329Z" fill="#D9D9D9"/>
<path d="M285.038 31.5365C285.143 32.0347 284.334 33.0241 283.187 33.2655C282.04 33.5069 280.945 32.9994 280.84 32.5012C280.735 32.0031 281.454 31.3673 282.601 31.1259C283.748 30.8845 284.933 31.0384 285.038 31.5365Z" fill="#D9D9D9"/>
<path d="M305.052 41.2173C304.881 41.6672 303.909 41.9592 302.891 41.5727C301.873 41.1863 301.115 40.3183 301.286 39.8683C301.457 39.4184 302.496 39.2908 303.514 39.6773C304.532 40.0638 305.223 40.7674 305.052 41.2173Z" fill="#D9D9D9"/>
<path d="M312.032 49.987C312.032 52.2955 297.765 53.0203 287.707 53.0203C277.649 53.0203 265.216 51.915 265.216 49.6065C265.216 47.2979 277.649 44.6603 287.707 44.6603C297.765 44.6603 312.032 47.6784 312.032 49.987Z" fill="#671430"/>
<path d="M306.597 48.3048C306.597 50.0939 295.848 51.1393 288.027 51.1393C280.206 51.1393 270.022 49.6889 270.022 47.8998C270.022 46.1107 280.206 44.6603 288.027 44.6603C295.848 44.6603 306.597 46.5156 306.597 48.3048Z" fill="#992049"/>
<path d="M290.62 31.8938C290.899 30.2833 293.879 30.199 297.372 30.8059C300.427 31.3367 302.773 33.0564 302.493 34.6669C302.213 36.2774 299.866 37.7361 296.81 37.2053C293.755 36.6745 290.34 33.5044 290.62 31.8938Z" fill="#EF7BA2"/>
<path d="M283.504 43.027C283.272 44.4477 285.026 45.2638 287.257 45.629C289.208 45.9483 291.031 45.093 291.264 43.6723C291.496 42.2516 290.459 40.4407 288.508 40.1214C286.557 39.8021 283.737 41.6062 283.504 43.027Z" fill="#EF7BA2"/>
<path d="M272.17 39.0696C272.562 40.2584 274.815 39.9939 277.377 39.1494C279.617 38.4107 281.19 36.8499 280.798 35.661C280.406 34.4722 278.474 33.6262 276.234 34.3649C273.993 35.1036 271.778 37.8807 272.17 39.0696Z" fill="#EF7BA2"/>
<path d="M308.044 40.5913C308.77 39.4339 310.632 39.2948 312.203 40.2807C313.773 41.2665 314.457 43.0039 313.73 44.1614C313.004 45.3188 311.956 43.9179 310.386 42.932C308.816 41.9462 307.317 41.7488 308.044 40.5913Z" fill="#D9D9D9"/>
<path d="M299.472 34.2877C299.818 33.1784 301.534 32.7268 303.304 33.2788C305.074 33.8309 306.228 35.1777 305.882 36.287C305.536 37.3962 303.969 38.2768 302.199 37.7247C300.429 37.1726 299.126 35.3969 299.472 34.2877Z" fill="#D9D9D9"/>
<path d="M292.66 36.3555C292.788 35.6144 294.445 33.9999 295.977 34.2649C297.51 34.53 298.337 36.5742 298.209 37.3153C298.081 38.0564 296.764 38.0963 295.232 37.8313C293.699 37.5662 292.532 37.0966 292.66 36.3555Z" fill="#D9D9D9"/>
<path d="M285.288 34.1429C285.307 33.1684 286.818 30.7695 288.494 30.802C290.171 30.8345 292.133 32.2988 292.114 33.2732C292.095 34.2477 290.451 34.4885 288.774 34.456C287.098 34.4234 285.269 35.1174 285.288 34.1429Z" fill="#D9D9D9"/>
<path d="M276.65 32.8782C277.007 33.7853 276.269 36.3764 274.708 36.9897C273.147 37.6029 270.09 37.3285 269.734 36.4213C269.088 35.7686 272.487 33.9025 273.986 33.1015C275.552 32.4007 276.294 31.9711 276.65 32.8782Z" fill="#D9D9D9"/>
<path d="M269.799 40.6663C269.257 39.743 267.916 39.5237 266.803 40.1765C265.691 40.8294 265.228 42.1071 265.77 43.0305C266.311 43.9538 266.976 43.0686 268.089 42.4158C269.202 41.7629 270.341 41.5897 269.799 40.6663Z" fill="#D9D9D9"/>
<path d="M287.608 44.6817L290.766 44.7391L292.031 52.3604L287.755 52.0894L287.608 44.6817Z" fill="#280410"/>
<path d="M287.61 44.6818L284.452 44.7393L283.485 52.3234L287.74 51.8031L287.61 44.6818Z" fill="#280410"/>
<path d="M287.595 65.6295L290.577 66.8791L292.039 57.3431L287.764 57.614L287.595 65.6295Z" fill="#280410"/>
<path d="M287.628 65.69L284.61 66.7232L283.492 57.3802L287.747 57.9005L287.628 65.69Z" fill="#280410"/>
<rect x="283.525" y="50.6002" width="8.56899" height="8.77803" rx="2.2" fill="#280410"/>
<path d="M293.605 41.9883C293.797 40.818 292.752 38.7545 291.165 38.4951C289.578 38.2357 287.998 39.6818 287.807 40.8521C287.616 42.0224 288.566 43.2971 290.153 43.5565C291.74 43.8159 293.414 43.1585 293.605 41.9883Z" fill="#D9D9D9"/>
<path d="M568.346 41.8342L568.166 41.1161L568.416 40.4096L567.673 40.6L566.946 40.3735L567.132 41.0907L566.883 41.8024L567.625 41.6068L568.346 41.8342Z" fill="#FFF5BF"/>
<path d="M555.608 34.791L555.696 35.5262L555.359 36.1955L556.12 36.1005L556.812 36.4172L556.719 35.6822L557.055 35.0078L556.295 35.1079L555.608 34.791Z" fill="#FFF5BF"/>
<path d="M559.757 34.4853L560.086 34.9798L560.088 35.5808L560.598 35.2373L561.208 35.2132L560.875 34.7209L560.872 34.1162L560.364 34.4634L559.757 34.4853Z" fill="#FFF5BF"/>
<path d="M560.583 38.0858L560.372 38.3378L560.054 38.4329L560.316 38.6494L560.425 38.969L560.633 38.7153L560.953 38.6186L560.69 38.4038L560.583 38.0858Z" fill="#FFF5BF"/>
<path d="M531.787 39.6621L532.173 39.0299L532.145 38.2813L532.797 38.6839L533.558 38.6837L533.168 39.3134L533.194 40.0668L532.544 39.6594L531.787 39.6621Z" fill="#FFF5BF"/>
<path d="M546.005 36.4365L545.702 37.1124L545.825 37.8515L545.127 37.5346L544.371 37.6311L544.679 36.9571L544.558 36.213L545.255 36.5349L546.005 36.4365Z" fill="#FFF5BF"/>
<path d="M542.13 34.9102L541.669 35.2844L541.489 35.8578L541.104 35.3781L540.529 35.1736L540.993 34.8026L541.176 34.2263L541.558 34.7089L542.13 34.9102Z" fill="#FFF5BF"/>
<path d="M540.276 38.1035L540.402 38.4068L540.677 38.5922L540.363 38.7209L540.164 38.9939L540.04 38.6896L539.763 38.5021L540.079 38.3754L540.276 38.1035Z" fill="#FFF5BF"/>
<ellipse cx="549.764" cy="45.0034" rx="14.2083" ry="6.12296" fill="#C45C84"/>
<path d="M546.391 40.3437C549.467 42.4666 548.38 48.8274 544.7 52.1025C541.021 55.3776 535.544 56.3116 532.469 54.1887C529.393 52.0658 529.883 47.6899 533.563 44.4148C537.243 41.1397 543.316 38.2208 546.391 40.3437Z" fill="#C45C84"/>
<path d="M550.753 40.0277C547.398 42.2564 550.458 48.7964 554.295 52.0831C558.133 55.3698 563.964 56.2274 567.319 53.9987C570.674 51.77 570.283 47.2988 566.446 44.0121C562.608 40.7254 554.108 37.7989 550.753 40.0277Z" fill="#C45C84"/>
<path d="M556.228 45.8837C556.565 45.1307 559.424 44.9105 562.167 46.0492C564.911 47.188 566.694 49.195 566.356 49.9481C566.019 50.7011 563.753 50.5928 561.01 49.4541C558.267 48.3153 555.89 46.6368 556.228 45.8837Z" fill="#EF7BA2"/>
<path d="M542.635 45.7251C542.551 45.2075 543.429 44.227 544.621 44.0322C545.813 43.8373 546.916 44.4107 547 44.9283C547.085 45.4458 546.316 46.0665 545.124 46.2613C543.932 46.4562 542.72 46.2426 542.635 45.7251Z" fill="#D9D9D9"/>
<path d="M546.835 40.1689C546.914 40.5431 546.306 41.2864 545.445 41.4678C544.583 41.6491 543.76 41.2678 543.681 40.8936C543.603 40.5194 544.142 40.0418 545.004 39.8605C545.866 39.6792 546.756 39.7947 546.835 40.1689Z" fill="#D9D9D9"/>
<path d="M561.869 47.441C561.741 47.779 561.011 47.9983 560.246 47.708C559.481 47.4177 558.912 46.7657 559.04 46.4277C559.169 46.0897 559.949 45.9939 560.714 46.2842C561.479 46.5745 561.998 47.103 561.869 47.441Z" fill="#D9D9D9"/>
<path d="M567.113 54.0287C567.113 55.7629 556.396 56.3073 548.84 56.3073C541.284 56.3073 531.945 55.477 531.945 53.7429C531.945 52.0087 541.284 50.0274 548.84 50.0274C556.396 50.0274 567.113 52.2945 567.113 54.0287Z" fill="#671430"/>
<path d="M563.03 52.765C563.03 54.109 554.955 54.8943 549.08 54.8943C543.205 54.8943 535.555 53.8048 535.555 52.4609C535.555 51.1169 543.205 50.0274 549.08 50.0274C554.955 50.0274 563.03 51.4211 563.03 52.765Z" fill="#992049"/>
<path d="M551.028 40.4373C551.238 39.2275 553.476 39.1642 556.1 39.6201C558.395 40.0188 560.157 41.3106 559.947 42.5204C559.737 43.7302 557.973 44.826 555.678 44.4273C553.383 44.0285 550.818 41.6471 551.028 40.4373Z" fill="#EF7BA2"/>
<path d="M545.683 48.8004C545.508 49.8676 546.826 50.4807 548.502 50.755C549.967 50.9949 551.337 50.3524 551.512 49.2852C551.686 48.2179 550.908 46.8577 549.442 46.6178C547.976 46.3779 545.858 47.7332 545.683 48.8004Z" fill="#EF7BA2"/>
<path d="M537.169 45.8277C537.463 46.7208 539.155 46.5221 541.08 45.8876C542.763 45.3328 543.944 44.1603 543.65 43.2673C543.356 42.3742 541.904 41.7387 540.221 42.2936C538.538 42.8485 536.874 44.9347 537.169 45.8277Z" fill="#EF7BA2"/>
<path d="M564.117 46.9708C564.663 46.1014 566.061 45.9969 567.241 46.7375C568.42 47.478 568.934 48.7832 568.388 49.6526C567.843 50.522 567.056 49.4697 565.876 48.7291C564.697 47.9886 563.571 47.8403 564.117 46.9708Z" fill="#D9D9D9"/>
<path d="M557.678 42.2356C557.938 41.4023 559.226 41.0631 560.556 41.4778C561.886 41.8925 562.753 42.9042 562.493 43.7374C562.233 44.5707 561.056 45.2322 559.726 44.8174C558.397 44.4027 557.418 43.0688 557.678 42.2356Z" fill="#D9D9D9"/>
<path d="M552.56 43.7889C552.657 43.2322 553.902 42.0194 555.053 42.2185C556.204 42.4176 556.825 43.9532 556.729 44.5099C556.632 45.0665 555.643 45.0965 554.492 44.8975C553.341 44.6984 552.464 44.3456 552.56 43.7889Z" fill="#D9D9D9"/>
<path d="M547.023 42.1268C547.037 41.3948 548.172 39.5928 549.431 39.6172C550.691 39.6416 552.164 40.7416 552.15 41.4736C552.136 42.2056 550.901 42.3865 549.642 42.362C548.382 42.3376 547.009 42.8589 547.023 42.1268Z" fill="#D9D9D9"/>
<path d="M540.534 41.1768C540.802 41.8582 540.248 43.8046 539.075 44.2653C537.903 44.726 535.606 44.5198 535.339 43.8383C534.854 43.3481 537.407 41.9462 538.533 41.3445C539.709 40.8181 540.267 40.4954 540.534 41.1768Z" fill="#D9D9D9"/>
<path d="M535.388 47.0271C534.981 46.3335 533.973 46.1688 533.137 46.6592C532.302 47.1496 531.954 48.1095 532.361 48.8031C532.768 49.4967 533.267 48.8317 534.103 48.3413C534.939 47.8509 535.795 47.7207 535.388 47.0271Z" fill="#D9D9D9"/>
<path d="M548.766 50.0435L551.138 50.0866L552.088 55.8116L548.876 55.6081L548.766 50.0435Z" fill="#280410"/>
<path d="M548.767 50.0435L546.395 50.0867L545.669 55.7838L548.864 55.393L548.767 50.0435Z" fill="#280410"/>
<path d="M548.756 65.7792L550.996 66.7179L552.094 59.5546L548.883 59.7581L548.756 65.7792Z" fill="#280410"/>
<path d="M548.781 65.8246L546.513 66.6008L545.674 59.5824L548.87 59.9733L548.781 65.8246Z" fill="#280410"/>
<rect x="545.698" y="54.4894" width="6.43693" height="6.59395" rx="2.2" fill="#280410"/>
<path d="M553.271 48.0202C553.414 47.1411 552.63 45.591 551.437 45.3961C550.245 45.2013 549.059 46.2876 548.915 47.1667C548.771 48.0458 549.485 49.0034 550.677 49.1982C551.869 49.3931 553.127 48.8993 553.271 48.0202Z" fill="#D9D9D9"/>
<path d="M421.125 47.0102L420.983 46.4414L421.18 45.8819L420.592 46.0327L420.016 45.8533L420.163 46.4214L419.966 46.985L420.554 46.8301L421.125 47.0102Z" fill="#FFF5BF"/>
<path d="M411.037 41.4321L411.106 42.0143L410.839 42.5444L411.442 42.4692L411.99 42.72L411.916 42.1379L412.183 41.6037L411.58 41.6831L411.037 41.4321Z" fill="#FFF5BF"/>
<path d="M414.323 41.19L414.583 41.5816L414.584 42.0576L414.988 41.7855L415.472 41.7664L415.208 41.3765L415.205 40.8976L414.803 41.1726L414.323 41.19Z" fill="#FFF5BF"/>
<path d="M414.976 44.0415L414.81 44.2411L414.558 44.3164L414.765 44.4878L414.851 44.741L415.016 44.5401L415.27 44.4635L415.061 44.2933L414.976 44.0415Z" fill="#FFF5BF"/>
<path d="M392.171 45.2899L392.476 44.7892L392.454 44.1963L392.97 44.5152L393.573 44.5151L393.264 45.0138L393.285 45.6104L392.77 45.2878L392.171 45.2899Z" fill="#FFF5BF"/>
<path d="M403.431 42.7353L403.191 43.2706L403.288 43.856L402.735 43.605L402.137 43.6814L402.381 43.1476L402.285 42.5583L402.837 42.8132L403.431 42.7353Z" fill="#FFF5BF"/>
<path d="M400.362 41.5265L399.997 41.8228L399.854 42.2769L399.55 41.897L399.094 41.7351L399.462 41.4413L399.607 40.9848L399.909 41.367L400.362 41.5265Z" fill="#FFF5BF"/>
<path d="M398.893 44.0555L398.993 44.2957L399.211 44.4425L398.962 44.5445L398.805 44.7607L398.707 44.5196L398.488 44.3712L398.738 44.2708L398.893 44.0555Z" fill="#FFF5BF"/>
<ellipse cx="406.408" cy="49.5202" rx="11.2529" ry="4.84934" fill="#C45C84"/>
<path d="M403.737 45.8298C406.173 47.5111 405.312 52.5488 402.398 55.1426C399.483 57.7365 395.146 58.4762 392.71 56.7949C390.275 55.1136 390.663 51.6479 393.577 49.0541C396.491 46.4602 401.301 44.1485 403.737 45.8298Z" fill="#C45C84"/>
<path d="M407.192 45.5795C404.534 47.3446 406.958 52.5243 409.997 55.1273C413.036 57.7303 417.654 58.4096 420.312 56.6444C422.969 54.8793 422.659 51.3382 419.62 48.7351C416.581 46.1321 409.849 43.8143 407.192 45.5795Z" fill="#C45C84"/>
<path d="M411.527 50.2174C411.795 49.621 414.059 49.4466 416.232 50.3485C418.404 51.2504 419.816 52.8399 419.549 53.4363C419.282 54.0327 417.488 53.947 415.315 53.0451C413.142 52.1432 411.26 50.8138 411.527 50.2174Z" fill="#EF7BA2"/>
<path d="M400.762 50.0917C400.695 49.6819 401.391 48.9053 402.335 48.751C403.279 48.5967 404.152 49.0508 404.219 49.4607C404.286 49.8706 403.677 50.3622 402.733 50.5165C401.789 50.6708 400.829 50.5016 400.762 50.0917Z" fill="#D9D9D9"/>
<path d="M404.088 45.6914C404.151 45.9877 403.67 46.5764 402.987 46.72C402.304 46.8636 401.653 46.5616 401.591 46.2653C401.528 45.9689 401.956 45.5907 402.639 45.4471C403.321 45.3035 404.026 45.395 404.088 45.6914Z" fill="#D9D9D9"/>
<path d="M415.996 51.4507C415.894 51.7184 415.316 51.8922 414.71 51.6622C414.104 51.4323 413.653 50.9159 413.755 50.6482C413.856 50.3805 414.475 50.3046 415.08 50.5346C415.686 50.7645 416.097 51.1831 415.996 51.4507Z" fill="#D9D9D9"/>
<path d="M420.148 56.6682C420.148 58.0416 411.66 58.4728 405.676 58.4728C399.692 58.4728 392.296 57.8152 392.296 56.4418C392.296 55.0684 399.692 53.4991 405.676 53.4991C411.66 53.4991 420.148 55.2947 420.148 56.6682Z" fill="#671430"/>
<path d="M416.915 55.6674C416.915 56.7318 410.52 57.3537 405.867 57.3537C401.214 57.3537 395.155 56.4909 395.155 55.4264C395.155 54.362 401.214 53.4991 405.867 53.4991C410.52 53.4991 416.915 54.6029 416.915 55.6674Z" fill="#992049"/>
<path d="M407.409 45.9039C407.575 44.9458 409.348 44.8956 411.426 45.2567C413.244 45.5725 414.639 46.5956 414.473 47.5537C414.307 48.5119 412.91 49.3797 411.092 49.0639C409.274 48.7481 407.243 46.8621 407.409 45.9039Z" fill="#EF7BA2"/>
<path d="M403.176 52.5274C403.038 53.3726 404.081 53.8582 405.408 54.0754C406.569 54.2654 407.654 53.7566 407.792 52.9113C407.931 52.0661 407.314 50.9888 406.153 50.7988C404.992 50.6088 403.314 51.6822 403.176 52.5274Z" fill="#EF7BA2"/>
<path d="M396.433 50.173C396.666 50.8803 398.006 50.723 399.53 50.2205C400.863 49.781 401.799 48.8525 401.566 48.1452C401.333 47.4379 400.183 46.9346 398.85 47.3741C397.517 47.8135 396.2 49.4658 396.433 50.173Z" fill="#EF7BA2"/>
<path d="M417.775 51.0784C418.208 50.3898 419.315 50.307 420.25 50.8935C421.184 51.48 421.591 52.5137 421.159 53.2023C420.726 53.8909 420.103 53.0574 419.169 52.4709C418.235 51.8844 417.343 51.767 417.775 51.0784Z" fill="#D9D9D9"/>
<path d="M412.676 47.3281C412.882 46.6682 413.902 46.3995 414.955 46.7279C416.008 47.0564 416.695 47.8576 416.489 48.5176C416.283 49.1775 415.351 49.7014 414.298 49.3729C413.245 49.0445 412.47 47.988 412.676 47.3281Z" fill="#D9D9D9"/>
<path d="M408.623 48.5583C408.699 48.1174 409.685 47.1569 410.597 47.3146C411.508 47.4723 412 48.6885 411.924 49.1293C411.848 49.5702 411.065 49.594 410.153 49.4363C409.241 49.2786 408.547 48.9992 408.623 48.5583Z" fill="#D9D9D9"/>
<path d="M404.237 47.242C404.248 46.6622 405.147 45.235 406.145 45.2544C407.142 45.2737 408.309 46.1448 408.298 46.7246C408.287 47.3043 407.309 47.4476 406.311 47.4282C405.314 47.4089 404.226 47.8217 404.237 47.242Z" fill="#D9D9D9"/>
<path d="M399.098 46.4896C399.31 47.0293 398.871 48.5708 397.943 48.9356C397.014 49.3005 395.195 49.1372 394.983 48.5975C394.599 48.2092 396.622 47.099 397.513 46.6224C398.445 46.2055 398.886 45.9499 399.098 46.4896Z" fill="#D9D9D9"/>
<path d="M395.022 51.123C394.7 50.5737 393.902 50.4432 393.24 50.8316C392.578 51.22 392.303 51.9802 392.625 52.5295C392.947 53.0789 393.343 52.5522 394.005 52.1638C394.667 51.7754 395.344 51.6723 395.022 51.123Z" fill="#D9D9D9"/>
<path d="M405.617 53.5119L407.496 53.546L408.248 58.0802L405.705 57.919L405.617 53.5119Z" fill="#280410"/>
<path d="M405.618 53.5119L403.74 53.5461L403.165 58.0582L405.696 57.7487L405.618 53.5119Z" fill="#280410"/>
<path d="M405.61 65.9745L407.384 66.7179L408.254 61.0446L405.71 61.2058L405.61 65.9745Z" fill="#280410"/>
<path d="M405.629 66.0104L403.834 66.6252L403.169 61.0667L405.7 61.3762L405.629 66.0104Z" fill="#280410"/>
<rect x="403.188" y="57.033" width="5.098" height="5.22236" rx="1.1" fill="#280410"/>
<path d="M409.185 51.9094C409.299 51.2132 408.678 49.9855 407.733 49.8312C406.789 49.6769 405.849 50.5372 405.736 51.2335C405.622 51.9297 406.187 52.6881 407.131 52.8424C408.076 52.9968 409.072 52.6057 409.185 51.9094Z" fill="#D9D9D9"/>
<path d="M891.925 47.0102L891.783 46.4414L891.98 45.8819L891.392 46.0327L890.816 45.8533L890.963 46.4214L890.766 46.985L891.354 46.8301L891.925 47.0102Z" fill="#FFF5BF"/>
<path d="M881.837 41.432L881.906 42.0143L881.639 42.5444L882.242 42.4692L882.79 42.72L882.716 42.1379L882.983 41.6037L882.38 41.683L881.837 41.432Z" fill="#FFF5BF"/>
<path d="M885.123 41.19L885.383 41.5816L885.384 42.0576L885.788 41.7855L886.272 41.7664L886.008 41.3765L886.005 40.8976L885.603 41.1726L885.123 41.19Z" fill="#FFF5BF"/>
<path d="M885.777 44.0415L885.61 44.2411L885.358 44.3164L885.565 44.4878L885.651 44.741L885.817 44.5401L886.07 44.4635L885.861 44.2933L885.777 44.0415Z" fill="#FFF5BF"/>
<path d="M862.971 45.2899L863.276 44.7892L863.254 44.1963L863.771 44.5152L864.373 44.5151L864.064 45.0138L864.085 45.6104L863.57 45.2878L862.971 45.2899Z" fill="#FFF5BF"/>
<path d="M874.231 42.7353L873.991 43.2706L874.088 43.856L873.535 43.605L872.937 43.6814L873.181 43.1476L873.085 42.5583L873.637 42.8132L874.231 42.7353Z" fill="#FFF5BF"/>
<path d="M871.162 41.5265L870.797 41.8228L870.655 42.2769L870.35 41.897L869.894 41.7351L870.262 41.4413L870.407 40.9848L870.709 41.367L871.162 41.5265Z" fill="#FFF5BF"/>
<path d="M869.693 44.0555L869.793 44.2957L870.012 44.4425L869.762 44.5445L869.605 44.7607L869.507 44.5196L869.288 44.3712L869.538 44.2708L869.693 44.0555Z" fill="#FFF5BF"/>
<ellipse cx="877.208" cy="49.5202" rx="11.2529" ry="4.84934" fill="#C45C84"/>
<path d="M874.537 45.8298C876.973 47.5111 876.112 52.5488 873.198 55.1426C870.283 57.7365 865.946 58.4762 863.51 56.7949C861.075 55.1136 861.463 51.6479 864.377 49.0541C867.291 46.4602 872.101 44.1485 874.537 45.8298Z" fill="#C45C84"/>
<path d="M877.992 45.5795C875.334 47.3446 877.758 52.5243 880.797 55.1273C883.836 57.7303 888.454 58.4096 891.111 56.6444C893.769 54.8793 893.459 51.3382 890.42 48.7351C887.381 46.1321 880.649 43.8143 877.992 45.5795Z" fill="#C45C84"/>
<path d="M882.327 50.2174C882.595 49.621 884.859 49.4466 887.031 50.3485C889.204 51.2504 890.616 52.8399 890.349 53.4363C890.082 54.0327 888.288 53.947 886.115 53.0451C883.942 52.1432 882.06 50.8138 882.327 50.2174Z" fill="#EF7BA2"/>
<path d="M871.562 50.0917C871.495 49.6819 872.191 48.9053 873.135 48.751C874.079 48.5967 874.952 49.0508 875.019 49.4607C875.086 49.8706 874.477 50.3622 873.533 50.5165C872.589 50.6708 871.629 50.5016 871.562 50.0917Z" fill="#D9D9D9"/>
<path d="M874.888 45.6914C874.951 45.9877 874.47 46.5764 873.787 46.72C873.104 46.8636 872.453 46.5616 872.391 46.2653C872.328 45.9689 872.756 45.5907 873.439 45.4471C874.121 45.3035 874.826 45.395 874.888 45.6914Z" fill="#D9D9D9"/>
<path d="M886.796 51.4507C886.694 51.7184 886.116 51.8922 885.51 51.6622C884.904 51.4323 884.453 50.9159 884.555 50.6482C884.656 50.3805 885.275 50.3046 885.88 50.5346C886.486 50.7645 886.897 51.1831 886.796 51.4507Z" fill="#D9D9D9"/>
<path d="M890.948 56.6682C890.948 58.0416 882.46 58.4728 876.476 58.4728C870.492 58.4728 863.096 57.8152 863.096 56.4418C863.096 55.0684 870.492 53.4991 876.476 53.4991C882.46 53.4991 890.948 55.2947 890.948 56.6682Z" fill="#671430"/>
<path d="M887.715 55.6674C887.715 56.7318 881.32 57.3537 876.667 57.3537C872.014 57.3537 865.955 56.4909 865.955 55.4264C865.955 54.362 872.014 53.4991 876.667 53.4991C881.32 53.4991 887.715 54.6029 887.715 55.6674Z" fill="#992049"/>
<path d="M878.209 45.9039C878.376 44.9458 880.148 44.8956 882.226 45.2567C884.044 45.5725 885.44 46.5956 885.273 47.5537C885.107 48.5119 883.71 49.3797 881.892 49.0639C880.074 48.7481 878.043 46.8621 878.209 45.9039Z" fill="#EF7BA2"/>
<path d="M873.976 52.5274C873.838 53.3726 874.881 53.8582 876.208 54.0754C877.369 54.2654 878.454 53.7566 878.592 52.9113C878.731 52.0661 878.114 50.9888 876.953 50.7988C875.792 50.6088 874.114 51.6822 873.976 52.5274Z" fill="#EF7BA2"/>
<path d="M867.233 50.173C867.466 50.8803 868.806 50.723 870.33 50.2205C871.663 49.781 872.599 48.8525 872.366 48.1452C872.133 47.4379 870.983 46.9346 869.65 47.3741C868.317 47.8135 867 49.4658 867.233 50.173Z" fill="#EF7BA2"/>
<path d="M888.575 51.0784C889.008 50.3898 890.115 50.307 891.05 50.8935C891.984 51.48 892.391 52.5137 891.959 53.2023C891.526 53.8909 890.903 53.0574 889.969 52.4709C889.035 51.8844 888.143 51.767 888.575 51.0784Z" fill="#D9D9D9"/>
<path d="M883.476 47.3281C883.682 46.6682 884.702 46.3995 885.755 46.7279C886.808 47.0564 887.495 47.8576 887.289 48.5176C887.084 49.1775 886.151 49.7014 885.098 49.3729C884.045 49.0445 883.27 47.988 883.476 47.3281Z" fill="#D9D9D9"/>
<path d="M879.423 48.5583C879.499 48.1174 880.485 47.1569 881.397 47.3146C882.308 47.4723 882.8 48.6885 882.724 49.1293C882.648 49.5702 881.865 49.594 880.953 49.4363C880.041 49.2786 879.347 48.9992 879.423 48.5583Z" fill="#D9D9D9"/>
<path d="M875.037 47.242C875.048 46.6622 875.947 45.235 876.945 45.2544C877.942 45.2737 879.109 46.1448 879.098 46.7246C879.087 47.3043 878.109 47.4476 877.111 47.4282C876.114 47.4089 875.026 47.8217 875.037 47.242Z" fill="#D9D9D9"/>
<path d="M869.898 46.4896C870.11 47.0293 869.671 48.5708 868.743 48.9356C867.814 49.3005 865.995 49.1372 865.783 48.5975C865.399 48.2092 867.422 47.099 868.313 46.6224C869.245 46.2055 869.686 45.9499 869.898 46.4896Z" fill="#D9D9D9"/>
<path d="M865.822 51.123C865.5 50.5737 864.702 50.4432 864.04 50.8316C863.378 51.22 863.103 51.9802 863.425 52.5295C863.747 53.0789 864.143 52.5522 864.805 52.1638C865.467 51.7754 866.144 51.6723 865.822 51.123Z" fill="#D9D9D9"/>
<path d="M876.417 53.5119L878.296 53.546L879.048 58.0802L876.505 57.919L876.417 53.5119Z" fill="#280410"/>
<path d="M876.418 53.5119L874.54 53.5461L873.965 58.0582L876.496 57.7487L876.418 53.5119Z" fill="#280410"/>
<path d="M876.41 65.9745L878.184 66.7179L879.054 61.0446L876.51 61.2058L876.41 65.9745Z" fill="#280410"/>
<path d="M876.429 66.0104L874.634 66.6252L873.969 61.0667L876.5 61.3762L876.429 66.0104Z" fill="#280410"/>
<rect x="873.988" y="57.033" width="5.098" height="5.22236" rx="1.1" fill="#280410"/>
<path d="M879.985 51.9094C880.099 51.2132 879.478 49.9855 878.533 49.8312C877.589 49.6769 876.649 50.5372 876.536 51.2335C876.422 51.9297 876.987 52.6881 877.931 52.8424C878.875 52.9968 879.872 52.6057 879.985 51.9094Z" fill="#D9D9D9"/>
<path d="M105.425 47.0102L105.283 46.4414L105.48 45.8819L104.892 46.0327L104.316 45.8533L104.463 46.4214L104.266 46.985L104.854 46.8301L105.425 47.0102Z" fill="#FFF5BF"/>
<path d="M95.3366 41.432L95.4061 42.0143L95.1394 42.5444L95.7419 42.4692L96.2901 42.72L96.2163 42.1379L96.4829 41.6037L95.8805 41.683L95.3366 41.432Z" fill="#FFF5BF"/>
<path d="M98.6228 41.19L98.8835 41.5816L98.8846 42.0576L99.2886 41.7855L99.7718 41.7664L99.5081 41.3765L99.5054 40.8976L99.103 41.1726L98.6228 41.19Z" fill="#FFF5BF"/>
<path d="M99.2766 44.0415L99.1099 44.2411L98.8578 44.3164L99.0653 44.4878L99.1513 44.741L99.3166 44.5401L99.57 44.4635L99.3611 44.2933L99.2766 44.0415Z" fill="#FFF5BF"/>
<path d="M76.4707 45.2899L76.7761 44.7892L76.7539 44.1963L77.2706 44.5152L77.8735 44.5151L77.5643 45.0138L77.5846 45.6104L77.0698 45.2878L76.4707 45.2899Z" fill="#FFF5BF"/>
<path d="M87.7307 42.7353L87.4912 43.2706L87.5882 43.856L87.0353 43.605L86.4373 43.6814L86.6809 43.1476L86.5852 42.5583L87.1367 42.8132L87.7307 42.7353Z" fill="#FFF5BF"/>
<path d="M84.6625 41.5265L84.2972 41.8228L84.1546 42.2769L83.8497 41.897L83.394 41.7351L83.7617 41.4413L83.9067 40.9848L84.2092 41.367L84.6625 41.5265Z" fill="#FFF5BF"/>
<path d="M83.1934 44.0555L83.2932 44.2957L83.5115 44.4425L83.2624 44.5445L83.105 44.7607L83.007 44.5196L82.7878 44.3712L83.0378 44.2708L83.1934 44.0555Z" fill="#FFF5BF"/>
<ellipse cx="90.7079" cy="49.5202" rx="11.2529" ry="4.84934" fill="#C45C84"/>
<path d="M88.037 45.8298C90.4727 47.5111 89.6123 52.5488 86.6979 55.1426C83.7834 57.7365 79.4462 58.4762 77.0104 56.7949C74.5746 55.1136 74.9627 51.6479 77.8771 49.0541C80.7915 46.4602 85.6012 44.1485 88.037 45.8298Z" fill="#C45C84"/>
<path d="M91.4916 45.5795C88.8342 47.3446 91.2576 52.5243 94.2969 55.1273C97.3362 57.7303 101.954 58.4096 104.612 56.6444C107.269 54.8793 106.959 51.3382 103.92 48.7351C100.881 46.1321 94.149 43.8143 91.4916 45.5795Z" fill="#C45C84"/>
<path d="M95.8275 50.2174C96.0948 49.621 98.3589 49.4466 100.532 50.3485C102.704 51.2504 104.116 52.8399 103.849 53.4363C103.582 54.0327 101.788 53.947 99.615 53.0451C97.4423 52.1432 95.5601 50.8138 95.8275 50.2174Z" fill="#EF7BA2"/>
<path d="M85.0624 50.0917C84.9954 49.6819 85.6908 48.9053 86.6349 48.751C87.579 48.5967 88.4525 49.0508 88.5195 49.4607C88.5865 49.8706 87.9775 50.3622 87.0334 50.5165C86.0892 50.6708 85.1294 50.5016 85.0624 50.0917Z" fill="#D9D9D9"/>
<path d="M88.3884 45.6914C88.4508 45.9877 87.9699 46.5764 87.2872 46.72C86.6045 46.8636 85.9532 46.5616 85.8909 46.2653C85.8285 45.9689 86.2559 45.5907 86.9386 45.4471C87.6213 45.3035 88.3261 45.395 88.3884 45.6914Z" fill="#D9D9D9"/>
<path d="M100.296 51.4507C100.194 51.7184 99.6156 51.8922 99.0099 51.6622C98.4041 51.4323 97.9533 50.9159 98.0549 50.6482C98.1565 50.3805 98.7747 50.3046 99.3804 50.5346C99.9862 50.7645 100.397 51.1831 100.296 51.4507Z" fill="#D9D9D9"/>
<path d="M104.448 56.6682C104.448 58.0416 95.9603 58.4728 89.9764 58.4728C83.9924 58.4728 76.5957 57.8152 76.5957 56.4418C76.5957 55.0684 83.9924 53.4991 89.9764 53.4991C95.9603 53.4991 104.448 55.2947 104.448 56.6682Z" fill="#671430"/>
<path d="M101.215 55.6674C101.215 56.7318 94.8198 57.3537 90.1668 57.3537C85.5139 57.3537 79.455 56.4909 79.455 55.4264C79.455 54.362 85.5139 53.4991 90.1668 53.4991C94.8198 53.4991 101.215 54.6029 101.215 55.6674Z" fill="#992049"/>
<path d="M91.7091 45.9039C91.8756 44.9458 93.648 44.8956 95.7263 45.2567C97.544 45.5725 98.9395 46.5956 98.7731 47.5537C98.6066 48.5119 97.2099 49.3797 95.3922 49.0639C93.5745 48.7481 91.5426 46.8621 91.7091 45.9039Z" fill="#EF7BA2"/>
<path d="M87.476 52.5274C87.3377 53.3726 88.381 53.8582 89.7084 54.0754C90.8693 54.2654 91.9541 53.7566 92.0924 52.9113C92.2307 52.0661 91.6138 50.9888 90.4529 50.7988C89.292 50.6088 87.6144 51.6822 87.476 52.5274Z" fill="#EF7BA2"/>
<path d="M80.7329 50.173C80.9661 50.8803 82.3063 50.723 83.8304 50.2205C85.1634 49.781 86.099 48.8525 85.8659 48.1452C85.6327 47.4379 84.4834 46.9346 83.1503 47.3741C81.8173 47.8135 80.4997 49.4658 80.7329 50.173Z" fill="#EF7BA2"/>
<path d="M102.075 51.0784C102.508 50.3898 103.616 50.307 104.55 50.8935C105.484 51.48 105.891 52.5137 105.459 53.2023C105.026 53.8909 104.403 53.0574 103.469 52.4709C102.535 51.8844 101.643 51.767 102.075 51.0784Z" fill="#D9D9D9"/>
<path d="M96.976 47.3281C97.1818 46.6682 98.2023 46.3995 99.2554 46.7279C100.308 47.0564 100.995 47.8576 100.789 48.5176C100.584 49.1775 99.6513 49.7014 98.5982 49.3729C97.5452 49.0445 96.7701 47.988 96.976 47.3281Z" fill="#D9D9D9"/>
<path d="M92.923 48.5583C92.9992 48.1174 93.9851 47.1569 94.8967 47.3146C95.8083 47.4723 96.3004 48.6885 96.2242 49.1293C96.1479 49.5702 95.3646 49.594 94.453 49.4363C93.5414 49.2786 92.8467 48.9992 92.923 48.5583Z" fill="#D9D9D9"/>
<path d="M88.5371 47.242C88.5484 46.6622 89.4473 45.235 90.4448 45.2544C91.4423 45.2737 92.6093 46.1448 92.598 46.7246C92.5868 47.3043 91.6088 47.4476 90.6113 47.4282C89.6138 47.4089 88.5259 47.8217 88.5371 47.242Z" fill="#D9D9D9"/>
<path d="M83.3983 46.4896C83.6104 47.0293 83.1714 48.5708 82.2428 48.9356C81.3142 49.3005 79.4954 49.1372 79.2834 48.5975C78.8992 48.2092 80.9216 47.099 81.8135 46.6224C82.7447 46.2055 83.1863 45.9499 83.3983 46.4896Z" fill="#D9D9D9"/>
<path d="M79.3223 51.123C79 50.5737 78.2021 50.4432 77.5401 50.8316C76.8781 51.22 76.6027 51.9802 76.925 52.5295C77.2473 53.0789 77.6429 52.5522 78.3049 52.1638C78.9669 51.7754 79.6446 51.6723 79.3223 51.123Z" fill="#D9D9D9"/>
<path d="M89.9175 53.5119L91.7961 53.546L92.5485 58.0802L90.0049 57.919L89.9175 53.5119Z" fill="#280410"/>
<path d="M89.9184 53.5119L88.0398 53.5461L87.4646 58.0582L89.9957 57.7487L89.9184 53.5119Z" fill="#280410"/>
<path d="M89.9097 65.9745L91.6837 66.7179L92.5538 61.0446L90.0102 61.2058L89.9097 65.9745Z" fill="#280410"/>
<path d="M89.9295 66.0104L88.1336 66.6252L87.4688 61.0667L89.9999 61.3762L89.9295 66.0104Z" fill="#280410"/>
<rect x="87.4883" y="57.033" width="5.098" height="5.22236" rx="1.1" fill="#280410"/>
<path d="M93.4854 51.9094C93.5992 51.2132 92.9776 49.9855 92.0335 49.8312C91.0894 49.6769 90.1495 50.5372 90.0357 51.2335C89.9219 51.9297 90.4873 52.6881 91.4314 52.8424C92.3756 52.9968 93.3716 52.6057 93.4854 51.9094Z" fill="#D9D9D9"/>
<path d="M711.612 33.6766L711.374 32.7251L711.704 31.7891L710.72 32.0414L709.757 31.7412L710.003 32.6916L709.674 33.6344L710.656 33.3753L711.612 33.6766Z" fill="#FFF5BF"/>
<path d="M694.735 24.3451L694.851 25.3191L694.405 26.2058L695.413 26.08L696.33 26.4996L696.207 25.5258L696.653 24.6322L695.645 24.7649L694.735 24.3451Z" fill="#FFF5BF"/>
<path d="M700.232 23.9401L700.669 24.5952L700.67 25.3914L701.346 24.9363L702.155 24.9044L701.714 24.2521L701.709 23.451L701.036 23.911L700.232 23.9401Z" fill="#FFF5BF"/>
<path d="M701.326 28.7103L701.047 29.0443L700.626 29.1702L700.973 29.457L701.117 29.8805L701.393 29.5444L701.817 29.4163L701.468 29.1316L701.326 28.7103Z" fill="#FFF5BF"/>
<path d="M663.175 30.7987L663.686 29.9612L663.649 28.9693L664.513 29.5028L665.522 29.5025L665.005 30.3368L665.039 31.3349L664.177 30.7952L663.175 30.7987Z" fill="#FFF5BF"/>
<path d="M682.012 26.5252L681.611 27.4207L681.773 28.3999L680.848 27.9801L679.848 28.1079L680.255 27.2149L680.095 26.2291L681.018 26.6555L682.012 26.5252Z" fill="#FFF5BF"/>
<path d="M676.879 24.5029L676.268 24.9987L676.029 25.7584L675.519 25.1229L674.757 24.852L675.372 24.3604L675.615 23.5969L676.121 24.2363L676.879 24.5029Z" fill="#FFF5BF"/>
<path d="M674.421 28.7338L674.588 29.1356L674.954 29.3812L674.537 29.5518L674.273 29.9134L674.109 29.5102L673.743 29.2619L674.161 29.094L674.421 28.7338Z" fill="#FFF5BF"/>
<ellipse cx="686.992" cy="37.8754" rx="18.8245" ry="8.11227" fill="#C45C84"/>
<path d="M682.524 31.7018C686.599 34.5144 685.159 42.9418 680.284 47.2809C675.408 51.62 668.153 52.8576 664.078 50.045C660.003 47.2324 660.652 41.4347 665.528 37.0956C670.403 32.7564 678.449 28.8892 682.524 31.7018Z" fill="#C45C84"/>
<path d="M688.303 31.283C683.858 34.2359 687.912 42.9007 692.996 47.2552C698.08 51.6098 705.806 52.7461 710.251 49.7932C714.696 46.8404 714.178 40.9166 709.094 36.5621C704.01 32.2075 692.748 28.3302 688.303 31.283Z" fill="#C45C84"/>
<path d="M695.556 39.0417C696.004 38.044 699.791 37.7522 703.426 39.261C707.06 40.7697 709.423 43.4289 708.975 44.4265C708.528 45.4242 705.527 45.2807 701.892 43.772C698.258 42.2633 695.109 40.0394 695.556 39.0417Z" fill="#EF7BA2"/>
<path d="M677.548 38.8315C677.436 38.1458 678.599 36.8468 680.178 36.5886C681.758 36.3304 683.219 37.0902 683.331 37.7758C683.443 38.4615 682.424 39.2838 680.845 39.542C679.266 39.8001 677.66 39.5171 677.548 38.8315Z" fill="#D9D9D9"/>
<path d="M683.112 31.4702C683.216 31.966 682.412 32.9507 681.27 33.191C680.128 33.4312 679.038 32.9261 678.934 32.4303C678.83 31.9345 679.545 31.3018 680.687 31.0615C681.829 30.8213 683.008 30.9744 683.112 31.4702Z" fill="#D9D9D9"/>
<path d="M703.031 41.1049C702.861 41.5527 701.893 41.8433 700.88 41.4587C699.867 41.074 699.113 40.2102 699.283 39.7624C699.453 39.3146 700.487 39.1876 701.5 39.5722C702.513 39.9569 703.201 40.6571 703.031 41.1049Z" fill="#D9D9D9"/>
<path d="M709.978 49.8329C709.978 52.1305 695.779 52.8519 685.768 52.8519C675.758 52.8519 663.384 51.7518 663.384 49.4543C663.384 47.1567 675.758 44.5316 685.768 44.5316C695.779 44.5316 709.978 47.5354 709.978 49.8329Z" fill="#671430"/>
<path d="M704.568 48.1587C704.568 49.9394 693.871 50.9798 686.087 50.9798C678.303 50.9798 668.167 49.5363 668.167 47.7557C668.167 45.9751 678.303 44.5316 686.087 44.5316C693.871 44.5316 704.568 46.3781 704.568 48.1587Z" fill="#992049"/>
<path d="M688.667 31.8258C688.945 30.2229 691.91 30.139 695.387 30.7431C698.428 31.2713 700.762 32.9828 700.484 34.5857C700.206 36.1885 697.869 37.6403 694.828 37.112C691.787 36.5837 688.388 33.4287 688.667 31.8258Z" fill="#EF7BA2"/>
<path d="M681.586 42.906C681.354 44.32 683.099 45.1323 685.32 45.4957C687.262 45.8135 689.077 44.9623 689.308 43.5483C689.539 42.1343 688.508 40.3321 686.565 40.0143C684.623 39.6965 681.817 41.4921 681.586 42.906Z" fill="#EF7BA2"/>
<path d="M670.305 38.9674C670.695 40.1506 672.937 39.8874 675.487 39.0468C677.717 38.3117 679.282 36.7583 678.892 35.5751C678.502 34.3919 676.579 33.55 674.349 34.2851C672.119 35.0203 669.915 37.7842 670.305 38.9674Z" fill="#EF7BA2"/>
<path d="M706.008 40.482C706.732 39.3301 708.585 39.1917 710.148 40.1728C711.71 41.154 712.391 42.8831 711.668 44.0351C710.945 45.187 709.902 43.7927 708.339 42.8116C706.777 41.8304 705.285 41.6339 706.008 40.482Z" fill="#D9D9D9"/>
<path d="M697.478 34.2083C697.822 33.1043 699.529 32.6548 701.291 33.2043C703.052 33.7537 704.201 35.0941 703.857 36.1981C703.513 37.302 701.953 38.1784 700.191 37.629C698.43 37.0795 697.133 35.3122 697.478 34.2083Z" fill="#D9D9D9"/>
<path d="M690.698 36.2663C690.825 35.5287 692.474 33.9218 693.999 34.1856C695.524 34.4494 696.347 36.4839 696.22 37.2215C696.092 37.959 694.782 37.9988 693.257 37.735C691.732 37.4712 690.57 37.0038 690.698 36.2663Z" fill="#D9D9D9"/>
<path d="M683.361 34.0642C683.379 33.0944 684.883 30.7069 686.552 30.7392C688.221 30.7716 690.173 32.2289 690.154 33.1987C690.135 34.1686 688.499 34.4082 686.83 34.3758C685.162 34.3434 683.342 35.0341 683.361 34.0642Z" fill="#D9D9D9"/>
<path d="M674.764 32.8055C675.119 33.7084 674.384 36.2871 672.831 36.8975C671.278 37.5078 668.235 37.2346 667.88 36.3318C667.238 35.6822 670.621 33.8249 672.113 33.0278C673.671 32.3303 674.409 31.9027 674.764 32.8055Z" fill="#D9D9D9"/>
<path d="M667.945 40.5566C667.406 39.6376 666.071 39.4194 664.964 40.0692C663.857 40.7189 663.396 41.9906 663.935 42.9095C664.474 43.8285 665.136 42.9475 666.243 42.2978C667.351 41.648 668.485 41.4756 667.945 40.5566Z" fill="#D9D9D9"/>
<path d="M685.67 44.5529L688.812 44.61L690.071 52.1951L685.816 51.9254L685.67 44.5529Z" fill="#280410"/>
<path d="M685.671 44.553L682.529 44.6102L681.566 52.1583L685.801 51.6405L685.671 44.553Z" fill="#280410"/>
<path d="M685.657 65.4011L688.624 66.6447L690.08 57.1541L685.825 57.4238L685.657 65.4011Z" fill="#280410"/>
<path d="M685.69 65.4613L682.686 66.4896L681.574 57.191L685.808 57.7089L685.69 65.4613Z" fill="#280410"/>
<rect x="681.606" y="50.4433" width="8.52825" height="8.73629" rx="2.2" fill="#280410"/>
<path d="M691.638 41.8722C691.829 40.7075 690.789 38.6538 689.21 38.3957C687.63 38.1375 686.058 39.5767 685.868 40.7415C685.677 41.9062 686.623 43.1749 688.202 43.433C689.782 43.6912 691.448 43.037 691.638 41.8722Z" fill="#D9D9D9"/>
<path d="M851.561 912.424C858.059 914.935 871.024 923.455 870.906 937.454" stroke="#AAD37F" stroke-width="1.32" stroke-linecap="round" stroke-linejoin="round"/>
<path d="M924.829 949.928C924.829 946.421 921.987 943.578 918.48 943.578C914.973 943.578 912.13 946.421 912.13 949.928V960.708C912.13 964.215 914.973 967.058 918.48 967.058C921.987 967.058 924.829 964.215 924.829 960.708V949.928Z" fill="#F0D1D1"/>
<path d="M887.568 921.439C884.99 928.127 879.438 936.009 869.873 928.151" stroke="#F0D1D1" stroke-width="6.59999" stroke-linecap="round" stroke-linejoin="round"/>
<path d="M930.27 922.466C933.076 924.533 950.279 926.084 934.774 938.414" stroke="#F0D1D1" stroke-width="6.59999" stroke-linecap="round" stroke-linejoin="round"/>
<path d="M904.682 949.928C904.682 946.421 901.839 943.578 898.332 943.578C894.825 943.578 891.982 946.421 891.982 949.928V960.708C891.982 964.215 894.825 967.058 898.332 967.058C901.839 967.058 904.682 964.215 904.682 960.708V949.928Z" fill="#F0D1D1"/>
<path d="M940.589 951.553H876.222V952.682C876.222 954.298 877.532 955.608 879.148 955.608C880.763 955.608 882.073 954.298 882.073 952.682H882.08C882.079 952.727 882.073 952.771 882.073 952.815C882.073 954.431 883.383 955.74 884.998 955.74C886.614 955.74 887.924 954.431 887.924 952.815C887.924 952.771 887.919 952.727 887.916 952.682H887.924C887.924 954.298 889.233 955.608 890.849 955.608C892.464 955.608 893.774 954.298 893.774 952.682H893.782C893.78 952.727 893.774 952.771 893.774 952.815C893.774 954.431 895.084 955.74 896.7 955.74C898.315 955.74 899.625 954.431 899.625 952.815C899.625 952.771 899.621 952.727 899.618 952.682H899.625C899.625 954.298 900.935 955.608 902.55 955.608C904.166 955.608 905.476 954.298 905.476 952.682H905.483C905.482 952.727 905.476 952.771 905.476 952.815C905.476 954.431 906.786 955.74 908.401 955.74C910.017 955.74 911.326 954.431 911.326 952.815C911.326 952.771 911.322 952.727 911.319 952.682H911.326C911.326 954.298 912.636 955.608 914.252 955.608C915.867 955.608 917.177 954.298 917.177 952.682H917.184C917.183 952.727 917.177 952.771 917.177 952.815C917.177 954.431 918.487 955.74 920.102 955.74C921.718 955.74 923.028 954.431 923.028 952.815C923.028 952.771 923.023 952.727 923.02 952.682H923.028C923.028 954.298 924.338 955.608 925.953 955.608C927.569 955.608 928.879 954.298 928.879 952.682H928.886C928.884 952.727 928.879 952.771 928.879 952.815C928.879 954.431 930.188 955.74 931.804 955.74C933.419 955.74 934.729 954.431 934.729 952.815C934.729 952.771 934.725 952.727 934.722 952.682H934.732C934.732 952.704 934.729 952.727 934.729 952.749C934.729 954.364 936.039 955.674 937.655 955.674C939.27 955.674 940.58 954.364 940.58 952.749C940.58 952.727 940.577 952.704 940.577 952.682H940.58V951.553H940.589Z" fill="#F6E972"/>
<path d="M940.607 951.553L940.589 951.482V951.553H940.607Z" fill="#AAD37F"/>
<path d="M939.718 948.159L931.545 916.998H885.283L877.111 948.159L876.222 951.553H940.589V951.482L939.718 948.159Z" fill="#AAD37F"/>
<path d="M921.195 915.079C921.225 914.738 921.242 914.393 921.242 914.044C921.242 907.437 915.888 902.083 909.281 902.083C902.674 902.083 897.32 907.437 897.32 914.044C897.32 914.396 897.337 914.743 897.368 915.087C896.023 915.177 894.957 916.293 894.957 917.662C894.957 919.031 896.113 920.246 897.541 920.246C897.943 920.246 898.322 920.152 898.662 919.988C898.113 920.462 897.763 921.162 897.763 921.945C897.763 923.371 898.919 924.529 900.347 924.529C900.898 924.529 901.407 924.355 901.827 924.062C901.778 924.26 901.75 924.465 901.75 924.676C901.75 926.103 902.906 927.261 904.334 927.261C905.388 927.261 906.294 926.629 906.695 925.722C906.697 925.722 906.698 925.722 906.701 925.722C906.747 927.109 907.883 928.219 909.281 928.219C910.68 928.219 911.815 927.109 911.861 925.722C911.862 925.722 911.864 925.722 911.867 925.722C912.268 926.627 913.174 927.261 914.228 927.261C915.656 927.261 916.812 926.103 916.812 924.676C916.812 924.464 916.784 924.259 916.735 924.062C917.155 924.356 917.664 924.529 918.215 924.529C919.643 924.529 920.799 923.371 920.799 921.945C920.799 921.087 920.379 920.328 919.735 919.858C919.741 919.846 919.748 919.836 919.754 919.824C920.16 920.091 920.646 920.246 921.169 920.246C922.597 920.246 923.753 919.089 923.753 917.662C923.753 916.236 922.61 915.094 921.195 915.079Z" fill="#F6E972"/>
<path d="M909.282 921.945C913.645 921.945 917.182 918.407 917.182 914.044C917.182 909.681 913.645 906.144 909.282 906.144C904.918 906.144 901.381 909.681 901.381 914.044C901.381 918.407 904.918 921.945 909.282 921.945Z" fill="#F0D1D1"/>
<path d="M879.107 810.003C881.392 804.066 888.209 802.024 894.413 803.423C901.544 805.031 906.579 811.035 905.048 818.182C901.678 833.914 893.971 855.866 903.875 867.453H890.987C879.078 852.864 872.365 827.505 879.107 810.001V810.003Z" fill="#F0D1D1"/>
<path d="M883.608 818.26C885.019 813.582 889.228 811.973 893.06 813.076C897.464 814.343 900.573 819.076 899.627 824.709C897.546 837.108 892.787 854.41 898.903 863.542H890.944C883.591 852.045 879.445 832.057 883.608 818.262V818.26Z" fill="#D96892"/>
<path d="M927.615 867.528H914.726C924.63 855.942 916.923 833.989 913.554 818.258C912.022 811.109 917.058 805.106 924.189 803.498C930.394 802.098 937.209 804.142 939.495 810.077C946.236 827.582 939.523 852.94 927.615 867.528Z" fill="#F0D1D1"/>
<path d="M927.658 863.541H919.698C925.813 854.409 921.056 837.108 918.975 824.708C918.03 819.074 921.138 814.343 925.542 813.074C929.374 811.971 933.582 813.582 934.994 818.259C939.157 832.055 935.012 852.042 927.658 863.539V863.541Z" fill="#D96892"/>
<path d="M930.048 855.788H888.553C871.141 855.788 857.025 869.903 857.025 887.316C857.025 904.728 871.141 918.843 888.553 918.843H930.048C947.461 918.843 961.576 904.728 961.576 887.316C961.576 869.903 947.461 855.788 930.048 855.788Z" fill="#F0D1D1"/>
<path d="M953.011 893.444C953.011 879.417 941.639 868.045 927.612 868.045H890.989C876.962 868.045 865.59 879.417 865.59 893.444C865.59 897.787 866.681 901.873 868.601 905.448C870.28 903.437 872.807 902.157 875.632 902.157C880.688 902.157 884.787 906.256 884.787 911.312C884.787 913.641 883.916 915.766 882.484 917.382C885.143 918.327 888.007 918.843 890.989 918.843H927.612C930.596 918.843 933.458 918.327 936.118 917.382C934.685 915.766 933.814 913.641 933.814 911.312C933.814 906.256 937.913 902.157 942.969 902.157C945.794 902.157 948.32 903.437 950 905.448C951.921 901.873 953.011 897.786 953.011 893.444Z" fill="#FFF9C8"/>
<path d="M875.632 902.157C872.807 902.157 870.282 903.437 868.601 905.448C871.565 910.965 876.509 915.259 882.484 917.381C883.916 915.766 884.787 913.641 884.787 911.312C884.787 906.256 880.688 902.157 875.632 902.157Z" fill="#D96892"/>
<path d="M942.97 902.157C937.914 902.157 933.814 906.256 933.814 911.312C933.814 913.641 934.685 915.766 936.118 917.381C942.091 915.259 947.035 910.965 950 905.448C948.321 903.437 945.795 902.157 942.97 902.157Z" fill="#D96892"/>
<path d="M931.757 902.712C931.324 902.279 930.623 902.279 930.19 902.712C926.879 906.023 922.33 907.361 918.019 906.724C915.869 906.407 913.778 905.596 911.929 904.296C911.265 903.83 910.631 903.304 910.038 902.712C909.803 902.477 909.488 902.371 909.181 902.391C908.874 902.371 908.559 902.477 908.325 902.712C907.731 903.305 907.097 903.831 906.433 904.296C904.584 905.596 902.493 906.407 900.343 906.724C896.031 907.359 891.483 906.023 888.172 902.712C887.739 902.279 887.038 902.279 886.605 902.712C886.173 903.145 886.173 903.846 886.605 904.279C889.816 907.489 894.032 909.094 898.248 909.094C899.234 909.094 900.22 909.006 901.195 908.83C904.082 908.309 906.857 907.015 909.181 904.948C911.505 907.015 914.279 908.309 917.167 908.83C918.14 909.006 919.128 909.094 920.115 909.094C924.331 909.094 928.548 907.489 931.757 904.279C932.19 903.846 932.19 903.145 931.757 902.712Z" fill="#D96892"/>
<path d="M901.195 908.828C902.688 911.577 905.386 913.485 908.516 913.722V905.503C906.335 907.245 903.813 908.356 901.195 908.828Z" fill="white"/>
<path d="M917.167 908.828C914.549 908.356 912.027 907.247 909.846 905.503V913.722C912.976 913.485 915.674 911.577 917.167 908.828Z" fill="white"/>
<path d="M909.181 904.946C908.964 905.14 908.741 905.324 908.517 905.503V913.722C908.737 913.739 908.958 913.747 909.181 913.747C909.404 913.747 909.626 913.739 909.846 913.722V905.503C909.621 905.323 909.398 905.14 909.181 904.946Z" fill="#EBEBEB"/>
<path d="M909.181 903.532C907.082 903.532 904.984 902.733 903.386 901.135C902.319 900.069 902.319 898.338 903.386 897.272C904.452 896.206 906.183 896.206 907.249 897.272C908.314 898.337 910.048 898.337 911.112 897.272C912.178 896.206 913.909 896.206 914.975 897.272C916.043 898.338 916.043 900.069 914.975 901.135C913.378 902.733 911.279 903.532 909.181 903.532Z" fill="#D96892"/>
<path d="M892.614 898.686C896.488 898.686 899.628 895.546 899.628 891.672C899.628 887.798 896.488 884.658 892.614 884.658C888.74 884.658 885.599 887.798 885.599 891.672C885.599 895.546 888.74 898.686 892.614 898.686Z" fill="#004042"/>
<path d="M925.987 898.686C929.861 898.686 933.002 895.546 933.002 891.672C933.002 887.798 929.861 884.658 925.987 884.658C922.113 884.658 918.973 887.798 918.973 891.672C918.973 895.546 922.113 898.686 925.987 898.686Z" fill="#004042"/>
<path d="M934.138 882.773C933.441 886.041 930.54 888.494 927.062 888.494C927.047 888.494 927.034 888.494 927.019 888.494V891.304C931.015 891.304 934.255 888.064 934.255 884.069C934.255 883.627 934.214 883.194 934.137 882.775L934.138 882.773Z" fill="#004042"/>
<path d="M884.462 882.773C885.159 886.041 888.061 888.494 891.538 888.494C891.553 888.494 891.566 888.494 891.581 888.494V891.304C887.585 891.304 884.345 888.064 884.345 884.069C884.345 883.627 884.387 883.194 884.463 882.775L884.462 882.773Z" fill="#004042"/>
<path d="M892.378 891.309C893.795 891.309 894.944 890.16 894.944 888.742C894.944 887.325 893.795 886.176 892.378 886.176C890.96 886.176 889.811 887.325 889.811 888.742C889.811 890.16 890.96 891.309 892.378 891.309Z" fill="white"/>
<path d="M926.223 891.309C927.641 891.309 928.79 890.16 928.79 888.742C928.79 887.325 927.641 886.176 926.223 886.176C924.806 886.176 923.657 887.325 923.657 888.742C923.657 890.16 924.806 891.309 926.223 891.309Z" fill="white"/>
<path d="M948.41 849.852L945.632 850.253L947.88 848.574C949.039 847.579 948.9 845.62 947.575 844.295C946.251 842.97 944.291 842.831 943.296 843.991L941.617 846.238L942.019 843.461C942.135 841.937 940.65 840.65 938.777 840.65C936.905 840.65 935.421 841.938 935.536 843.461L935.937 846.238L934.258 843.991C933.263 842.831 931.304 842.97 929.979 844.295C928.654 845.62 928.516 847.579 929.675 848.574L931.922 850.253L929.145 849.852C927.621 849.735 926.334 851.221 926.334 853.093C926.334 854.966 927.622 856.45 929.145 856.335L931.922 855.933L929.675 857.612C928.516 858.607 928.654 860.567 929.979 861.891C931.304 863.216 933.263 863.355 934.258 862.196L935.937 859.948L935.536 862.726C935.419 864.25 936.905 865.536 938.777 865.536C940.65 865.536 942.134 864.248 942.019 862.726L941.617 859.948L943.296 862.196C944.291 863.355 946.251 863.216 947.575 861.891C948.9 860.567 949.039 858.607 947.88 857.612L945.632 855.933L948.41 856.335C949.934 856.451 951.22 854.966 951.22 853.093C951.22 851.221 949.932 849.737 948.41 849.852ZM938.717 853.118V853.067L938.754 853.03H938.805L938.842 853.067V853.118L938.805 853.155H938.754L938.717 853.118Z" fill="white"/>
<path d="M938.778 857.64C941.289 857.64 943.325 855.604 943.325 853.093C943.325 850.582 941.289 848.546 938.778 848.546C936.267 848.546 934.231 850.582 934.231 853.093C934.231 855.604 936.267 857.64 938.778 857.64Z" fill="#F6E972"/>
<path d="M908.406 936.638C909.629 936.638 910.621 935.646 910.621 934.423C910.621 933.199 909.629 932.208 908.406 932.208C907.183 932.208 906.191 933.199 906.191 934.423C906.191 935.646 907.183 936.638 908.406 936.638Z" fill="#688C3C"/>
<path d="M865.973 923.68C863.926 920.414 864.915 916.107 868.181 914.061C870.227 917.327 869.239 921.633 865.973 923.68Z" fill="#AAD37F"/>
<path d="M908.406 945.941C909.629 945.941 910.621 944.949 910.621 943.726C910.621 942.503 909.629 941.511 908.406 941.511C907.183 941.511 906.191 942.503 906.191 943.726C906.191 944.949 907.183 945.941 908.406 945.941Z" fill="#688C3C"/>
<ellipse cx="870.093" cy="928.593" rx="6.71901" ry="6.71902" transform="rotate(-3.90244 870.093 928.593)" fill="#F0D1D1"/>
<path d="M854.417 912.86L862.984 910.554C864.007 910.278 864.921 911.259 864.574 912.26L863.8 914.497L863.771 916.865C863.757 917.924 862.565 918.537 861.696 917.931L854.417 912.86Z" fill="#D96892"/>
<path d="M854.835 912.201L859.655 919.649C860.231 920.538 859.578 921.708 858.519 921.686L856.152 921.635L853.889 922.332C852.877 922.644 851.928 921.697 852.238 920.684L854.835 912.201Z" fill="#D96892"/>
<path d="M854.741 912.258L849.76 919.599C849.165 920.475 847.832 920.33 847.441 919.346L846.566 917.146L845.042 915.333C844.36 914.523 844.863 913.28 845.916 913.171L854.741 912.258Z" fill="#D96892"/>
<path d="M854.72 912.657L846.143 910.393C845.119 910.122 844.814 908.817 845.612 908.121L847.397 906.566L848.602 904.527C849.14 903.615 850.479 903.677 850.932 904.635L854.72 912.657Z" fill="#D96892"/>
<path d="M854.679 913.15L861.6 907.6C862.426 906.938 862.174 905.621 861.162 905.309L858.9 904.612L856.972 903.238C856.11 902.623 854.911 903.223 854.886 904.282L854.679 913.15Z" fill="#D96892"/>
<ellipse cx="854.293" cy="912.498" rx="3.91327" ry="3.91328" fill="#F6E972"/>
<path d="M429.702 99.1V83.7H436.984C438.685 83.7 440.181 84.0153 441.472 84.646C442.763 85.2767 443.767 86.164 444.486 87.308C445.219 88.452 445.586 89.816 445.586 91.4C445.586 92.9693 445.219 94.3333 444.486 95.492C443.767 96.636 442.763 97.5233 441.472 98.154C440.181 98.7847 438.685 99.1 436.984 99.1H429.702ZM434.058 95.624H436.808C437.688 95.624 438.451 95.4627 439.096 95.14C439.756 94.8027 440.269 94.3187 440.636 93.688C441.003 93.0427 441.186 92.28 441.186 91.4C441.186 90.5053 441.003 89.7427 440.636 89.112C440.269 88.4813 439.756 88.0047 439.096 87.682C438.451 87.3447 437.688 87.176 436.808 87.176H434.058V95.624Z" fill="#FFB23E"/>
<path d="M528.903 89.662H536.053V92.918H528.903V89.662ZM529.211 95.734H537.263V99.1H524.899V83.7H536.977V87.066H529.211V95.734Z" fill="#FFB23E"/>
<path d="M623.88 90.454H630.986V93.82H623.88V90.454ZM624.188 99.1H619.832V83.7H631.91V87.066H624.188V99.1Z" fill="#FFB23E"/>
<path d="M719.625 99.408C718.408 99.408 717.278 99.2173 716.237 98.836C715.196 98.44 714.294 97.8827 713.531 97.164C712.783 96.4453 712.196 95.602 711.771 94.634C711.346 93.6513 711.133 92.5733 711.133 91.4C711.133 90.2267 711.346 89.156 711.771 88.188C712.196 87.2053 712.79 86.3547 713.553 85.636C714.316 84.9173 715.218 84.3673 716.259 83.986C717.315 83.59 718.466 83.392 719.713 83.392C721.165 83.392 722.463 83.634 723.607 84.118C724.751 84.602 725.697 85.2987 726.445 86.208L723.673 88.716C723.145 88.144 722.573 87.7187 721.957 87.44C721.356 87.1467 720.681 87 719.933 87C719.273 87 718.672 87.1027 718.129 87.308C717.586 87.5133 717.124 87.814 716.743 88.21C716.362 88.5913 716.061 89.0533 715.841 89.596C715.636 90.124 715.533 90.7253 715.533 91.4C715.533 92.0453 715.636 92.6393 715.841 93.182C716.061 93.7247 716.362 94.194 716.743 94.59C717.124 94.9713 717.579 95.272 718.107 95.492C718.65 95.6973 719.244 95.8 719.889 95.8C720.534 95.8 721.165 95.6973 721.781 95.492C722.397 95.272 723.02 94.9053 723.651 94.392L726.093 97.45C725.213 98.0807 724.194 98.5647 723.035 98.902C721.876 99.2393 720.74 99.408 719.625 99.408ZM722.243 96.878V91.07H726.093V97.45L722.243 96.878Z" fill="#FFB23E"/>
<path d="M816.424 83.7H820.78V99.1H816.424V83.7ZM810.484 99.1H806.128V83.7H810.484V99.1ZM816.732 93.094H810.176V89.486H816.732V93.094Z" fill="#FFB23E"/>
<path d="M145.595 99.1L152.393 83.7H156.683L163.503 99.1H158.971L153.647 85.834H155.363L150.039 99.1H145.595ZM149.313 96.108L150.435 92.896H157.959L159.081 96.108H149.313Z" fill="#FFB23E"/>
<path d="M89.284 160.7V146.862L91.154 148.666H86.424V145.3H93.64V160.7H89.284Z" fill="#FFB23E"/>
<path d="M84.8251 252V249.272L90.5891 243.882C90.9997 243.501 91.3004 243.163 91.4911 242.87C91.6964 242.577 91.8284 242.313 91.8871 242.078C91.9604 241.829 91.9971 241.601 91.9971 241.396C91.9971 240.897 91.8284 240.509 91.4911 240.23C91.1684 239.951 90.6771 239.812 90.0171 239.812C89.4597 239.812 88.9391 239.937 88.4551 240.186C87.9711 240.435 87.5751 240.809 87.2671 241.308L84.0331 239.504C84.6051 238.536 85.4337 237.759 86.5191 237.172C87.6044 236.585 88.9024 236.292 90.4131 236.292C91.6011 236.292 92.6424 236.483 93.5371 236.864C94.4317 237.245 95.1284 237.788 95.6271 238.492C96.1404 239.196 96.3971 240.025 96.3971 240.978C96.3971 241.477 96.3311 241.975 96.1991 242.474C96.0671 242.958 95.8104 243.479 95.4291 244.036C95.0624 244.579 94.5124 245.187 93.7791 245.862L89.2031 250.086L88.4771 248.546H96.8151V252H84.8251Z" fill="#FFB23E"/>
<path d="M90.0181 345.808C88.9474 345.808 87.8768 345.676 86.8061 345.412C85.7501 345.148 84.8261 344.774 84.0341 344.29L85.6181 341.012C86.2341 341.423 86.9161 341.738 87.6641 341.958C88.4268 342.178 89.1674 342.288 89.8861 342.288C90.6341 342.288 91.2281 342.149 91.6681 341.87C92.1081 341.591 92.3281 341.195 92.3281 340.682C92.3281 340.227 92.1448 339.868 91.7781 339.604C91.4114 339.325 90.8101 339.186 89.9741 339.186H88.1481V336.436L92.2841 331.97L92.7021 333.466H84.8261V330.1H95.9581V332.828L91.8221 337.294L89.6881 336.084H90.8761C92.7974 336.084 94.2494 336.517 95.2321 337.382C96.2294 338.233 96.7281 339.333 96.7281 340.682C96.7281 341.562 96.4861 342.391 96.0021 343.168C95.5328 343.945 94.8068 344.583 93.8241 345.082C92.8414 345.566 91.5728 345.808 90.0181 345.808Z" fill="#FFB23E"/>
<path d="M83.6419 436.052V433.214L90.5499 423.6H95.0599L88.3499 433.214L86.2819 432.598H98.3159V436.052H83.6419ZM91.7819 439V436.052L91.9139 432.598V429.98H96.0279V439H91.7819Z" fill="#FFB23E"/>
<path d="M90.2064 532.808C89.1504 532.808 88.0871 532.676 87.0164 532.412C85.9457 532.148 85.0217 531.774 84.2444 531.29L85.8064 528.012C86.4371 528.423 87.1191 528.738 87.8524 528.958C88.6004 529.178 89.3411 529.288 90.0744 529.288C90.8077 529.288 91.4017 529.149 91.8564 528.87C92.3111 528.577 92.5384 528.173 92.5384 527.66C92.5384 527.352 92.4504 527.081 92.2744 526.846C92.0984 526.597 91.7977 526.413 91.3724 526.296C90.9471 526.164 90.3384 526.098 89.5464 526.098H85.3664L86.1364 517.1H95.9484V520.466H87.6764L89.8984 518.552L89.3924 524.624L87.1704 522.71H90.5804C92.1057 522.71 93.3304 522.93 94.2544 523.37C95.1784 523.795 95.8531 524.375 96.2784 525.108C96.7037 525.827 96.9164 526.641 96.9164 527.55C96.9164 528.459 96.6744 529.317 96.1904 530.124C95.7211 530.916 94.9951 531.561 94.0124 532.06C93.0297 532.559 91.7611 532.808 90.2064 532.808Z" fill="#FFB23E"/>
<path d="M91.4825 626.308C90.0451 626.308 88.7911 626.022 87.7205 625.45C86.6645 624.878 85.8358 624.027 85.2345 622.898C84.6478 621.769 84.3545 620.375 84.3545 618.718C84.3545 616.929 84.6991 615.411 85.3885 614.164C86.0925 612.903 87.0531 611.942 88.2705 611.282C89.5025 610.622 90.9251 610.292 92.5385 610.292C93.4038 610.292 94.2325 610.395 95.0245 610.6C95.8311 610.791 96.5131 611.062 97.0705 611.414L95.4865 614.538C95.0465 614.23 94.5845 614.025 94.1005 613.922C93.6311 613.805 93.1471 613.746 92.6485 613.746C91.4605 613.746 90.5071 614.105 89.7885 614.824C89.0845 615.543 88.7325 616.591 88.7325 617.97C88.7325 618.219 88.7325 618.483 88.7325 618.762C88.7471 619.026 88.7765 619.297 88.8205 619.576L87.7205 618.674C88.0138 618.131 88.3658 617.677 88.7765 617.31C89.2018 616.943 89.7005 616.665 90.2725 616.474C90.8591 616.283 91.5118 616.188 92.2305 616.188C93.1985 616.188 94.0785 616.393 94.8705 616.804C95.6771 617.2 96.3225 617.765 96.8065 618.498C97.2905 619.217 97.5325 620.067 97.5325 621.05C97.5325 622.121 97.2611 623.052 96.7185 623.844C96.1758 624.621 95.4498 625.23 94.5405 625.67C93.6311 626.095 92.6118 626.308 91.4825 626.308ZM91.2185 623.206C91.6291 623.206 91.9885 623.125 92.2965 622.964C92.6191 622.803 92.8685 622.575 93.0445 622.282C93.2205 621.989 93.3085 621.644 93.3085 621.248C93.3085 620.661 93.1105 620.192 92.7145 619.84C92.3331 619.488 91.8271 619.312 91.1965 619.312C90.7711 619.312 90.3971 619.393 90.0745 619.554C89.7665 619.715 89.5171 619.943 89.3265 620.236C89.1505 620.529 89.0625 620.874 89.0625 621.27C89.0625 621.651 89.1505 621.989 89.3265 622.282C89.5025 622.561 89.7518 622.788 90.0745 622.964C90.3971 623.125 90.7785 623.206 91.2185 623.206Z" fill="#FFB23E"/>
<path d="M86.8798 719.5L92.8858 705.706L94.0518 707.554H86.2418L88.0238 705.552V709.93H84.3058V704.1H97.0658V706.828L91.6318 719.5H86.8798Z" fill="#FFB23E"/>
<path d="M90.7396 813.308C89.405 813.308 88.239 813.11 87.2416 812.714C86.2443 812.318 85.4596 811.761 84.8876 811.042C84.3303 810.309 84.0516 809.451 84.0516 808.468C84.0516 807.5 84.3303 806.679 84.8876 806.004C85.4596 805.315 86.2443 804.794 87.2416 804.442C88.2536 804.075 89.4196 803.892 90.7396 803.892C92.0596 803.892 93.2183 804.075 94.2156 804.442C95.2276 804.794 96.0123 805.315 96.5696 806.004C97.1416 806.679 97.4276 807.5 97.4276 808.468C97.4276 809.451 97.149 810.309 96.5916 811.042C96.0343 811.761 95.2496 812.318 94.2376 812.714C93.2403 813.11 92.0743 813.308 90.7396 813.308ZM90.7396 810.25C91.4436 810.25 92.001 810.081 92.4116 809.744C92.837 809.407 93.0496 808.937 93.0496 808.336C93.0496 807.749 92.837 807.287 92.4116 806.95C92.001 806.598 91.4436 806.422 90.7396 806.422C90.0356 806.422 89.471 806.598 89.0456 806.95C88.635 807.287 88.4296 807.749 88.4296 808.336C88.4296 808.937 88.635 809.407 89.0456 809.744C89.471 810.081 90.0356 810.25 90.7396 810.25ZM90.7396 806.048C89.537 806.048 88.4736 805.879 87.5496 805.542C86.6403 805.205 85.9216 804.721 85.3936 804.09C84.8656 803.445 84.6016 802.675 84.6016 801.78C84.6016 800.856 84.8583 800.064 85.3716 799.404C85.8996 798.744 86.6256 798.231 87.5496 797.864C88.4736 797.483 89.537 797.292 90.7396 797.292C91.957 797.292 93.0203 797.483 93.9296 797.864C94.8536 798.231 95.5723 798.744 96.0856 799.404C96.6136 800.064 96.8776 800.856 96.8776 801.78C96.8776 802.675 96.6136 803.445 96.0856 804.09C95.5723 804.721 94.8536 805.205 93.9296 805.542C93.0056 805.879 91.9423 806.048 90.7396 806.048ZM90.7396 803.584C91.297 803.584 91.7443 803.445 92.0816 803.166C92.419 802.873 92.5876 802.477 92.5876 801.978C92.5876 801.45 92.4116 801.047 92.0596 800.768C91.7223 800.489 91.2823 800.35 90.7396 800.35C90.197 800.35 89.757 800.489 89.4196 800.768C89.0823 801.047 88.9136 801.45 88.9136 801.978C88.9136 802.477 89.0823 802.873 89.4196 803.166C89.757 803.445 90.197 803.584 90.7396 803.584Z" fill="#FFB23E"/>
<path d="M242.236 99.1V83.7H250.112C252.136 83.7 253.647 84.074 254.644 84.822C255.641 85.5553 256.14 86.5233 256.14 87.726C256.14 88.518 255.927 89.2147 255.502 89.816C255.091 90.4027 254.505 90.872 253.742 91.224C252.994 91.5613 252.099 91.73 251.058 91.73L251.498 90.674C252.583 90.674 253.529 90.8427 254.336 91.18C255.143 91.5027 255.766 91.9793 256.206 92.61C256.661 93.226 256.888 93.9813 256.888 94.876C256.888 96.2107 256.345 97.252 255.26 98C254.189 98.7333 252.62 99.1 250.552 99.1H242.236ZM246.548 95.954H250.2C250.948 95.954 251.513 95.8293 251.894 95.58C252.29 95.316 252.488 94.92 252.488 94.392C252.488 93.864 252.29 93.4753 251.894 93.226C251.513 92.962 250.948 92.83 250.2 92.83H246.24V89.816H249.54C250.273 89.816 250.823 89.6913 251.19 89.442C251.557 89.1927 251.74 88.8187 251.74 88.32C251.74 87.8213 251.557 87.4547 251.19 87.22C250.823 86.9707 250.273 86.846 249.54 86.846H246.548V95.954Z" fill="#FFB23E"/>
<path d="M343.747 99.408C342.53 99.408 341.4 99.2173 340.359 98.836C339.332 98.44 338.438 97.8827 337.675 97.164C336.927 96.4453 336.34 95.602 335.915 94.634C335.49 93.6513 335.277 92.5733 335.277 91.4C335.277 90.2267 335.49 89.156 335.915 88.188C336.34 87.2053 336.927 86.3547 337.675 85.636C338.438 84.9173 339.332 84.3673 340.359 83.986C341.4 83.59 342.53 83.392 343.747 83.392C345.17 83.392 346.438 83.6413 347.553 84.14C348.682 84.6387 349.621 85.3573 350.369 86.296L347.597 88.804C347.098 88.2173 346.548 87.77 345.947 87.462C345.36 87.154 344.7 87 343.967 87C343.336 87 342.757 87.1027 342.229 87.308C341.701 87.5133 341.246 87.814 340.865 88.21C340.498 88.5913 340.205 89.0533 339.985 89.596C339.78 90.1387 339.677 90.74 339.677 91.4C339.677 92.06 339.78 92.6613 339.985 93.204C340.205 93.7467 340.498 94.216 340.865 94.612C341.246 94.9933 341.701 95.2867 342.229 95.492C342.757 95.6973 343.336 95.8 343.967 95.8C344.7 95.8 345.36 95.646 345.947 95.338C346.548 95.03 347.098 94.5827 347.597 93.996L350.369 96.504C349.621 97.428 348.682 98.1467 347.553 98.66C346.438 99.1587 345.17 99.408 343.747 99.408Z" fill="#FFB23E"/>
</svg>
