<svg width="146" height="118" viewBox="0 0 146 118" fill="none" xmlns="http://www.w3.org/2000/svg">
<path d="M113.659 75.8685C113.659 91.4331 95.7535 104.051 73.6656 104.051C51.5777 104.051 33.6719 91.4331 33.6719 75.8685C33.6719 60.304 51.5777 47.6865 73.6656 47.6865C95.7535 47.6865 113.659 60.304 113.659 75.8685Z" fill="#191824"/>
<path d="M69.8943 47.8661L42.2174 58.5798L49.088 50.9909L49.088 43.0758L57.7777 46.9095L69.8943 47.8661Z" fill="#191824"/>
<path d="M74.1681 48.2486L105.215 58.5822L98.3443 50.9934L98.3443 43.0783L89.6546 46.912L74.1681 48.2486Z" fill="#191824"/>
<path d="M107.235 72.1C107.235 85.2048 92.1585 95.8284 73.5611 95.8284C54.9638 95.8284 39.8877 85.2048 39.8877 72.1C39.8877 58.9951 54.9638 48.3716 73.5611 48.3716C92.1585 48.3716 107.235 58.9951 107.235 72.1Z" fill="#1F1E2E"/>
<path d="M70.3861 48.5228L47.0829 57.5434L52.8678 51.1538L52.8678 44.4896L60.1842 47.7174L70.3861 48.5228Z" fill="#1F1E2E"/>
<path d="M73.9856 48.8448L100.126 57.5454L94.3411 51.1558L94.3411 44.4916L87.0247 47.7194L73.9856 48.8448Z" fill="#1F1E2E"/>
<ellipse cx="73.5794" cy="38.3602" rx="30.72" ry="10.24" fill="#27233C"/>
<ellipse cx="73.5784" cy="37.5604" rx="28.8" ry="9.75999" fill="#383450"/>
<ellipse cx="73.5792" cy="38.2002" rx="25.92" ry="6.24" fill="#151420"/>
<ellipse cx="73.0992" cy="32.7602" rx="10.4" ry="7.51999" fill="#BD7E96"/>
<ellipse cx="86.5391" cy="36.1202" rx="5.92001" ry="5.76" fill="#BD7E96"/>
<path d="M64.9396 38.4347C64.9396 41.4802 62.2891 41.2356 59.0196 41.2356C55.7501 41.2356 53.0996 41.4802 53.0996 38.4347C53.0996 35.3892 55.7501 32.9203 59.0196 32.9203C62.2891 32.9203 64.9396 35.3892 64.9396 38.4347Z" fill="#BD7E96"/>
<path d="M96.6191 40.55C96.6191 42.0512 86.3836 44.4404 74.0271 44.4404C61.6706 44.4404 50.5391 42.1885 50.5391 40.6873C50.5391 39.1861 61.4726 37.4004 73.8291 37.4004C86.1856 37.4004 96.6191 39.0488 96.6191 40.55Z" fill="#BD7E96"/>
<path d="M55.9805 105.347L67.2768 101.08L78.3805 103.436L57.2641 113.88L58.2911 112.989L58.8045 112.033L59.1896 110.823L59.318 109.677L59.0613 108.212L58.3553 106.557L57.3283 105.665L55.9805 105.347Z" fill="#5F402C"/>
<path d="M38.6363 96.835L50.6672 95.8484L60.6708 101.196L37.4945 105.42L38.7284 104.845L39.487 104.066L40.1933 103.005L40.6354 101.935L40.7965 100.452L40.5793 98.6595L39.8416 97.5153L38.6363 96.835Z" fill="#5F402C"/>
<ellipse cx="37.7101" cy="101.168" rx="3.00471" ry="4.35164" transform="matrix(0.960822 0.277167 -0.277168 0.960821 29.5181 -6.48838)" fill="#3E2318"/>
<path d="M99.0998 102.065L87.3874 99.143L76.6499 102.8L98.8363 110.721L97.7119 109.954L97.0894 109.062L96.5641 107.901L96.3011 106.774L96.3824 105.284L96.8869 103.55L97.8002 102.541L99.0998 102.065Z" fill="#5F402C"/>
<ellipse cx="3.00471" cy="4.35164" rx="3.00471" ry="4.35164" transform="matrix(-0.993022 0.117929 0.11793 0.993022 101.783 101.816)" fill="#3E2318"/>
<path d="M115.165 94.1414L103.134 93.1548L93.13 98.5019L116.306 102.726L115.072 102.151L114.314 101.372L113.607 100.312L113.165 99.2418L113.004 97.7582L113.221 95.9659L113.959 94.8217L115.165 94.1414Z" fill="#5F402C"/>
<ellipse cx="3.00471" cy="4.35164" rx="3.00471" ry="4.35164" transform="matrix(-0.960822 0.277167 0.277168 0.960822 117.771 93.4609)" fill="#3E2318"/>
<ellipse cx="56.4599" cy="109.56" rx="3.04" ry="4.32" fill="#3E2318"/>
<ellipse cx="109.184" cy="20.21" rx="4.85007" ry="4.85006" fill="#E28EAE"/>
<path d="M112.782 22.5865C111.989 23.6262 110.966 24.1789 110.497 23.8211C110.027 23.4632 111.31 23.1082 112.102 22.0685C112.895 21.0288 112.897 19.6981 113.366 20.056C113.836 20.4138 113.574 21.5468 112.782 22.5865Z" fill="#D3E8E8"/>
<path d="M105.5 18.2755C106.144 17.138 107.083 16.4517 107.597 16.7426C108.11 17.0335 106.888 17.5591 106.244 18.6966C105.6 19.8341 105.778 21.1528 105.264 20.8619C104.75 20.5709 104.856 19.413 105.5 18.2755Z" fill="#D3E8E8"/>
<path d="M68.2704 27.2013C70.5237 26.0493 72.6815 25.7633 73.09 26.5624C73.4986 27.3615 71.1151 27.206 68.8618 28.358C66.6086 29.51 65.3389 31.5332 64.9303 30.7341C64.5218 29.935 66.0172 28.3533 68.2704 27.2013Z" fill="#D3E8E8"/>
<path d="M55.1079 35.2154C55.9877 34.2314 57.0612 33.7558 57.5056 34.1531C57.95 34.5504 56.631 34.8065 55.7512 35.7906C54.8714 36.7746 54.7639 38.114 54.3195 37.7167C53.8751 37.3193 54.2281 36.1995 55.1079 35.2154Z" fill="#D3E8E8"/>
<path d="M90.485 32.9541C89.6461 31.935 88.5929 31.4159 88.1326 31.7948C87.6724 32.1737 88.9799 32.4834 89.8188 33.5025C90.6577 34.5216 90.7104 35.8643 91.1707 35.4854C91.6309 35.1065 91.3239 33.9732 90.485 32.9541Z" fill="#D3E8E8"/>
<ellipse cx="108.756" cy="16.6439" rx="0.713245" ry="0.713244" fill="#D3E8E8"/>
<ellipse cx="64.225" cy="32.8581" rx="0.713245" ry="0.713244" fill="#D3E8E8"/>
<ellipse cx="45.5532" cy="2.69387" rx="2.69387" ry="2.69387" fill="#E28EAE"/>
<path d="M47.5512 4.01378C47.111 4.59126 46.5428 4.89827 46.282 4.6995C46.0212 4.50073 46.7335 4.30355 47.1737 3.72606C47.6138 3.14858 47.6151 2.40949 47.8759 2.60826C48.1367 2.80702 47.9913 3.4363 47.5512 4.01378Z" fill="#D3E8E8"/>
<path d="M43.5071 1.61932C43.8649 0.987517 44.3863 0.606331 44.6716 0.767919C44.9569 0.929506 44.2779 1.22141 43.9201 1.85322C43.5623 2.48502 43.6612 3.21747 43.3759 3.05589C43.0906 2.8943 43.1493 2.25113 43.5071 1.61932Z" fill="#D3E8E8"/>
<ellipse cx="45.3161" cy="0.713052" rx="0.396158" ry="0.396157" fill="#D3E8E8"/>
<ellipse cx="79.652" cy="20.3629" rx="1.22037" ry="1.22037" fill="#E28EAE"/>
<path d="M80.5573 20.9611C80.358 21.2227 80.1005 21.3618 79.9824 21.2718C79.8643 21.1817 80.1869 21.0924 80.3863 20.8308C80.5857 20.5692 80.5863 20.2343 80.7044 20.3244C80.8226 20.4144 80.7567 20.6995 80.5573 20.9611Z" fill="#D3E8E8"/>
<path d="M78.725 19.8765C78.887 19.5902 79.1232 19.4176 79.2525 19.4908C79.3817 19.564 79.0741 19.6962 78.9121 19.9824C78.75 20.2686 78.7948 20.6004 78.6655 20.5272C78.5363 20.454 78.5629 20.1627 78.725 19.8765Z" fill="#D3E8E8"/>
<ellipse cx="79.5437" cy="19.4655" rx="0.179466" ry="0.179466" fill="#D3E8E8"/>
<ellipse cx="71.5026" cy="12.6436" rx="2.08369" ry="2.08369" fill="#E28EAE"/>
<path d="M73.0493 13.6646C72.7089 14.1113 72.2694 14.3488 72.0677 14.195C71.866 14.0413 72.4169 13.8888 72.7573 13.4421C73.0978 12.9954 73.0988 12.4237 73.3005 12.5775C73.5022 12.7312 73.3898 13.218 73.0493 13.6646Z" fill="#D3E8E8"/>
<path d="M69.921 11.8125C70.1977 11.3238 70.601 11.029 70.8217 11.1539C71.0424 11.2789 70.5172 11.5047 70.2405 11.9934C69.9637 12.4821 70.0402 13.0487 69.8195 12.9237C69.5988 12.7987 69.6442 12.3012 69.921 11.8125Z" fill="#D3E8E8"/>
<ellipse cx="71.3181" cy="11.1115" rx="0.306425" ry="0.306425" fill="#D3E8E8"/>
<ellipse cx="58.7675" cy="18.1483" rx="3.10832" ry="3.10831" fill="#E28EAE"/>
<path d="M61.0735 19.6713C60.5657 20.3376 59.9101 20.6918 59.6091 20.4625C59.3082 20.2331 60.1301 20.0056 60.6379 19.3393C61.1458 18.673 61.1473 17.8202 61.4482 18.0495C61.7491 18.2789 61.5814 19.005 61.0735 19.6713Z" fill="#D3E8E8"/>
<path d="M56.4067 16.9085C56.8195 16.1795 57.4211 15.7397 57.7503 15.9261C58.0796 16.1125 57.2961 16.4494 56.8833 17.1784C56.4704 17.9074 56.5845 18.7525 56.2553 18.5661C55.9261 18.3796 55.9939 17.6375 56.4067 16.9085Z" fill="#D3E8E8"/>
<ellipse cx="58.4932" cy="15.8627" rx="0.457105" ry="0.457105" fill="#D3E8E8"/>
<ellipse cx="120.838" cy="37.3391" rx="3.41915" ry="3.41914" fill="#E28EAE"/>
<path d="M123.374 39.0143C122.816 39.7473 122.094 40.137 121.763 39.8847C121.432 39.6324 122.336 39.3821 122.895 38.6492C123.454 37.9162 123.455 36.9781 123.786 37.2304C124.117 37.4827 123.933 38.2814 123.374 39.0143Z" fill="#D3E8E8"/>
<path d="M118.242 35.9753C118.696 35.1734 119.358 34.6896 119.72 34.8946C120.082 35.0997 119.22 35.4702 118.766 36.2721C118.312 37.0741 118.437 38.0037 118.075 37.7986C117.713 37.5935 117.788 36.7772 118.242 35.9753Z" fill="#D3E8E8"/>
<ellipse cx="120.537" cy="34.8251" rx="0.502816" ry="0.502815" fill="#D3E8E8"/>
<ellipse cx="97.3075" cy="17.3287" rx="1.9686" ry="1.9686" fill="#E28EAE"/>
<path d="M98.7671 18.2934C98.4455 18.7154 98.0303 18.9397 97.8397 18.7945C97.6491 18.6492 98.1696 18.5051 98.4913 18.0831C98.8129 17.6611 98.8138 17.121 99.0044 17.2663C99.195 17.4115 99.0888 17.8714 98.7671 18.2934Z" fill="#D3E8E8"/>
<path d="M95.8124 16.5434C96.0739 16.0817 96.4549 15.8031 96.6634 15.9212C96.8719 16.0393 96.3757 16.2526 96.1142 16.7143C95.8528 17.176 95.9251 17.7113 95.7165 17.5932C95.508 17.4751 95.551 17.0051 95.8124 16.5434Z" fill="#D3E8E8"/>
<ellipse cx="97.1332" cy="15.8814" rx="0.2895" ry="0.2895" fill="#D3E8E8"/>
<ellipse cx="36.1379" cy="21.5901" rx="1.48948" ry="1.48948" fill="#E28EAE"/>
<path d="M37.2425 22.32C36.9991 22.6393 36.6849 22.809 36.5407 22.6991C36.3965 22.5892 36.7904 22.4802 37.0337 22.1609C37.2771 21.8416 37.2778 21.4329 37.422 21.5428C37.5662 21.6527 37.4858 22.0007 37.2425 22.32Z" fill="#D3E8E8"/>
<path d="M35.0069 20.9958C35.2047 20.6465 35.493 20.4357 35.6508 20.5251C35.8085 20.6144 35.4331 20.7758 35.2353 21.1252C35.0374 21.4745 35.0921 21.8795 34.9344 21.7901C34.7766 21.7008 34.8091 21.3452 35.0069 20.9958Z" fill="#D3E8E8"/>
<ellipse cx="36.0071" cy="20.4949" rx="0.219041" ry="0.219041" fill="#D3E8E8"/>
<ellipse cx="46.2897" cy="24.0929" rx="1.22038" ry="1.22038" fill="#E28EAE"/>
<path d="M47.195 24.691C46.9957 24.9526 46.7382 25.0917 46.6201 25.0016C46.5019 24.9116 46.8246 24.8222 47.024 24.5606C47.2234 24.299 47.224 23.9642 47.3421 24.0542C47.4603 24.1443 47.3944 24.4294 47.195 24.691Z" fill="#D3E8E8"/>
<path d="M45.3626 23.6061C45.5247 23.3198 45.7609 23.1472 45.8902 23.2204C46.0195 23.2936 45.7118 23.4258 45.5498 23.712C45.3877 23.9982 45.4325 24.3301 45.3032 24.2569C45.1739 24.1837 45.2006 23.8923 45.3626 23.6061Z" fill="#D3E8E8"/>
<ellipse cx="46.1824" cy="23.1958" rx="0.179468" ry="0.179468" fill="#D3E8E8"/>
<path d="M64.8206 82V78.28L72.6806 70.93C73.2406 70.41 73.6506 69.95 73.9106 69.55C74.1906 69.15 74.3706 68.79 74.4506 68.47C74.5506 68.13 74.6006 67.82 74.6006 67.54C74.6006 66.86 74.3706 66.33 73.9106 65.95C73.4706 65.57 72.8006 65.38 71.9006 65.38C71.1406 65.38 70.4306 65.55 69.7706 65.89C69.1106 66.23 68.5706 66.74 68.1506 67.42L63.7406 64.96C64.5206 63.64 65.6506 62.58 67.1306 61.78C68.6106 60.98 70.3806 60.58 72.4406 60.58C74.0606 60.58 75.4806 60.84 76.7006 61.36C77.9206 61.88 78.8706 62.62 79.5506 63.58C80.2506 64.54 80.6006 65.67 80.6006 66.97C80.6006 67.65 80.5106 68.33 80.3306 69.01C80.1506 69.67 79.8006 70.38 79.2806 71.14C78.7806 71.88 78.0306 72.71 77.0306 73.63L70.7906 79.39L69.8006 77.29H81.1706V82H64.8206Z" fill="#F9D4E2"/>
</svg>
