<svg width="171" height="43" viewBox="0 0 171 43" fill="none" xmlns="http://www.w3.org/2000/svg">
<rect width="171" height="42.6444" rx="16.8889" fill="#FFB23E"/>
<path d="M69.718 1.89746H92.0545L49.5432 40.3197H25.7656L69.718 1.89746Z" fill="#F5EA83"/>
<path d="M104.765 1.89746H127.101L84.59 40.3197H60.8125L104.765 1.89746Z" fill="#F5EA83"/>
<path d="M58.2829 27.3017C57.4115 27.3017 56.5704 27.1953 55.7597 26.9825C54.9592 26.7595 54.3056 26.4758 53.7989 26.1313L54.7869 23.9121C55.2632 24.2161 55.8104 24.4694 56.4285 24.6721C57.0568 24.8646 57.68 24.9609 58.2981 24.9609C58.7136 24.9609 59.048 24.9254 59.3013 24.8545C59.5547 24.7734 59.7371 24.6721 59.8485 24.5505C59.9701 24.4187 60.0309 24.2667 60.0309 24.0945C60.0309 23.8513 59.9195 23.6587 59.6965 23.5169C59.4736 23.375 59.1848 23.2585 58.8301 23.1673C58.4755 23.0761 58.0803 22.9849 57.6445 22.8937C57.2189 22.8025 56.7883 22.6859 56.3525 22.5441C55.9269 22.4022 55.5368 22.2198 55.1821 21.9969C54.8275 21.7638 54.5387 21.4649 54.3157 21.1001C54.0928 20.7251 53.9813 20.2539 53.9813 19.6865C53.9813 19.0481 54.1536 18.4705 54.4981 17.9537C54.8528 17.4369 55.3797 17.0214 56.0789 16.7073C56.7781 16.3931 57.6496 16.2361 58.6933 16.2361C59.3925 16.2361 60.0765 16.3171 60.7453 16.4793C61.4243 16.6313 62.0272 16.8593 62.5541 17.1633L61.6269 19.3977C61.1203 19.1241 60.6187 18.9214 60.1221 18.7897C59.6256 18.6478 59.1443 18.5769 58.6781 18.5769C58.2627 18.5769 57.9283 18.6225 57.6749 18.7137C57.4216 18.7947 57.2392 18.9062 57.1277 19.0481C57.0163 19.1899 56.9605 19.3521 56.9605 19.5345C56.9605 19.7675 57.0669 19.955 57.2797 20.0969C57.5027 20.2286 57.7915 20.3401 58.1461 20.4313C58.5109 20.5123 58.9061 20.5985 59.3317 20.6897C59.7675 20.7809 60.1981 20.8974 60.6237 21.0393C61.0595 21.171 61.4547 21.3534 61.8093 21.5865C62.164 21.8094 62.4477 22.1083 62.6605 22.4833C62.8835 22.8481 62.9949 23.3091 62.9949 23.8665C62.9949 24.4846 62.8176 25.0571 62.4629 25.5841C62.1184 26.1009 61.5965 26.5163 60.8973 26.8305C60.2083 27.1446 59.3368 27.3017 58.2829 27.3017ZM69.2947 27.3017C67.7241 27.3017 66.4979 26.871 65.6163 26.0097C64.7347 25.1483 64.2939 23.9273 64.2939 22.3465V16.4489H67.3035V22.2553C67.3035 23.1673 67.4809 23.8209 67.8355 24.2161C68.2003 24.6113 68.6969 24.8089 69.3251 24.8089C69.9534 24.8089 70.4449 24.6113 70.7995 24.2161C71.1542 23.8209 71.3315 23.1673 71.3315 22.2553V16.4489H74.2955V22.3465C74.2955 23.9273 73.8547 25.1483 72.9731 26.0097C72.0915 26.871 70.8654 27.3017 69.2947 27.3017ZM76.3344 27.0889V16.4489H81.776C83.1744 16.4489 84.2181 16.7073 84.9072 17.2241C85.5962 17.7307 85.9408 18.3995 85.9408 19.2305C85.9408 19.7777 85.7938 20.259 85.5 20.6745C85.2162 21.0798 84.8109 21.4041 84.284 21.6473C83.7672 21.8803 83.149 21.9969 82.4296 21.9969L82.7336 21.2673C83.4834 21.2673 84.137 21.3838 84.6944 21.6169C85.2517 21.8398 85.6824 22.1691 85.9864 22.6049C86.3005 23.0305 86.4576 23.5523 86.4576 24.1705C86.4576 25.0926 86.0826 25.8121 85.3328 26.3289C84.593 26.8355 83.5088 27.0889 82.08 27.0889H76.3344ZM79.3136 24.9153H81.8368C82.3536 24.9153 82.7437 24.8291 83.0072 24.6569C83.2808 24.4745 83.4176 24.2009 83.4176 23.8361C83.4176 23.4713 83.2808 23.2027 83.0072 23.0305C82.7437 22.8481 82.3536 22.7569 81.8368 22.7569H79.1008V20.6745H81.3808C81.8874 20.6745 82.2674 20.5883 82.5208 20.4161C82.7741 20.2438 82.9008 19.9854 82.9008 19.6409C82.9008 19.2963 82.7741 19.043 82.5208 18.8809C82.2674 18.7086 81.8874 18.6225 81.3808 18.6225H79.3136V24.9153ZM88.0164 27.0889V16.4489H90.494L94.902 23.6841H93.5948L97.8812 16.4489H100.359L100.389 27.0889H97.6228L97.5924 20.6593H98.0636L94.8564 26.0401H93.5188L90.2204 20.6593H90.798V27.0889H88.0164ZM102.519 27.0889V16.4489H105.528V27.0889H102.519ZM109.934 27.0889V18.8353H106.666V16.4489H116.197V18.8353H112.944V27.0889H109.934Z" fill="#A61E00"/>
</svg>
