<svg width="179" height="51" viewBox="0 0 179 51" fill="none" xmlns="http://www.w3.org/2000/svg">
<g filter="url(#filter0_d_2284_21877)">
<rect x="5.05556" y="1.05556" width="168.889" height="40.5333" rx="15.8333" stroke="white" stroke-width="2.11111"/>
<path d="M62.2829 27.3017C61.4115 27.3017 60.5704 27.1953 59.7597 26.9825C58.9592 26.7595 58.3056 26.4758 57.7989 26.1313L58.7869 23.9121C59.2632 24.2161 59.8104 24.4694 60.4285 24.6721C61.0568 24.8646 61.68 24.9609 62.2981 24.9609C62.7136 24.9609 63.048 24.9254 63.3013 24.8545C63.5547 24.7734 63.7371 24.6721 63.8485 24.5505C63.9701 24.4187 64.0309 24.2667 64.0309 24.0945C64.0309 23.8513 63.9195 23.6587 63.6965 23.5169C63.4736 23.375 63.1848 23.2585 62.8301 23.1673C62.4755 23.0761 62.0803 22.9849 61.6445 22.8937C61.2189 22.8025 60.7883 22.6859 60.3525 22.5441C59.9269 22.4022 59.5368 22.2198 59.1821 21.9969C58.8275 21.7638 58.5387 21.4649 58.3157 21.1001C58.0928 20.7251 57.9813 20.2539 57.9813 19.6865C57.9813 19.0481 58.1536 18.4705 58.4981 17.9537C58.8528 17.4369 59.3797 17.0214 60.0789 16.7073C60.7781 16.3931 61.6496 16.2361 62.6933 16.2361C63.3925 16.2361 64.0765 16.3171 64.7453 16.4793C65.4243 16.6313 66.0272 16.8593 66.5541 17.1633L65.6269 19.3977C65.1203 19.1241 64.6187 18.9214 64.1221 18.7897C63.6256 18.6478 63.1443 18.5769 62.6781 18.5769C62.2627 18.5769 61.9283 18.6225 61.6749 18.7137C61.4216 18.7947 61.2392 18.9062 61.1277 19.0481C61.0163 19.1899 60.9605 19.3521 60.9605 19.5345C60.9605 19.7675 61.0669 19.955 61.2797 20.0969C61.5027 20.2286 61.7915 20.3401 62.1461 20.4313C62.5109 20.5123 62.9061 20.5985 63.3317 20.6897C63.7675 20.7809 64.1981 20.8974 64.6237 21.0393C65.0595 21.171 65.4547 21.3534 65.8093 21.5865C66.164 21.8094 66.4477 22.1083 66.6605 22.4833C66.8835 22.8481 66.9949 23.3091 66.9949 23.8665C66.9949 24.4846 66.8176 25.0571 66.4629 25.5841C66.1184 26.1009 65.5965 26.5163 64.8973 26.8305C64.2083 27.1446 63.3368 27.3017 62.2829 27.3017ZM73.2947 27.3017C71.7241 27.3017 70.4979 26.871 69.6163 26.0097C68.7347 25.1483 68.2939 23.9273 68.2939 22.3465V16.4489H71.3035V22.2553C71.3035 23.1673 71.4809 23.8209 71.8355 24.2161C72.2003 24.6113 72.6969 24.8089 73.3251 24.8089C73.9534 24.8089 74.4449 24.6113 74.7995 24.2161C75.1542 23.8209 75.3315 23.1673 75.3315 22.2553V16.4489H78.2955V22.3465C78.2955 23.9273 77.8547 25.1483 76.9731 26.0097C76.0915 26.871 74.8654 27.3017 73.2947 27.3017ZM80.3344 27.0889V16.4489H85.776C87.1744 16.4489 88.2181 16.7073 88.9072 17.2241C89.5962 17.7307 89.9408 18.3995 89.9408 19.2305C89.9408 19.7777 89.7938 20.259 89.5 20.6745C89.2162 21.0798 88.8109 21.4041 88.284 21.6473C87.7672 21.8803 87.149 21.9969 86.4296 21.9969L86.7336 21.2673C87.4834 21.2673 88.137 21.3838 88.6944 21.6169C89.2517 21.8398 89.6824 22.1691 89.9864 22.6049C90.3005 23.0305 90.4576 23.5523 90.4576 24.1705C90.4576 25.0926 90.0826 25.8121 89.3328 26.3289C88.593 26.8355 87.5088 27.0889 86.08 27.0889H80.3344ZM83.3136 24.9153H85.8368C86.3536 24.9153 86.7437 24.8291 87.0072 24.6569C87.2808 24.4745 87.4176 24.2009 87.4176 23.8361C87.4176 23.4713 87.2808 23.2027 87.0072 23.0305C86.7437 22.8481 86.3536 22.7569 85.8368 22.7569H83.1008V20.6745H85.3808C85.8874 20.6745 86.2674 20.5883 86.5208 20.4161C86.7741 20.2438 86.9008 19.9854 86.9008 19.6409C86.9008 19.2963 86.7741 19.043 86.5208 18.8809C86.2674 18.7086 85.8874 18.6225 85.3808 18.6225H83.3136V24.9153ZM92.0164 27.0889V16.4489H94.494L98.902 23.6841H97.5948L101.881 16.4489H104.359L104.389 27.0889H101.623L101.592 20.6593H102.064L98.8564 26.0401H97.5188L94.2204 20.6593H94.798V27.0889H92.0164ZM106.519 27.0889V16.4489H109.528V27.0889H106.519ZM113.934 27.0889V18.8353H110.666V16.4489H120.197V18.8353H116.944V27.0889H113.934Z" fill="white"/>
</g>
<defs>
<filter id="filter0_d_2284_21877" x="0" y="0" width="179" height="50.6445" filterUnits="userSpaceOnUse" color-interpolation-filters="sRGB">
<feFlood flood-opacity="0" result="BackgroundImageFix"/>
<feColorMatrix in="SourceAlpha" type="matrix" values="0 0 0 0 0 0 0 0 0 0 0 0 0 0 0 0 0 0 127 0" result="hardAlpha"/>
<feOffset dy="4"/>
<feGaussianBlur stdDeviation="2"/>
<feComposite in2="hardAlpha" operator="out"/>
<feColorMatrix type="matrix" values="0 0 0 0 0 0 0 0 0 0 0 0 0 0 0 0 0 0 0.25 0"/>
<feBlend mode="normal" in2="BackgroundImageFix" result="effect1_dropShadow_2284_21877"/>
<feBlend mode="normal" in="SourceGraphic" in2="effect1_dropShadow_2284_21877" result="shape"/>
</filter>
</defs>
</svg>
